<?xml version="1.0" encoding="UTF-8"?>
<svg width="192px" height="34px" viewBox="0 0 192 34" version="1.1" xmlns="http://www.w3.org/2000/svg" xmlns:xlink="http://www.w3.org/1999/xlink">
    <!-- Generator: Sketch 50 (54983) - http://www.bohemiancoding.com/sketch -->
    <title>nbp-logo</title>
    <desc>Created with Sketch.</desc>
    <defs></defs>
    <g id="02-Anbieter" stroke="none" stroke-width="1" fill="none" fill-rule="evenodd">
        <g id="02-0-Anbieter-Promo" transform="translate(-525.000000, -552.000000)" fill-rule="nonzero">
            <g id="Promo" transform="translate(0.000000, 258.000000)">
                <g id="nbp-logo" transform="translate(525.000000, 294.000000)">
                    <path d="M29.9979487,21.7928205 L31.3107692,21.6615385 C31.1794872,23.1712821 24.1887179,33.5425641 11.585641,33.5425641 C-2.10051282,33.5425641 -2.75692308,17.1323077 6.43282051,7.45025641 C11.3887179,2.23179487 17.2635897,0.164102564 21.8584615,0.164102564 C27.7005128,0.196923077 32.7548718,4.59487179 32.7220513,11.1917949 C32.6892308,17.92 27.7661538,22.3835897 25.1405128,23.4338462 C23.7620513,23.9917949 21.694359,23.5979487 22.6461538,21.1035897 C23.7620513,18.0841026 26.1907692,11.8482051 26.1907692,11.8482051 L24.6810256,9.51794872 L21.6615385,11.3887179 L16.1476923,23.9917949 L12.7015385,24.6153846 L18.1169231,13.1282051 L16.0492308,14.3097436 L14.08,12.3076923 L25.6,6.4 L29.2430769,13.6861538 L27.8317949,14.9005128 L27.1753846,13.9815385 C27.1753846,13.9815385 26.0594872,17.1323077 25.6,18.1169231 C24.32,20.9723077 25.8953846,21.1692308 26.945641,20.2174359 C28.5210256,18.8061538 31.4092308,15.7538462 31.4748718,11.0605128 C31.5405128,7.45025641 28.5866667,2.36307692 22.1538462,2.62564103 C18.8061538,2.75692308 14.5723077,4.43076923 10.0758974,9.25538462 C5.02153846,14.6707692 1.73948718,29.374359 14.014359,30.0964103 C21.4974359,30.5887179 27.4707692,25.6328205 29.9979487,21.7928205 Z" id="Shape" fill="#79C20A"></path>
                    <path d="M41.7805128,11.6512821 L42.7323077,11.6512821 L43.6841026,11.6512821 L43.3887179,12.6030769 C44.0779487,11.8482051 44.865641,11.454359 45.7846154,11.454359 C46.7364103,11.454359 47.36,11.7497436 47.6553846,12.3405128 C47.9507692,12.9312821 47.9179487,13.8174359 47.5569231,14.9989744 L45.3251282,22.2194872 L44.3733333,22.2194872 L43.3887179,22.2194872 L45.6533333,14.8348718 C45.8830769,14.145641 45.9158974,13.6205128 45.8174359,13.2923077 C45.7189744,12.9641026 45.4564103,12.7671795 45.0625641,12.7671795 C44.4061538,12.7671795 43.8810256,13.0297436 43.4871795,13.5876923 C43.0605128,14.1128205 42.6994872,15.0317949 42.3712821,16.2789744 L40.5333333,22.2194872 L39.5487179,22.2194872 L38.5312821,22.2194872 L41.7805128,11.6512821 Z" id="Shape" fill="#000000"></path>
                    <path d="M53.7928205,21.7271795 C53.2348718,22.2194872 52.3487179,22.4492308 51.1015385,22.4492308 C49.8871795,22.4492308 49.0994872,22.0882051 48.6728205,21.3989744 C48.4758974,21.0379487 48.3446154,20.6112821 48.3446154,20.0861538 C48.3446154,19.5938462 48.4430769,19.0030769 48.64,18.3466667 L49.4276923,15.5897436 C49.854359,14.08 50.4123077,12.9969231 51.1015385,12.3733333 C51.7907692,11.7497436 52.7425641,11.454359 53.9569231,11.454359 C55.105641,11.454359 55.8605128,11.8153846 56.2215385,12.5046154 C56.4184615,12.8328205 56.5169231,13.2923077 56.5169231,13.7846154 C56.5169231,14.3097436 56.4184615,14.9005128 56.2215385,15.5897436 L55.6307692,17.5589744 L50.8389744,17.5589744 L50.6092308,18.3138462 C50.2810256,19.4297436 50.1825641,20.1846154 50.2810256,20.545641 C50.3794872,20.9066667 50.7405128,21.1035897 51.3641026,21.1035897 C51.7907692,21.1035897 52.1517949,20.9394872 52.4471795,20.6441026 C52.7425641,20.3158974 53.0051282,19.8235897 53.2020513,19.1671795 L55.0728205,19.1671795 C54.8102564,20.3815385 54.3835897,21.2348718 53.7928205,21.7271795 Z M54.0553846,16.2461538 L54.2523077,15.5897436 C54.5805128,14.4738462 54.7117949,13.7189744 54.6133333,13.3579487 C54.5476923,12.9969231 54.2194872,12.8 53.6615385,12.8 C53.1364103,12.8 52.7097436,12.9969231 52.3815385,13.4235897 C52.0533333,13.8502564 51.7251282,14.5723077 51.4625641,15.5897436 L51.265641,16.2461538 L54.0553846,16.2461538 Z" id="Shape" fill="#000000"></path>
                    <path d="M59.3066667,19.4953846 C59.1425641,20.0205128 59.1097436,20.4471795 59.2410256,20.7097436 C59.3394872,20.9723077 59.6020513,21.1035897 59.9958974,21.1035897 C60.5538462,21.1035897 61.0133333,20.8410256 61.4071795,20.2830769 C61.8010256,19.7579487 62.1620513,18.8389744 62.5558974,17.5917949 L64.2953846,11.6512821 L65.28,11.6512821 L66.2646154,11.6512821 L63.1794872,22.2194872 L62.2605128,22.2194872 L61.3415385,22.2194872 L61.7025641,21.1035897 L61.5712821,21.2348718 C60.8820513,22.0225641 60.0287179,22.4492308 59.0441026,22.4492308 C58.2235897,22.4492308 57.665641,22.1538462 57.3702564,21.5958974 C57.2389744,21.3005128 57.1405128,20.9723077 57.1405128,20.5784615 C57.1405128,20.1846154 57.2061538,19.7251282 57.3702564,19.2 L59.5692308,11.6512821 L60.5866667,11.6512821 L61.6041026,11.6512821 L59.3066667,19.4953846 Z" id="Shape" fill="#000000"></path>
                    <path d="M70.0389744,7.05641026 L71.0564103,7.05641026 L72.0738462,7.05641026 L70.5312821,12.4061538 C71.1876923,11.7825641 71.9425641,11.454359 72.7630769,11.454359 C73.7476923,11.454359 74.4041026,11.7497436 74.6666667,12.3405128 C74.7651282,12.5702564 74.8307692,12.8984615 74.8307692,13.2594872 C74.8307692,13.7846154 74.6994872,14.4738462 74.5025641,15.2615385 L73.2553846,19.5282051 C72.96,20.5128205 72.5333333,21.2676923 72.0082051,21.76 C71.4830769,22.2194872 70.8266667,22.4820513 70.0061538,22.4820513 C69.0215385,22.4820513 68.2994872,22.0225641 67.8728205,21.1364103 L67.5446154,22.2523077 L65.6410256,22.2523077 L70.0389744,7.05641026 Z M68.4307692,20.2502564 C68.4635897,20.8410256 68.8246154,21.1364103 69.4810256,21.1364103 C69.9405128,21.1364103 70.334359,20.9394872 70.6625641,20.545641 C70.9907692,20.1517949 71.2861538,19.5938462 71.5158974,18.8061538 L72.5989744,15.0974359 C72.8615385,14.2441026 72.9271795,13.6533333 72.8287179,13.2923077 C72.7302564,12.9312821 72.4348718,12.7671795 71.9425641,12.7671795 C71.3846154,12.7671795 70.9251282,13.0297436 70.5641026,13.5220513 C70.2030769,14.014359 69.8092308,14.9005128 69.4482051,16.1148718 L69.2184615,16.9682051 C68.6276923,18.5764103 68.3979487,19.6594872 68.4307692,20.2502564 Z" id="Shape" fill="#000000"></path>
                    <path d="M79.6225641,21.6287179 C78.9989744,22.1866667 78.2112821,22.4492308 77.3251282,22.4492308 C76.3405128,22.4492308 75.7169231,22.1538462 75.4215385,21.5630769 C75.3230769,21.3333333 75.2574359,21.0379487 75.2574359,20.6769231 C75.2574359,20.1517949 75.3887179,19.5282051 75.585641,18.8061538 L75.6184615,18.7076923 C75.9466667,17.6246154 76.4717949,16.8697436 77.1610256,16.4102564 C77.8502564,15.9507692 78.8676923,15.7210256 80.2133333,15.7210256 C81.0338462,15.7210256 81.4276923,15.7538462 81.3948718,15.8194872 L81.7230769,14.8020513 C81.985641,14.08 82.0512821,13.5548718 81.92,13.2266667 C81.7887179,12.8984615 81.4605128,12.7671795 80.9025641,12.7671795 C80.4758974,12.7671795 80.1148718,12.8984615 79.8523077,13.1938462 C79.5897436,13.4892308 79.3271795,13.9158974 79.1630769,14.5723077 L77.1938462,14.5723077 C77.4564103,13.5876923 77.8830769,12.8 78.5394872,12.2748718 C79.1630769,11.7169231 79.9507692,11.454359 80.8697436,11.454359 C82.1825641,11.454359 83.0687179,11.7825641 83.4953846,12.4389744 C83.7251282,12.7671795 83.8235897,13.1938462 83.8235897,13.7189744 C83.8235897,14.2112821 83.7251282,14.7692308 83.4953846,15.425641 L81.3948718,22.2523077 L79.6225641,22.2523077 L79.9179487,21.3005128 C79.8523077,21.3989744 79.7538462,21.5302564 79.6225641,21.6287179 Z M81.0338462,17.1651282 C81.0666667,17.0666667 80.8369231,17.0338462 80.3446154,17.0338462 C79.4912821,17.0338462 78.8676923,17.1651282 78.4738462,17.4605128 C78.08,17.7558974 77.7517949,18.2810256 77.5220513,19.0358974 L77.4892308,19.134359 C77.2594872,19.8564103 77.1938462,20.3487179 77.3251282,20.6769231 C77.4235897,20.9723077 77.7189744,21.1364103 78.2112821,21.1364103 C78.7035897,21.1364103 79.1302564,20.9723077 79.5241026,20.6112821 C79.9179487,20.2502564 80.2461538,19.7251282 80.4758974,19.0687179 L81.0338462,17.1651282 Z" id="Shape" fill="#000000"></path>
                    <path d="M86.7774359,19.4953846 C86.6133333,20.0205128 86.5805128,20.4471795 86.7117949,20.7097436 C86.8102564,20.9723077 87.0728205,21.1035897 87.4666667,21.1035897 C88.0246154,21.1035897 88.4841026,20.8410256 88.8779487,20.2830769 C89.2717949,19.7579487 89.6328205,18.8389744 90.0266667,17.5917949 L91.7333333,11.6512821 L92.7179487,11.6512821 L93.7025641,11.6512821 L90.6174359,22.2194872 L89.6984615,22.2194872 L88.7794872,22.2194872 L89.1405128,21.1035897 L89.0092308,21.2348718 C88.32,22.0225641 87.4666667,22.4492308 86.4820513,22.4492308 C85.6615385,22.4492308 85.1035897,22.1538462 84.8082051,21.5958974 C84.6769231,21.3005128 84.5784615,20.9723077 84.5784615,20.5784615 C84.5784615,20.1846154 84.6441026,19.7251282 84.8082051,19.2 L87.0071795,11.6512821 L88.0246154,11.6512821 L89.0420513,11.6512821 L86.7774359,19.4953846 Z" id="Shape" fill="#000000"></path>
                    <path d="M96.0984615,11.6512821 L97.0174359,11.6512821 L97.9364103,11.6512821 L97.6738462,12.6030769 L97.7066667,12.5702564 C98.3958974,11.8153846 99.1835897,11.4215385 100.135385,11.4215385 C101.054359,11.4215385 101.677949,11.7497436 101.940513,12.4061538 C102.071795,12.7015385 102.137436,13.0297436 102.137436,13.4564103 C102.137436,13.9487179 102.038974,14.5394872 101.842051,15.2287179 L100.594872,19.4953846 C100.299487,20.48 99.8728205,21.2348718 99.3476923,21.7271795 C98.8225641,22.1866667 98.1661538,22.4492308 97.345641,22.4492308 C96.3938462,22.4492308 95.7046154,22.0553846 95.2451282,21.3661538 L93.8666667,26.1907692 L92.8820513,26.1907692 L91.8974359,26.1907692 L96.0984615,11.6512821 Z M96.8861538,21.1364103 C97.345641,21.1364103 97.7394872,20.9394872 98.0676923,20.545641 C98.3958974,20.1517949 98.6912821,19.5938462 98.9210256,18.8061538 L100.004103,15.0974359 C100.266667,14.2441026 100.332308,13.6533333 100.233846,13.2923077 C100.135385,12.9312821 99.84,12.7671795 99.3476923,12.7671795 C98.7897436,12.7671795 98.3302564,13.0297436 97.9692308,13.5220513 C97.5753846,14.014359 97.214359,14.9005128 96.8533333,16.1148718 L96.6235897,16.9682051 C96.065641,18.5764103 95.8358974,19.6923077 95.8687179,20.2830769 C95.8687179,20.8410256 96.2297436,21.1364103 96.8861538,21.1364103 Z" id="Shape" fill="#000000"></path>
                    <path d="M105.353846,11.6512821 L106.272821,11.6512821 L107.191795,11.6512821 L106.929231,12.7671795 L107.060513,12.6358974 C107.848205,11.8482051 108.734359,11.454359 109.751795,11.454359 L109.259487,13.4235897 L109.095385,13.4235897 C108.209231,13.4235897 107.552821,13.6205128 107.126154,14.014359 C106.699487,14.4082051 106.305641,15.1630769 105.944615,16.3117949 L104.237949,22.2523077 L103.253333,22.2523077 L102.268718,22.2523077 L105.353846,11.6512821 Z" id="Shape" fill="#000000"></path>
                    <path d="M112.246154,22.4492308 C111.031795,22.4492308 110.178462,22.0882051 109.751795,21.3989744 C109.522051,21.0379487 109.42359,20.5784615 109.42359,20.0533333 C109.42359,19.5610256 109.522051,19.0030769 109.718974,18.3466667 L110.506667,15.5897436 C110.933333,14.08 111.491282,12.9969231 112.147692,12.3733333 C112.804103,11.7497436 113.723077,11.454359 114.904615,11.454359 C116.118974,11.454359 116.972308,11.8153846 117.398974,12.5046154 C117.628718,12.865641 117.727179,13.3251282 117.727179,13.8830769 C117.727179,14.3753846 117.628718,14.9661538 117.431795,15.5897436 L116.644103,18.3466667 C116.217436,19.8564103 115.659487,20.9066667 115.003077,21.5302564 C114.346667,22.1210256 113.427692,22.4492308 112.246154,22.4492308 Z M112.574359,21.1035897 C113.066667,21.1035897 113.460513,20.9066667 113.788718,20.48 C114.116923,20.0533333 114.412308,19.3312821 114.674872,18.3138462 L115.462564,15.5569231 C115.790769,14.4738462 115.889231,13.7517949 115.790769,13.3579487 C115.692308,12.9641026 115.298462,12.7671795 114.609231,12.7671795 C114.116923,12.7671795 113.723077,12.9641026 113.394872,13.3907692 C113.066667,13.8174359 112.771282,14.5394872 112.508718,15.5569231 L111.721026,18.3138462 C111.392821,19.3969231 111.294359,20.1189744 111.392821,20.5128205 C111.491282,20.9066667 111.885128,21.1035897 112.574359,21.1035897 Z" id="Shape" fill="#000000"></path>
                    <path d="M120.779487,11.6512821 L121.764103,11.6512821 L122.781538,11.6512821 L119.729231,22.1866667 C119.236923,23.9917949 118.777436,25.1405128 118.317949,25.6328205 C117.891282,26.1251282 117.10359,26.3876923 116.020513,26.3876923 C115.659487,26.3876923 115.331282,26.3548718 115.068718,26.3220513 L115.495385,25.0092308 L116.020513,25.0420513 C116.348718,25.0420513 116.644103,24.8779487 116.873846,24.5825641 C117.10359,24.254359 117.333333,23.7292308 117.530256,23.0071795 L120.779487,11.6512821 Z M122.092308,7.08923077 L124.16,7.08923077 L123.569231,9.15692308 L121.501538,9.15692308 L122.092308,7.08923077 Z" id="Shape" fill="#000000"></path>
                    <path d="M128.131282,21.7271795 C127.573333,22.2194872 126.687179,22.4492308 125.44,22.4492308 C124.225641,22.4492308 123.437949,22.0882051 123.011282,21.3989744 C122.814359,21.0379487 122.683077,20.6112821 122.683077,20.0861538 C122.683077,19.5938462 122.781538,19.0030769 122.978462,18.3466667 L123.766154,15.5897436 C124.192821,14.08 124.750769,12.9969231 125.44,12.3733333 C126.129231,11.7497436 127.081026,11.454359 128.295385,11.454359 C129.444103,11.454359 130.198974,11.8153846 130.56,12.5046154 C130.756923,12.8328205 130.855385,13.2923077 130.855385,13.7846154 C130.855385,14.3097436 130.756923,14.9005128 130.56,15.5897436 L129.969231,17.5589744 L125.177436,17.5589744 L124.947692,18.3138462 C124.619487,19.4297436 124.521026,20.1846154 124.619487,20.545641 C124.717949,20.9066667 125.078974,21.1035897 125.702564,21.1035897 C126.129231,21.1035897 126.490256,20.9394872 126.785641,20.6441026 C127.081026,20.3158974 127.34359,19.8235897 127.540513,19.1671795 L129.411282,19.1671795 C129.115897,20.3815385 128.722051,21.2348718 128.131282,21.7271795 Z M128.393846,16.2461538 L128.590769,15.5897436 C128.918974,14.4738462 129.050256,13.7189744 128.951795,13.3579487 C128.886154,12.9969231 128.557949,12.8 127.967179,12.8 C127.442051,12.8 127.015385,12.9969231 126.687179,13.4235897 C126.358974,13.8502564 126.030769,14.5723077 125.768205,15.5897436 L125.571282,16.2461538 L128.393846,16.2461538 Z" id="Shape" fill="#000000"></path>
                    <path d="M133.054359,22.2194872 L132.069744,22.2194872 L131.085128,22.2194872 L135.745641,7.02358974 L136.730256,7.02358974 L137.714872,7.02358974 L133.054359,22.2194872 Z M134.957949,16.0820513 L138.765128,11.6512821 L139.848205,11.6512821 L140.931282,11.6512821 L136.992821,16.2461538 L138.24,22.2194872 L137.255385,22.2194872 L136.270769,22.2194872 L134.957949,16.0820513 Z" id="Shape" fill="#000000"></path>
                    <path d="M144.344615,22.3835897 C144.01641,22.4492308 143.655385,22.4492308 143.294359,22.4492308 C142.244103,22.4492308 141.620513,22.1866667 141.357949,21.694359 C141.095385,21.2020513 141.161026,20.2830769 141.554872,18.9702564 L143.261538,13.1282051 L141.883077,13.1282051 L142.309744,11.6841026 L143.688205,11.6841026 L144.246154,9.78051282 L146.445128,8.96 L145.657436,11.6841026 L147.331282,11.6841026 L146.904615,13.1282051 L145.230769,13.1282051 L143.524103,18.9702564 C143.294359,19.7251282 143.228718,20.2830769 143.36,20.6112821 C143.491282,20.9394872 143.786667,21.1035897 144.278974,21.1035897 C144.443077,21.1035897 144.607179,21.1035897 144.738462,21.0707692 L144.344615,22.3835897 Z" id="Shape" fill="#000000"></path>
                    <path d="M152.746667,21.7271795 C152.188718,22.2194872 151.302564,22.4492308 150.055385,22.4492308 C148.841026,22.4492308 148.053333,22.0882051 147.626667,21.3989744 C147.429744,21.0379487 147.298462,20.6112821 147.298462,20.0861538 C147.298462,19.5938462 147.396923,19.0030769 147.593846,18.3466667 L148.381538,15.5897436 C148.808205,14.08 149.366154,12.9969231 150.055385,12.3733333 C150.744615,11.7497436 151.69641,11.454359 152.910769,11.454359 C154.059487,11.454359 154.814359,11.8153846 155.175385,12.5046154 C155.372308,12.8328205 155.470769,13.2923077 155.470769,13.7846154 C155.470769,14.3097436 155.372308,14.9005128 155.175385,15.5897436 L154.584615,17.5589744 L149.792821,17.5589744 L149.563077,18.3138462 C149.234872,19.4297436 149.13641,20.1846154 149.234872,20.545641 C149.333333,20.9066667 149.694359,21.1035897 150.317949,21.1035897 C150.744615,21.1035897 151.105641,20.9394872 151.401026,20.6441026 C151.69641,20.3158974 151.958974,19.8235897 152.155897,19.1671795 L154.026667,19.1671795 C153.764103,20.3815385 153.337436,21.2348718 152.746667,21.7271795 Z M153.042051,16.2461538 L153.238974,15.5897436 C153.567179,14.4738462 153.698462,13.7189744 153.6,13.3579487 C153.534359,12.9969231 153.206154,12.8 152.648205,12.8 C152.123077,12.8 151.69641,12.9969231 151.368205,13.4235897 C151.04,13.8502564 150.711795,14.5723077 150.449231,15.5897436 L150.252308,16.2461538 L153.042051,16.2461538 Z" id="Shape" fill="#000000"></path>
                    <polygon id="Shape" fill="#000000" points="156.553846 19.7579487 158.818462 19.7579487 158.09641 22.2523077 155.831795 22.2523077"></polygon>
                    <path d="M167.811282,19.0687179 L167.68,19.4953846 C167.450256,20.5128205 167.05641,21.2676923 166.432821,21.76 C165.842051,22.2523077 164.988718,22.4820513 163.938462,22.4820513 C162.822564,22.4820513 162.034872,22.1210256 161.641026,21.4317949 C161.444103,21.1035897 161.345641,20.6769231 161.345641,20.1846154 C161.345641,19.6594872 161.444103,19.0687179 161.641026,18.3794872 L162.56,15.1958974 C162.921026,13.9158974 163.446154,12.9969231 164.036923,12.4061538 C164.660513,11.8153846 165.448205,11.52 166.432821,11.52 C167.548718,11.52 168.33641,11.8153846 168.763077,12.4061538 C169.025641,12.7671795 169.156923,13.2266667 169.156923,13.8174359 C169.156923,14.1784615 169.124103,14.5723077 168.992821,15.0317949 L167.05641,15.0317949 C167.286154,14.2769231 167.318974,13.7189744 167.220513,13.3907692 C167.122051,13.0297436 166.859487,12.865641 166.432821,12.865641 C166.006154,12.865641 165.612308,13.0625641 165.316923,13.4564103 C165.021538,13.8502564 164.726154,14.5066667 164.46359,15.4584615 L163.544615,18.6420513 C163.249231,19.5938462 163.150769,20.2502564 163.249231,20.6441026 C163.314872,21.0051282 163.610256,21.2020513 164.102564,21.2020513 C164.49641,21.2020513 164.824615,21.0707692 165.087179,20.8082051 C165.349744,20.545641 165.579487,20.1189744 165.74359,19.5610256 L165.874872,19.134359 L167.811282,19.134359 L167.811282,19.0687179 Z" id="Shape" fill="#000000"></path>
                    <path d="M173.686154,7.05641026 L174.670769,7.05641026 L175.688205,7.05641026 L174.112821,12.5374359 C174.834872,11.8153846 175.655385,11.454359 176.541538,11.4871795 C177.329231,11.4871795 177.854359,11.7497436 178.182564,12.2748718 C178.510769,12.8 178.54359,13.5220513 178.281026,14.3753846 L175.98359,22.2523077 L175.031795,22.2523077 L174.047179,22.2523077 L176.311795,14.4738462 C176.475897,13.9158974 176.508718,13.4892308 176.377436,13.2266667 C176.246154,12.9641026 175.98359,12.8 175.589744,12.8 C175.031795,12.8 174.539487,13.0625641 174.145641,13.6205128 C173.751795,14.145641 173.357949,15.0646154 172.996923,16.3117949 L171.257436,22.2523077 L170.24,22.2523077 L169.222564,22.2523077 L173.686154,7.05641026 Z" id="Shape" fill="#000000"></path>
                    <path d="M191.835897,4.79179487 C191.835897,6.95794872 190.09641,8.6974359 187.864615,8.6974359 C185.632821,8.6974359 183.860513,6.95794872 183.860513,4.79179487 C183.860513,2.62564103 185.632821,0.918974359 187.864615,0.918974359 C190.09641,0.918974359 191.835897,2.62564103 191.835897,4.79179487 Z M184.877949,4.79179487 C184.877949,6.53128205 186.190769,7.87692308 187.897436,7.87692308 C189.571282,7.90974359 190.851282,6.49846154 190.851282,4.79179487 C190.851282,3.05230769 189.571282,1.67384615 187.864615,1.67384615 C186.157949,1.70666667 184.877949,3.11794872 184.877949,4.79179487 Z M187.273846,6.82666667 L186.387692,6.82666667 L186.387692,2.95384615 C186.748718,2.92102564 187.241026,2.8225641 187.864615,2.8225641 C188.586667,2.8225641 188.914872,2.95384615 189.177436,3.11794872 C189.407179,3.28205128 189.571282,3.5774359 189.571282,3.93846154 C189.571282,4.39794872 189.210256,4.72615385 188.78359,4.8574359 L188.78359,4.92307692 C189.177436,5.05435897 189.341538,5.34974359 189.472821,5.87487179 C189.604103,6.46564103 189.669744,6.6625641 189.768205,6.82666667 L188.81641,6.82666667 C188.685128,6.69538462 188.619487,6.36717949 188.521026,5.87487179 C188.455385,5.48102564 188.225641,5.28410256 187.733333,5.28410256 L187.306667,5.28410256 L187.306667,6.82666667 L187.273846,6.82666667 Z M187.273846,4.62769231 L187.700513,4.62769231 C188.192821,4.62769231 188.586667,4.46358974 188.586667,4.06974359 C188.586667,3.70871795 188.324103,3.47897436 187.766154,3.47897436 C187.53641,3.47897436 187.372308,3.51179487 187.273846,3.51179487 L187.273846,4.62769231 Z" id="Shape" fill="#000000"></path>
                </g>
            </g>
        </g>
    </g>
</svg>