<svg width="118" height="29" viewBox="0 0 118 29" fill="none" xmlns="http://www.w3.org/2000/svg">
<path d="M31.1742 28.8102C31.1742 28.7261 31.1462 28.6735 31.1119 28.6932C31.0777 28.7129 31.0069 28.6338 30.9546 28.5176C30.8995 28.3949 30.8144 28.3062 30.7521 28.3062C30.6671 28.3062 30.6602 28.2886 30.7193 28.2224C30.7768 28.1581 30.7749 28.1327 30.7111 28.1127C30.6459 28.0923 30.6487 28.0635 30.7245 27.9778C30.798 27.8948 30.8018 27.8629 30.7406 27.8437C30.6964 27.8299 30.6603 27.7924 30.6603 27.7603C30.6603 27.7283 30.6889 27.7185 30.7238 27.7386C30.7602 27.7595 30.771 27.7355 30.749 27.6824C30.728 27.6314 30.7438 27.5897 30.7842 27.5897C30.8376 27.5897 30.8389 27.5573 30.7888 27.4703C30.7335 27.3744 30.7399 27.3509 30.8212 27.3509C30.9029 27.3509 30.9069 27.3355 30.8419 27.2708C30.7587 27.1881 30.5972 27.2621 30.6182 27.3733C30.6237 27.402 30.5943 27.4371 30.5529 27.4513C30.5034 27.4683 30.4904 27.4319 30.5148 27.345C30.5353 27.2723 30.5258 27.2271 30.4937 27.2445C30.4617 27.262 30.3776 27.2565 30.3069 27.2323C30.2051 27.1975 30.235 27.1794 30.4515 27.145C30.6217 27.1179 30.7245 27.0698 30.7245 27.0173C30.7245 26.9709 30.7807 26.9329 30.8494 26.9329C30.918 26.9329 31.0137 26.8805 31.0621 26.8163C31.1487 26.7013 31.476 26.5444 31.582 26.567C31.612 26.5734 31.7999 26.5403 31.9996 26.4935C32.1993 26.4466 32.5434 26.3894 32.7643 26.3662C32.9852 26.3431 33.1821 26.2999 33.2018 26.2703C33.2214 26.2407 33.3009 26.2159 33.3783 26.2151C33.4557 26.2144 33.6925 26.1344 33.9045 26.0373C34.1165 25.9403 34.3388 25.8603 34.3986 25.8596C34.4583 25.8588 34.5251 25.8314 34.5469 25.7985C34.5688 25.7657 34.554 25.7388 34.5141 25.7388C34.4251 25.7388 34.4572 25.4718 34.5469 25.466C34.5823 25.4637 34.7379 25.4281 34.8928 25.3869C35.0477 25.3457 35.245 25.3284 35.3313 25.3485C35.4175 25.3686 35.5798 25.3588 35.692 25.3266C35.8042 25.2944 36.0573 25.2388 36.2545 25.2029C36.7956 25.1045 37.0845 25.0223 37.0845 24.9668C37.0845 24.9092 33.7889 24.9494 32.973 25.0169C32.5431 25.0524 32.3791 25.0427 32.2021 24.9712C32.0784 24.9212 31.9628 24.8764 31.9451 24.8717C31.9275 24.8669 31.8285 24.8306 31.7253 24.791C31.622 24.7513 31.4919 24.7354 31.4362 24.7556C31.3804 24.7758 30.5254 24.8019 29.536 24.8137C28.5467 24.8255 27.6072 24.8619 27.4482 24.8946C27.2892 24.9273 26.8127 24.9852 26.3893 25.0234C25.9659 25.0615 25.5642 25.1202 25.4966 25.1538C25.429 25.1874 25.2325 25.2024 25.0599 25.1869C24.8873 25.1715 24.7306 25.1824 24.7115 25.211C24.6925 25.2397 24.65 25.2476 24.6171 25.2287C24.5842 25.2099 24.5573 25.2228 24.5573 25.2576C24.5573 25.2924 24.5356 25.3155 24.5091 25.309C24.4022 25.2827 23.8506 25.3914 23.8506 25.4387C23.8506 25.497 23.3653 25.5938 23.1818 25.5722C23.1143 25.5642 23.0048 25.6119 22.9384 25.6781C22.872 25.7443 22.7682 25.8017 22.7078 25.8056C22.6473 25.8094 22.4244 25.8184 22.2124 25.8255C22.0004 25.8326 21.7113 25.8694 21.57 25.9073C21.4287 25.9452 21.2038 25.9913 21.0703 26.0098C20.9368 26.0283 20.8433 26.0669 20.8625 26.0958C20.9223 26.1857 20.7795 26.2092 19.6634 26.2936C19.6041 26.2981 19.5607 26.3272 19.567 26.3583C19.5733 26.3894 19.5207 26.4307 19.45 26.45C19.3793 26.4693 19.2485 26.5313 19.1593 26.5877C19.0426 26.6615 18.7993 26.701 18.292 26.7286C17.9043 26.7498 17.5201 26.7642 17.4385 26.7608C17.3568 26.7574 17.2012 26.7972 17.0927 26.8494C16.9806 26.9032 16.8782 26.9205 16.8557 26.8894C16.8004 26.8131 16.5742 26.7397 16.6238 26.8142C16.676 26.8927 16.6135 26.8887 16.4424 26.8025C16.0972 26.6286 14.4628 26.7608 14.2923 26.9765C14.2395 27.0432 14.2338 27.0882 14.2763 27.1014C14.3128 27.1127 14.3427 27.1458 14.3427 27.1749C14.3427 27.2039 14.3023 27.2133 14.2529 27.1957C14.2034 27.178 14.1439 27.1923 14.1206 27.2274C14.0583 27.3211 14.4433 27.3075 14.6511 27.2087C14.7465 27.1633 14.9546 27.1064 15.1136 27.0822C15.2726 27.0581 15.4533 27.0296 15.5152 27.0189C15.577 27.0082 15.6276 27.0347 15.6276 27.0777C15.6276 27.133 15.7075 27.1501 15.9006 27.136C16.1117 27.1207 16.1478 27.1301 16.0599 27.1775C15.9973 27.2112 15.9606 27.2606 15.9782 27.2872C16.0164 27.3445 15.6572 27.4022 14.9618 27.4503C14.5714 27.4774 14.444 27.4667 14.4007 27.4032C14.3601 27.3436 14.3444 27.3415 14.3437 27.3957C14.3423 27.5056 13.9561 27.4878 13.8178 27.3715C13.7532 27.3171 13.7003 27.2981 13.7003 27.3292C13.7003 27.3634 13.4918 27.3695 13.1703 27.3446C12.8788 27.322 12.4235 27.2888 12.1585 27.2707C11.8935 27.2526 11.5817 27.2065 11.4657 27.1684C11.3496 27.1302 11.1827 27.1117 11.0947 27.1273C11.0068 27.143 10.9166 27.1283 10.8943 27.0948C10.8694 27.0574 10.8862 27.0525 10.9379 27.0822C10.9902 27.1123 11.0064 27.1071 10.9807 27.0685C10.9324 26.9957 10.626 26.9298 10.2634 26.9142C10.0495 26.905 10.0052 26.8816 9.99941 26.7748C9.99317 26.6601 10.0375 26.6417 10.417 26.6008C10.6505 26.5756 10.9138 26.5609 11.0021 26.568L11.1627 26.5809L10.9923 26.4948C10.6967 26.3454 10.4085 26.2824 9.84578 26.2441C9.54545 26.2237 9.11181 26.1631 8.88214 26.1094C8.35391 25.9861 6.52102 25.9766 6.44108 26.0968C6.41357 26.1382 6.35706 26.1525 6.3155 26.1286C6.20816 26.067 5.02594 26.0462 5.06616 26.1067C5.10377 26.1633 5.0942 26.1642 4.2538 26.1879C3.66066 26.2047 3.41029 26.2251 2.52216 26.329C2.11719 26.3764 1.88042 26.3493 1.64896 26.2289C1.55203 26.1785 1.57292 26.1498 1.80636 26.0128C1.99464 25.9024 2.22467 25.8374 2.57187 25.7966C3.16439 25.727 3.72973 25.6393 4.13704 25.5538C4.38068 25.5027 4.42927 25.4711 4.40374 25.3804C4.38542 25.3152 4.33534 25.2827 4.28249 25.3015C4.23297 25.3192 4.19246 25.3039 4.19246 25.2675C4.19246 25.2312 4.24305 25.201 4.30488 25.2005C4.40096 25.1998 4.4033 25.1912 4.32094 25.1417C4.26 25.1051 4.25335 25.0835 4.30287 25.0829C4.34605 25.0824 4.36451 25.0417 4.34404 24.9921C4.31821 24.9296 4.38231 24.8711 4.55484 24.7999L4.80276 24.6975L4.17507 24.6615C3.82985 24.6417 3.37453 24.6282 3.16326 24.6315C2.95199 24.6349 2.77913 24.6342 2.77913 24.6301C2.77913 24.626 2.83695 24.5607 2.90761 24.485C2.97828 24.4092 3.0361 24.3654 3.0361 24.3876C3.0361 24.4098 3.1012 24.3884 3.18076 24.3399C3.26033 24.2915 3.53974 24.2209 3.80168 24.1831C4.06362 24.1454 4.39243 24.0769 4.53236 24.031C4.6723 23.9851 4.89157 23.9466 5.01963 23.9455C5.37739 23.9422 6.2786 23.7244 6.01801 23.7042C5.98562 23.7017 5.9013 23.6873 5.83064 23.6722C5.75997 23.657 5.66685 23.6375 5.62371 23.6287C5.47673 23.5987 5.46734 23.5406 5.60302 23.5006C5.67749 23.4786 5.81398 23.3956 5.90633 23.316C5.99869 23.2365 6.13876 23.1714 6.21761 23.1714C6.29645 23.1714 6.39394 23.1345 6.43426 23.0893C6.49449 23.0219 6.44152 23.0003 6.13697 22.968C5.93315 22.9465 5.67967 22.9158 5.57367 22.8999C5.32149 22.862 4.31801 22.8675 4.24908 22.9071C4.1561 22.9605 3.42155 22.9857 3.42155 22.9355C3.42155 22.9091 3.46492 22.854 3.51792 22.8132C3.57092 22.7723 3.61428 22.7108 3.61428 22.6765C3.61428 22.6422 3.59526 22.6318 3.57201 22.6534C3.54876 22.675 3.49094 22.6628 3.44352 22.6262C3.39579 22.5894 3.35731 22.5852 3.35731 22.6168C3.35731 22.6482 3.31395 22.6739 3.26095 22.6739C3.10666 22.6739 3.14898 22.6099 3.361 22.5227C3.59943 22.4246 3.56529 22.3835 3.18091 22.3057C2.83026 22.2347 2.76341 22.1235 3.01482 22.0293C3.27499 21.9318 4.49736 21.8053 5.19612 21.8035C5.52365 21.8027 5.86832 21.7841 5.96205 21.7623L6.13248 21.7225L5.94944 21.5834C5.84876 21.5068 5.71751 21.4432 5.65776 21.4421C5.50549 21.4391 5.4592 21.3441 5.54088 21.2022C5.62713 21.0525 6.18595 20.7831 6.41047 20.7831C6.50514 20.7831 6.55987 20.7574 6.5373 20.7234C6.51547 20.6906 6.44458 20.6637 6.37978 20.6637C6.27094 20.6637 6.14993 20.5147 6.17377 20.41C6.19801 20.3035 5.17873 20.4226 5.09343 20.5361C5.02828 20.6228 3.38782 20.8495 3.22655 20.794L3.07298 20.7412L3.22237 20.6669C3.30453 20.6261 3.83827 20.5204 4.40847 20.432C5.45185 20.2703 5.70579 20.1562 5.02209 20.1562C4.81201 20.1562 4.61875 20.1221 4.55592 20.074C4.46668 20.0055 4.34312 20.0037 3.82265 20.0627C2.86561 20.1714 2.30942 20.246 2.17898 20.2832C2.09257 20.3079 2.06658 20.2902 2.08262 20.2176C2.106 20.1118 2.30475 19.9876 2.61635 19.8842C2.88455 19.7952 2.71783 19.7167 2.37491 19.7706C2.22623 19.7939 1.97449 19.8319 1.8155 19.8551L1.5264 19.8971L1.76731 19.6826C1.89981 19.5645 2.00822 19.4584 2.00822 19.4466C2.00822 19.4349 1.82896 19.4065 1.60985 19.3834C1.09181 19.3289 0.814622 19.194 0.818211 18.9979C0.820096 18.8946 1.2357 18.7559 1.6224 18.7296C1.7816 18.7187 2.14313 18.6672 2.4258 18.615C2.70846 18.5628 3.14213 18.5081 3.38951 18.4933C3.63689 18.4785 4.0127 18.4381 4.22466 18.4035C5.54102 18.1887 5.8373 18.1358 5.89403 18.1056C5.9289 18.087 5.82772 18.0425 5.66918 18.0066C5.50965 17.9705 5.38094 17.9063 5.38094 17.8629C5.38094 17.7625 6.02844 17.5442 6.61608 17.4466C6.90194 17.3991 7.11345 17.3285 7.1827 17.2574C7.24468 17.1937 7.45974 17.1135 7.6725 17.0745C8.15525 16.9863 8.14221 16.9026 7.61768 16.7224C7.50522 16.6838 7.42624 16.6211 7.44216 16.5832C7.4784 16.4967 7.77617 16.3648 7.93511 16.3648C8.00082 16.3648 8.03671 16.338 8.01487 16.3051C7.99304 16.2723 7.76006 16.2454 7.49714 16.2454C7.06397 16.2454 6.89002 16.1844 7.09942 16.1058C7.28653 16.0357 6.34899 16.0737 5.88592 16.155C5.30925 16.2563 4.99549 16.2139 4.99549 16.0347C4.99549 15.952 5.16329 15.8435 5.62606 15.627C6.06201 15.4229 6.23055 15.3162 6.17212 15.2811C6.06114 15.2145 6.17068 15.1464 6.60155 15.0142C7.20971 14.8275 7.69218 14.5145 7.62884 14.3478C7.58558 14.234 7.82262 14.1719 8.80194 14.0405C9.28873 13.9752 9.77622 13.8804 9.88527 13.8298C9.99431 13.7793 10.2252 13.7221 10.3983 13.7028C10.8756 13.6497 11.789 13.4349 11.9319 13.3423C12.0016 13.2971 12.1461 13.2582 12.2531 13.2559C12.3601 13.2536 12.5054 13.2286 12.5761 13.2004C12.6784 13.1595 12.6522 13.1473 12.4476 13.1403C11.9 13.1215 11.6095 13.0713 11.5369 12.983C11.4873 12.9227 11.4099 12.9041 11.312 12.9291C11.1836 12.9619 11.1786 12.958 11.2763 12.9011C11.3388 12.8648 11.44 12.8426 11.5012 12.852C11.5624 12.8614 11.6513 12.8464 11.6989 12.8187C11.75 12.7889 11.85 12.8005 11.9437 12.8472C12.0672 12.9086 12.129 12.9104 12.2237 12.8554C12.3006 12.8108 12.3596 12.8064 12.3842 12.8434C12.4056 12.8755 12.5876 12.9028 12.7887 12.904C12.9897 12.9051 13.2265 12.9445 13.3149 12.9914C13.5073 13.0937 13.5718 13.1012 13.5718 13.0213C13.5718 12.9884 13.5268 12.9616 13.4717 12.9616C13.4166 12.9616 13.3874 12.9377 13.4067 12.9086C13.4261 12.8795 13.3814 12.841 13.3074 12.823C13.2334 12.805 13.1854 12.755 13.2008 12.7117C13.2291 12.632 13.5168 12.5853 14.407 12.5159C15.2112 12.4532 15.4349 12.4194 15.4349 12.3608C15.4349 12.33 15.3915 12.3048 15.3385 12.3048C15.285 12.3048 15.2421 12.2517 15.2421 12.1854C15.2421 12.0978 15.285 12.066 15.4027 12.066C15.5875 12.066 15.619 11.974 15.4485 11.9325C15.3853 11.9172 15.06 11.919 14.7257 11.9365C13.752 11.9876 13.3626 11.9706 13.1589 11.8681C13.0554 11.8161 12.9522 11.7842 12.9296 11.7972C12.9069 11.8102 12.9004 11.7452 12.915 11.6527C12.9468 11.451 12.8565 11.4196 12.1968 11.4027C11.8021 11.3926 11.7714 11.3835 11.9086 11.3175C12.1343 11.2087 12.9623 11.0527 13.456 11.0258C13.7083 11.0121 13.9467 10.9631 14.0324 10.9073C14.2149 10.7885 14.3249 10.787 14.4483 10.9017C14.5038 10.9532 14.6585 10.9907 14.8131 10.9899C15.2892 10.9877 17.0657 10.8197 17.3069 10.7542C17.5322 10.693 17.539 10.6831 17.4915 10.4873C17.4615 10.3639 17.4683 10.2597 17.5086 10.2222C17.5544 10.1796 17.5525 10.135 17.5023 10.0788C17.3488 9.90695 17.544 9.87137 18.4816 9.90034C19.21 9.92284 19.4373 9.91051 19.5851 9.84046C19.7415 9.76634 20.4466 9.66409 20.9276 9.64579C20.9982 9.64311 21.2006 9.61688 21.3773 9.58752L21.6985 9.53415L21.4094 9.49072C21.2504 9.46683 20.7734 9.46099 20.3494 9.47774C19.9254 9.49448 19.3183 9.50461 19.0003 9.50024C18.6823 9.49587 18.0608 9.53606 17.6191 9.58955C16.7452 9.69539 15.844 9.76942 15.456 9.76724C15.3207 9.76649 15.1919 9.78932 15.1697 9.818C15.1475 9.84668 15.0391 9.87357 14.9288 9.87776C14.8184 9.88196 14.7282 9.90763 14.7282 9.93482C14.7282 9.96201 14.6631 9.96725 14.5836 9.94647C14.4705 9.91689 14.46 9.92229 14.5355 9.97138C14.6185 10.0254 14.6163 10.0342 14.5194 10.035C14.4576 10.0355 14.407 10.0659 14.407 10.1025C14.407 10.1434 14.3459 10.1319 14.2486 10.0726C14.0728 9.96554 13.9957 9.94873 14.0491 10.0291C14.0685 10.0582 14.0268 10.096 13.9566 10.1131C13.8834 10.1309 13.8288 10.1146 13.8288 10.0751C13.8288 10.0351 13.7273 10.0061 13.5879 10.0061C13.4348 10.0061 13.3525 10.0322 13.362 10.0778C13.3724 10.1272 13.3031 10.1408 13.14 10.1214C12.8725 10.0896 12.6087 9.95047 12.6072 9.84049C12.6065 9.79348 12.5839 9.79932 12.544 9.85679C12.4956 9.92631 12.4815 9.90872 12.4807 9.77823C12.4794 9.56288 12.5853 9.37914 12.7106 9.37914C12.7645 9.37914 12.7906 9.35227 12.7688 9.31943C12.747 9.28659 12.7814 9.25767 12.8453 9.25516C13.057 9.24683 13.1915 9.21066 13.3346 9.12349C13.463 9.04533 13.7646 9.07541 13.7646 9.16637C13.7646 9.18282 13.7258 9.18246 13.6785 9.16551C13.6311 9.14862 13.5516 9.18149 13.5018 9.23855C13.4237 9.32795 13.4238 9.33523 13.5025 9.29118C13.5727 9.25187 13.5833 9.26535 13.5485 9.34958C13.5215 9.41509 13.5364 9.47863 13.5858 9.50772C13.7087 9.5802 13.8122 9.56657 13.7004 9.49263C13.6279 9.44467 13.6651 9.43679 13.8508 9.46081C13.9872 9.47847 14.15 9.46227 14.2149 9.42457C14.3038 9.37297 14.3552 9.37404 14.4265 9.42897C14.5023 9.48749 14.5302 9.48101 14.5704 9.39552C14.5978 9.33722 14.6156 9.26936 14.61 9.24473C14.6044 9.22011 14.6407 9.19995 14.6908 9.19995C14.7408 9.19995 14.7928 9.16923 14.8063 9.13167C14.8198 9.09411 14.9156 9.05498 15.0192 9.04471C15.1229 9.03443 15.24 8.98497 15.2795 8.9348C15.319 8.88462 15.3747 8.8633 15.4033 8.88742C15.432 8.91154 15.4372 8.88425 15.4151 8.82679C15.3654 8.69816 15.4883 8.68614 15.5412 8.81444C15.5749 8.89598 15.5932 8.89492 15.6998 8.80518C15.8137 8.70939 15.8204 8.71007 15.8214 8.81752C15.8222 8.91282 15.8324 8.91674 15.8846 8.84171C15.9775 8.70819 15.9642 8.67911 15.7923 8.63901C15.6832 8.61357 15.6388 8.56431 15.6459 8.47677C15.6572 8.33732 15.881 8.23307 16.1388 8.24715C16.3791 8.26028 16.5913 8.18344 16.5913 8.08327C16.5913 8.0188 16.6551 7.99988 16.8322 8.01189C17.0911 8.02945 17.5267 7.96225 17.6834 7.88056C17.7612 7.83999 17.755 7.82943 17.6513 7.82568C17.5806 7.82315 17.3783 7.80845 17.2016 7.79305C16.6553 7.74546 15.9287 7.74695 15.6666 7.79622C15.4866 7.83004 15.4289 7.82435 15.4611 7.77595C15.4887 7.73439 15.4714 7.72096 15.4156 7.74083C15.3628 7.75968 15.2775 7.70502 15.2097 7.60886C15.127 7.49145 15.1161 7.43788 15.1715 7.4207C15.2236 7.40458 15.211 7.36897 15.1332 7.31225C15.0276 7.23528 15.0344 7.23056 15.2101 7.25893C15.3161 7.27605 15.3667 7.27422 15.3225 7.25486C15.1598 7.18358 15.2494 7.11022 15.4992 7.11022C15.6614 7.11022 15.7565 7.13773 15.7571 7.18485C15.7578 7.23977 15.7727 7.23808 15.8133 7.17848C15.848 7.12758 15.8836 7.12006 15.909 7.15823C15.9521 7.22309 16.0339 7.21804 16.2346 7.13815C16.3035 7.11075 16.4549 7.08654 16.571 7.08435C16.8373 7.07933 16.9237 6.9311 16.6604 6.9311C16.5562 6.9311 16.4605 6.89227 16.4396 6.84154C16.4146 6.78111 16.4427 6.75198 16.5259 6.75198C16.5937 6.75198 16.6722 6.71839 16.7005 6.67734C16.7742 6.57031 17.036 6.44353 17.1034 6.48225C17.1348 6.50031 17.1787 6.48781 17.2009 6.45442C17.2231 6.42105 17.3211 6.39373 17.4186 6.39373C17.5161 6.39373 17.7528 6.3501 17.9448 6.29678C18.2477 6.2126 18.2749 6.19326 18.1511 6.15012C18.0728 6.12279 17.5363 6.10407 16.9591 6.10853C16.3819 6.11301 15.8719 6.09493 15.8257 6.06842C15.7779 6.04096 15.7228 6.04865 15.6978 6.0863C15.6462 6.16393 13.6491 6.22277 13.5995 6.14813C13.582 6.12189 13.5229 6.11642 13.4681 6.13597C13.4006 6.16006 13.3917 6.18491 13.4405 6.21297C13.4802 6.23577 13.4248 6.25442 13.3174 6.25442C13.2101 6.25442 13.1222 6.22874 13.1222 6.19735C13.1222 6.16597 13.0781 6.17428 13.0243 6.21582C12.9704 6.25735 12.9058 6.27224 12.8807 6.24889C12.8556 6.22555 12.9069 6.15562 12.9947 6.09351L13.1543 5.98056L12.9937 6.00925C12.853 6.0344 12.849 6.03093 12.9616 5.98121C13.1469 5.8994 13.4514 5.90787 13.6298 5.9998C13.8038 6.08939 14.0216 6.05987 14.0216 5.94669C14.0216 5.89455 14.1484 5.87113 14.4392 5.86961C14.7012 5.86823 14.8567 5.89185 14.8567 5.93301C14.8567 5.96909 14.8929 5.95459 14.937 5.90078C14.995 5.83011 15.169 5.7923 15.5634 5.76462C15.8637 5.74355 16.2919 5.6884 16.515 5.64207C16.738 5.59575 17.0126 5.55526 17.1253 5.55211C17.2379 5.54894 17.4746 5.50969 17.6513 5.46485C17.9525 5.38841 17.9185 5.38536 17.1052 5.4159C16.6282 5.43381 16.1946 5.44891 16.1416 5.44945C16.0886 5.44999 15.4237 5.51341 14.664 5.59038C13.9043 5.66736 13.0761 5.73855 12.8235 5.74858C12.571 5.75861 12.3775 5.78696 12.3937 5.81159C12.4099 5.83622 12.2985 5.85648 12.1463 5.85661C11.994 5.85661 11.6093 5.89578 11.2913 5.94335C10.746 6.02493 9.46325 6.10905 9.63745 6.05181C9.68184 6.03723 9.70181 6.00072 9.68184 5.97069C9.66187 5.94066 9.72673 5.91479 9.82598 5.91322C9.92523 5.91168 10.1076 5.85937 10.2313 5.79705C10.355 5.73474 10.514 5.6587 10.5846 5.62808C10.8169 5.52741 14.6058 4.94484 15.4992 4.87245C15.7642 4.85097 16.5302 4.78017 17.2016 4.71513C17.8729 4.65008 18.759 4.57079 19.1706 4.53893C19.5823 4.50705 20.0582 4.44207 20.2282 4.39453C20.4515 4.33206 20.5496 4.32655 20.5816 4.37468C20.6222 4.4357 21.298 4.41899 22.1161 4.33675C22.2398 4.32431 22.63 4.29736 22.9834 4.27684C23.6174 4.24003 24.5833 4.11617 25.124 4.00238C25.2767 3.97024 25.4286 3.95949 25.4617 3.97849C25.4948 3.99749 25.9424 3.95382 26.4564 3.88146C27.2168 3.77439 27.4182 3.7635 27.5379 3.82301C27.6582 3.88284 27.8122 3.8728 28.3856 3.76778C29.3402 3.59295 30.5857 3.36567 31.2064 3.25306C31.4891 3.20178 31.8997 3.12171 32.119 3.07514C32.3382 3.02856 32.6129 2.99059 32.7293 2.99075C32.8457 2.99075 33.071 2.95235 33.23 2.90506C33.498 2.82536 34.0466 2.73688 35.5106 2.53727C36.2627 2.43472 36.4142 2.41105 37.1809 2.27636C37.5343 2.21428 38.1124 2.11915 38.4658 2.06495C38.8191 2.01075 39.1949 1.95308 39.3009 1.93679C40.051 1.82158 40.1939 1.82372 40.3431 1.95243C40.4235 2.02187 40.4894 2.10919 40.4894 2.14648C40.4894 2.18376 40.5111 2.21108 40.5376 2.20719C40.5641 2.20334 40.6518 2.20334 40.7326 2.20719C40.8553 2.2131 40.8689 2.23253 40.8151 2.32582C40.7365 2.4624 40.7994 2.53607 40.9171 2.44526C41.0496 2.34309 41.0194 2.43499 40.867 2.59789C40.7871 2.68333 40.6265 2.75994 40.4788 2.78314C40.2631 2.81702 40.2384 2.83569 40.3075 2.91304C40.4112 3.02914 40.3236 3.03634 44.4403 2.5734C44.723 2.54161 45.2289 2.50272 45.5645 2.48697C45.9002 2.47122 46.5073 2.43005 46.9136 2.39549C47.32 2.36092 47.8548 2.322 48.1021 2.30899C48.3494 2.29598 48.6661 2.2575 48.8059 2.22348C48.9456 2.18946 49.4999 2.15997 50.0376 2.15795C50.5754 2.15594 51.0537 2.14231 51.1006 2.12767C51.2162 2.09156 52.7216 2.01826 53.0798 2.03131C53.2382 2.03709 53.412 2.07898 53.466 2.12442C53.5871 2.22626 53.8954 2.23646 55.3294 2.18612C55.9885 2.16297 56.5938 2.11034 56.7926 2.0589C57.052 1.99177 57.4822 1.97339 58.6235 1.98069C59.4441 1.98597 60.8092 1.96995 61.6572 1.94518C63.3757 1.89497 63.2838 1.8944 65.0621 1.96614C66.2134 2.01259 66.8776 2.01452 67.8887 1.97435C68.0654 1.96733 68.1593 1.9493 68.0975 1.93428C68.0357 1.91927 67.9851 1.87889 67.9851 1.84456C67.9851 1.80339 68.1654 1.79399 68.5151 1.81693C68.8066 1.83606 69.6811 1.87894 70.4584 1.91222C71.2358 1.94551 72.2331 2.0003 72.6748 2.03398C74.4492 2.16933 75.1259 2.21703 76.0475 2.2717C78.3523 2.40846 79.5673 2.46295 80.8335 2.48636C81.4165 2.49715 82.1393 2.52427 82.4396 2.54664C82.7399 2.56902 83.188 2.58491 83.4354 2.58196C83.6827 2.57907 84.1741 2.60303 84.5275 2.63533C84.8808 2.66763 86.0251 2.70589 87.0704 2.72035C88.1157 2.73482 89.0986 2.77284 89.2546 2.80485C89.4107 2.83685 89.7655 2.87759 90.0431 2.89538C90.3207 2.91316 90.6387 2.94154 90.7498 2.95843C91.1296 3.0162 91.7226 3.05547 92.5899 3.0803C93.3536 3.10215 94.0956 3.15462 95.1917 3.26426C95.3684 3.28193 95.6141 3.30388 95.7378 3.31304C95.8614 3.32221 96.1794 3.34695 96.4444 3.36803C96.7094 3.38911 97.1575 3.42279 97.4401 3.44288C97.7227 3.46297 97.9684 3.48768 97.9862 3.4978C98.0039 3.50792 98.1828 3.53242 98.3837 3.55228C98.5846 3.57213 98.7914 3.60348 98.8432 3.62194C98.8949 3.6404 99.193 3.6635 99.5057 3.67329C100.364 3.70015 100.363 3.69999 100.363 3.79649C100.363 3.84575 100.394 3.88605 100.431 3.88605C100.469 3.88605 100.478 3.85462 100.453 3.8162C100.421 3.76857 100.442 3.75907 100.519 3.78635C100.58 3.80835 100.694 3.82635 100.772 3.82635C100.868 3.82635 100.917 3.86516 100.924 3.94576C100.935 4.08849 100.9 4.09534 100.772 3.97561C100.637 3.85064 100.487 3.86001 100.532 3.99054C100.554 4.05483 100.547 4.06936 100.514 4.0283C100.477 3.98283 100.296 3.97429 99.9456 4.0015C99.3427 4.04834 98.8876 4.03545 98.0505 3.94782C97.7148 3.91269 97.2812 3.8695 97.0868 3.85184C96.8925 3.83418 96.6998 3.80949 96.6585 3.79695C96.6173 3.78443 96.5667 3.81493 96.5462 3.86472C96.5185 3.93179 96.4575 3.9448 96.311 3.91489C96.0808 3.86791 95.9329 3.85005 95.3202 3.79524C95.0728 3.77311 94.8532 3.74513 94.8321 3.73305C94.787 3.70732 93.9278 3.70308 92.7505 3.72281C92.0035 3.73531 91.4769 3.70113 91.0839 3.61466C90.8625 3.56593 89.3135 3.54485 89.3135 3.59057C89.3135 3.61408 89.5087 3.65273 89.7472 3.67645C89.9857 3.70018 90.2386 3.73019 90.3093 3.74314C90.805 3.83401 92.1326 3.93585 93.2002 3.96492C93.4475 3.97166 93.6805 3.99535 93.7178 4.01758C93.7799 4.05456 95.7471 4.19712 95.8527 4.17231C95.8778 4.16639 96.1152 4.18036 96.3802 4.20333C96.7899 4.23885 97.8361 4.31031 98.0987 4.32072C98.1936 4.32448 98.2048 4.40155 98.1177 4.45158C98.0551 4.48749 97.5709 4.49578 97.1326 4.46845C96.9988 4.4601 96.8659 4.4179 96.8371 4.37468C96.7983 4.31621 96.6879 4.30645 96.4059 4.33655C96.1974 4.3588 96.0075 4.38769 95.9838 4.40076C95.9602 4.41383 95.897 4.38376 95.8434 4.33395C95.7898 4.28414 95.7307 4.26639 95.712 4.29451C95.6757 4.34908 94.379 4.32583 94.0032 4.26389C93.8795 4.2435 93.6616 4.22128 93.5188 4.21451C93.3761 4.20774 93.1954 4.17042 93.1173 4.13158C93.0038 4.07513 92.9753 4.07696 92.9753 4.1407C92.9753 4.18762 92.8895 4.22686 92.7666 4.23608C92.2586 4.27418 91.5476 4.27056 90.9838 4.22703C90.5784 4.19572 90.4052 4.19963 90.468 4.23872C90.7213 4.3963 90.2462 4.47402 89.5063 4.39604C88.8503 4.32691 88.7331 4.32327 88.4496 4.36326C88.3033 4.38389 88.0982 4.37948 87.9937 4.35347C87.7186 4.28496 86.2886 4.16363 85.6517 4.15477C85.3514 4.1506 84.9177 4.1288 84.6881 4.10635C84.4584 4.08391 83.9959 4.05174 83.6602 4.03489C83.3245 4.01803 82.5295 3.96474 81.8935 3.91646C81.2575 3.86818 80.3116 3.81062 79.7914 3.78855C78.9436 3.7526 78.8413 3.75875 78.8045 3.84787C78.7695 3.93263 78.6578 3.94692 78.0479 3.94476C77.6543 3.94339 77.2023 3.96401 77.0433 3.99065L76.7542 4.03909L77.236 4.10566C77.501 4.14228 77.819 4.1715 77.9426 4.1706C78.0663 4.16963 78.5722 4.21057 79.0669 4.26142C79.5616 4.31227 80.5011 4.38387 81.1548 4.42054C81.8084 4.4572 82.4075 4.50005 82.4861 4.51577C82.5647 4.53149 83.2152 4.57051 83.9316 4.60247C85.2192 4.65993 86.1213 4.70682 86.8081 4.75198C87.0024 4.76476 87.6691 4.80242 88.2895 4.83569C88.91 4.86894 89.4593 4.90812 89.5101 4.92274C89.561 4.93736 89.6604 4.96965 89.7311 4.99449C89.8018 5.01932 89.9707 5.04709 90.1066 5.05622C90.2424 5.06534 90.3871 5.1154 90.428 5.16746C90.4872 5.24264 90.6545 5.26531 91.241 5.27757C91.6472 5.28606 92.0085 5.30953 92.0438 5.32971C92.0792 5.3499 92.3249 5.38219 92.5899 5.40146C93.8567 5.49358 95.1231 5.5684 95.7056 5.58555C96.059 5.59595 96.8106 5.65138 97.3759 5.70872C97.9413 5.76607 98.664 5.8219 98.982 5.8328C101.183 5.90824 102.941 6.00325 103.864 6.09668C104.182 6.12885 104.74 6.17245 105.103 6.19357C105.466 6.21469 105.779 6.25494 105.797 6.28301C105.816 6.31108 105.736 6.33623 105.619 6.3389C105.502 6.34159 105.325 6.34925 105.225 6.35599C105.125 6.36271 105.031 6.34933 105.016 6.32622C105 6.30312 104.881 6.31164 104.75 6.34514C104.618 6.37914 104.327 6.38863 104.092 6.36664C103.861 6.34495 102.631 6.3167 101.359 6.30384C100.087 6.29099 98.5692 6.26312 97.9862 6.24192C96.9471 6.20413 96.6526 6.22724 97.3343 6.2931C97.5234 6.31137 97.6921 6.33931 97.7092 6.3552C97.755 6.39778 97.5201 6.50314 97.3252 6.52739C97.0982 6.55565 97.0265 6.63128 97.2207 6.63776C97.3061 6.64062 97.7517 6.66798 98.2111 6.69859C98.6704 6.7292 99.5738 6.77011 100.219 6.78952C101.279 6.82141 101.391 6.83482 101.391 6.92944C101.391 7.06076 101.65 7.09182 103.208 7.14765C103.837 7.17017 104.366 7.21126 104.385 7.23897C104.403 7.26668 104.545 7.28936 104.7 7.28936C105.227 7.28936 105.079 7.45422 104.431 7.58854C104.248 7.62645 104.002 7.65253 103.885 7.64648C103.103 7.60619 103.308 7.72374 104.186 7.81866C104.539 7.85687 105.03 7.90115 105.278 7.91705C105.525 7.93296 105.973 7.97275 106.273 8.00548C106.574 8.03822 107.181 8.08272 107.623 8.10437C108.166 8.13103 108.446 8.16899 108.49 8.22198C108.525 8.26533 108.755 8.31755 109.004 8.33909C109.251 8.36048 109.482 8.41077 109.518 8.45087C109.553 8.49097 109.793 8.5419 110.051 8.56405C110.309 8.58621 110.585 8.64379 110.664 8.69202C110.755 8.74729 111.033 8.78943 111.416 8.80599C112.241 8.84169 112.888 8.90897 112.924 8.96288C112.961 9.01953 112.399 9.10045 112.312 9.05081C112.277 9.03045 112.248 9.03927 112.248 9.07039C112.248 9.10151 112.349 9.14462 112.473 9.16618C112.717 9.20875 112.763 9.28302 112.585 9.34711C112.375 9.42275 112.669 9.54254 113.33 9.65062C113.884 9.74139 114.235 9.85358 113.979 9.85856C113.739 9.86325 114.11 9.96849 114.496 10.0052C114.725 10.027 114.946 10.0707 114.987 10.1024C115.028 10.1341 115.245 10.1874 115.468 10.2208C116.089 10.3137 116.082 10.3884 115.449 10.4347C115.212 10.452 114.996 10.5032 114.931 10.5573C114.84 10.6333 114.728 10.6424 114.321 10.607C113.492 10.5351 113.328 10.5491 113.204 10.7023C113.143 10.7772 113.106 10.8574 113.121 10.8803C113.136 10.9033 113.344 10.9409 113.582 10.9639C113.82 10.9869 114.044 11.0268 114.079 11.0525C114.114 11.0783 114.28 11.1184 114.448 11.1416C114.909 11.2054 114.814 11.2897 114.282 11.2897C114.023 11.2897 113.789 11.3099 113.763 11.3345C113.736 11.3591 113.466 11.3793 113.164 11.3793C112.781 11.3793 112.605 11.402 112.586 11.4539C112.567 11.5051 112.636 11.5286 112.805 11.5289C112.94 11.529 113.152 11.5539 113.276 11.584C113.4 11.6141 113.745 11.6557 114.045 11.6765C114.344 11.6973 114.621 11.7394 114.661 11.7702C114.701 11.8009 114.75 11.8104 114.771 11.7913C114.791 11.7721 114.875 11.7788 114.957 11.8061C115.073 11.8444 115.004 11.8643 114.657 11.8937C114.247 11.9283 113.78 12.0155 113.533 12.1033C113.376 12.1591 113.62 12.2203 114.352 12.309C114.714 12.3529 115.01 12.4048 115.01 12.4242C115.01 12.4437 115.198 12.4485 115.428 12.4349C115.764 12.4151 115.846 12.4274 115.846 12.4975C115.846 12.6057 115.642 12.7827 115.519 12.7815C115.444 12.7807 115.445 12.7706 115.524 12.7227C115.606 12.6734 115.604 12.6647 115.506 12.6639C115.443 12.6633 115.375 12.7047 115.354 12.7556C115.321 12.8346 115.205 12.8437 114.569 12.8171C113.771 12.7837 113.575 12.8232 113.722 12.9877C113.968 13.2632 114.971 13.5586 115.661 13.5586C116.078 13.5586 116.295 13.631 116.295 13.7696C116.295 13.8391 116.192 13.8568 115.797 13.8557C115.524 13.8549 115.184 13.826 115.043 13.7914C114.901 13.7568 114.235 13.7163 113.563 13.7014C112.373 13.6751 112.34 13.6777 112.33 13.7944C112.321 13.9092 112.399 13.9919 112.537 14.0127C112.572 14.018 112.85 14.0658 113.153 14.1189C114.146 14.2928 115.028 14.3988 115.93 14.4526C116.766 14.5024 117.051 14.5708 116.965 14.7007C116.945 14.7304 116.901 14.7388 116.867 14.7194C116.834 14.7 116.814 14.7197 116.824 14.7632C116.833 14.8069 116.791 14.8386 116.73 14.8341C116.668 14.8296 116.632 14.8468 116.649 14.8723C116.666 14.8978 116.581 14.9358 116.461 14.9568C116.202 15.002 116.141 15.1096 116.274 15.2858C116.344 15.3797 116.352 15.4356 116.301 15.4922C116.219 15.5849 116.273 15.6483 116.434 15.6483C116.499 15.6483 116.552 15.6595 116.552 15.6733C116.552 15.687 116.571 15.7447 116.595 15.8015C116.634 15.8964 116.591 15.9016 116.065 15.8652C115.75 15.8434 115.384 15.8097 115.251 15.7901C115.06 15.7619 115.01 15.7737 115.01 15.8478C115.01 15.899 114.964 15.9651 114.907 15.9948C114.76 16.0713 114.848 16.4153 115.032 16.4844C115.164 16.5339 115.165 16.5367 115.043 16.5443C114.914 16.5523 114.914 16.5523 115.043 16.6036C115.168 16.6537 114.993 16.6751 114.336 16.69C114.062 16.6962 113.854 16.7766 113.854 16.8763C113.854 16.9296 113.787 16.9622 113.677 16.9627C113.58 16.9632 113.435 16.9799 113.355 16.9999C113.218 17.034 113.216 17.0412 113.323 17.1166C113.385 17.1607 113.516 17.1977 113.612 17.1988C113.709 17.1999 113.979 17.2947 114.212 17.4097C114.447 17.5256 114.729 17.6186 114.846 17.6186C115.235 17.6186 115.842 17.6947 115.812 17.7396C115.796 17.7642 115.832 17.7806 115.892 17.7761C115.952 17.7716 116.012 17.8142 116.024 17.8708C116.053 18.0022 115.674 18.2287 115.478 18.1966C115.4 18.1838 115.326 18.2027 115.313 18.2385C115.282 18.323 114.533 18.3468 114.233 18.2729C114.105 18.2415 113.448 18.2085 112.771 18.1996C111.628 18.1846 111.29 18.215 111.718 18.2948C111.815 18.3129 112.025 18.3551 112.184 18.3885C112.343 18.422 112.596 18.4505 112.746 18.4519C112.896 18.4534 113.019 18.4814 113.019 18.5142C113.019 18.5471 113.064 18.5739 113.119 18.5739C113.175 18.5739 113.279 18.6035 113.352 18.6395C113.482 18.7044 113.482 18.7059 113.332 18.7756C113.068 18.8978 113.15 19.013 113.593 19.1438C113.82 19.211 114.019 19.305 114.036 19.3528C114.052 19.4006 114.092 19.4553 114.123 19.4743C114.221 19.5342 114.103 19.7185 113.992 19.6788C113.936 19.6588 113.908 19.6588 113.929 19.679C113.951 19.6992 113.896 19.7834 113.807 19.8661C113.69 19.975 113.569 20.0194 113.37 20.0265C113.219 20.032 113.107 20.054 113.121 20.0755C113.135 20.0969 112.87 20.1013 112.532 20.0853C112.041 20.0619 111.896 20.0741 111.81 20.1465C111.69 20.247 111.059 20.2884 110.73 20.2174C110.604 20.1903 110.513 20.1987 110.485 20.2397C110.461 20.2759 110.373 20.3055 110.29 20.3055C110.097 20.3055 109.935 20.3627 109.935 20.4313C109.935 20.4606 109.977 20.4846 110.028 20.4846C110.08 20.4846 110.146 20.5253 110.176 20.5751C110.21 20.6313 110.461 20.7073 110.838 20.7754C111.58 20.9097 112.126 21.1148 112.075 21.24C112.055 21.288 111.998 21.3127 111.947 21.2948C111.897 21.2768 111.872 21.2864 111.892 21.3161C111.911 21.3458 111.852 21.4538 111.759 21.5561C111.635 21.693 111.557 21.7321 111.462 21.704C111.39 21.6829 111.349 21.6902 111.369 21.7203C111.389 21.7502 111.304 21.7773 111.181 21.7806C111.058 21.7838 110.755 21.8327 110.507 21.8892L110.056 21.9919L110.2 22.1338C110.279 22.2119 110.37 22.2758 110.402 22.2758C110.435 22.2758 110.561 22.3195 110.682 22.373C110.894 22.4663 110.899 22.476 110.805 22.6087C110.744 22.696 110.731 22.7609 110.772 22.7843C110.808 22.8047 110.818 22.8493 110.796 22.8834C110.769 22.9233 110.734 22.9166 110.698 22.8643C110.662 22.8117 110.625 22.8047 110.594 22.8442C110.567 22.8777 110.459 22.944 110.353 22.9915L110.16 23.0779L110.363 23.0982C110.584 23.1202 110.701 23.2734 110.542 23.3303C110.488 23.3495 110.428 23.3504 110.408 23.3323C110.389 23.3141 110.276 23.3495 110.159 23.4109C110.041 23.4723 109.835 23.5417 109.701 23.5651C109.567 23.5885 109.418 23.6438 109.37 23.6881C109.257 23.7928 109.213 23.7905 108.616 23.6486C108.081 23.5213 107.93 23.5331 107.71 23.7199C107.586 23.8252 107.536 23.8304 107.2 23.7727C106.76 23.6971 105.93 23.6874 105.978 23.7584C105.996 23.7857 106.222 23.8415 106.479 23.8824C107.136 23.9864 107.21 24.0088 107.102 24.0707C106.915 24.1781 107.752 24.4316 108.57 24.5153C108.791 24.5379 108.986 24.5775 109.003 24.6032C109.02 24.629 108.973 24.7217 108.899 24.8092C108.775 24.9563 108.773 24.9765 108.868 25.0747C108.925 25.1331 108.972 25.1957 108.972 25.2136C108.972 25.2874 107.884 25.1812 107.526 25.0725C107.012 24.9162 105.971 24.8022 105.874 24.8916C105.824 24.9389 105.823 24.9795 105.873 25.0352C105.94 25.1105 106.043 25.1426 106.9 25.356C107.167 25.4225 107.301 25.4861 107.301 25.5459C107.301 25.6215 107.225 25.6295 106.825 25.5957C106.519 25.57 106.333 25.5777 106.307 25.6173C106.284 25.6513 106.301 25.6791 106.345 25.6791C106.388 25.6791 106.408 25.693 106.39 25.71C106.347 25.75 105.437 25.5726 105.347 25.5065C105.276 25.4545 104.337 25.3202 104.137 25.3334C104.076 25.3374 104.025 25.3744 104.025 25.4155C104.025 25.4566 104.01 25.5264 103.992 25.5707C103.96 25.6471 104.745 25.8017 106.097 25.9854C106.3 26.013 106.571 26.0763 106.699 26.126C106.827 26.1758 107.022 26.2166 107.132 26.2168C107.423 26.2173 107.841 26.3355 107.774 26.3983C107.743 26.4273 107.351 26.4587 106.904 26.4681C106.457 26.4775 106.097 26.4897 106.103 26.4953C106.108 26.5008 106.256 26.5575 106.431 26.6213C106.735 26.7323 106.742 26.7402 106.603 26.8093C106.494 26.8635 106.378 26.8655 106.138 26.8176C105.747 26.7397 105.695 26.7387 105.695 26.8088C105.695 26.839 105.782 26.8814 105.887 26.9029C106.238 26.9746 106.162 27.0523 105.741 27.0523C105.496 27.0523 105.248 27.0902 105.127 27.146C105.006 27.2026 104.869 27.2231 104.783 27.1978C104.6 27.1438 101.584 27.1232 101.619 27.1762C101.694 27.2886 100.851 27.288 100.132 27.1751C98.6754 26.9466 97.4363 26.8168 96.6371 26.8088C96.1954 26.8044 95.5305 26.7639 95.1595 26.7188C94.7885 26.6737 94.1276 26.609 93.6907 26.5752C93.2539 26.5413 92.8781 26.5033 92.8556 26.4907C92.8331 26.478 92.5978 26.4506 92.3328 26.4296C92.0678 26.4086 91.7498 26.3801 91.6262 26.3662C91.3687 26.3373 90.1966 26.2766 89.3456 26.248C88.7299 26.2274 87.7945 26.1725 87.1613 26.1198C86.9493 26.1022 86.1254 26.0763 85.3304 26.0623C84.5354 26.0483 83.5959 26.0148 83.2426 25.9879C82.8892 25.961 81.912 25.9416 81.071 25.9449C79.7991 25.9498 79.5316 25.9656 79.481 26.0388C79.4294 26.1135 79.4114 26.1142 79.3624 26.0435C79.3239 25.988 79.2413 25.972 79.1148 25.9955C79.0101 26.0149 78.8934 26.0015 78.8546 25.9654C78.8159 25.9295 78.6889 25.8944 78.5722 25.8875C78.4556 25.8805 78.3023 25.859 78.2317 25.8395C77.8467 25.7336 77.4455 25.7028 77.2839 25.7667C77.1542 25.8181 76.8304 25.7574 76.8752 25.6901C76.8916 25.6654 76.5821 25.6379 76.1872 25.629C75.1239 25.6053 75.0136 25.5944 74.8933 25.5016C74.7954 25.4261 74.7857 25.4296 74.805 25.5329C74.8198 25.6117 74.7958 25.6423 74.7305 25.6279C74.6775 25.6163 74.569 25.6062 74.4895 25.6056C74.41 25.6049 74.345 25.5837 74.345 25.5585C74.345 25.5333 74.2984 25.496 74.2415 25.4757C74.1663 25.4489 74.1485 25.4644 74.1765 25.5322C74.2031 25.5965 74.1903 25.6109 74.1355 25.5785C74.0917 25.5527 73.7813 25.5231 73.4456 25.5128C72.7397 25.4911 72.8446 25.4914 69.5268 25.5022C68.1312 25.5068 66.8105 25.4912 66.5921 25.4674C66.3736 25.4437 66.1463 25.4417 66.0868 25.4628C65.9775 25.5018 63.8789 25.5788 63.2341 25.5675C62.7299 25.5586 62.158 25.8341 62.4761 25.9327C62.5235 25.9474 62.4907 25.9896 62.3958 26.0362C62.3075 26.0794 62.2193 26.1375 62.1997 26.1652C62.1288 26.2654 61.5833 26.3213 61.4284 26.2442C61.3307 26.1957 61.0721 26.1783 60.6653 26.1928C60.3269 26.2049 59.2152 26.229 58.1949 26.2463C57.1746 26.2636 56.2696 26.2942 56.1838 26.3142C56.098 26.3342 55.7333 26.3547 55.3734 26.3597C55.0135 26.3648 54.6612 26.3991 54.5905 26.436C54.4641 26.502 53.8683 26.6104 53.7685 26.5856C53.6456 26.5549 53.4174 26.5626 53.2093 26.6044C53.0856 26.6293 52.9266 26.6452 52.856 26.6397C52.7853 26.6342 52.6697 26.6249 52.599 26.6191C52.5283 26.6133 52.1959 26.6401 51.8602 26.6787C51.5245 26.7173 51.1249 26.7483 50.9722 26.7476C50.8194 26.7469 50.6604 26.7718 50.6188 26.8028C50.5773 26.8339 50.4493 26.878 50.3344 26.9008C50.1636 26.9348 50.1257 26.924 50.1257 26.8413C50.1257 26.7518 50.0725 26.7451 49.6599 26.7825C49.4037 26.8057 48.7316 26.8309 48.1663 26.8385C47.6009 26.8461 46.9827 26.8838 46.7924 26.9224C46.602 26.961 46.4323 26.9925 46.4151 26.9925C46.3979 26.9925 46.4199 27.0328 46.4639 27.0821C46.5078 27.1314 46.6415 27.1717 46.7608 27.1717C46.8801 27.1717 46.9778 27.1829 46.9778 27.1966C46.9778 27.2104 46.9953 27.2641 47.0168 27.316C47.0703 27.4456 46.8894 27.4392 46.7466 27.3065C46.6658 27.2314 46.6274 27.2232 46.6081 27.277C46.5934 27.318 46.5549 27.3363 46.5226 27.3178C46.4903 27.2992 46.4639 27.3058 46.4639 27.3323C46.4639 27.3589 46.3988 27.3839 46.3193 27.388C46.2398 27.392 45.799 27.4257 45.3396 27.4629C44.8803 27.5 43.9552 27.5412 43.2839 27.5543C42.6125 27.5675 41.991 27.593 41.9027 27.611C41.6034 27.672 39.9578 27.8135 39.076 27.854C37.442 27.9291 36.2033 28.1463 35.9478 28.4025C35.8679 28.4826 35.7271 28.5473 35.626 28.5504C34.7947 28.5755 33.6403 28.6559 33.1336 28.7241C32.9216 28.7526 32.5497 28.7924 32.3071 28.8125C32.0646 28.8327 31.721 28.8747 31.5435 28.906C31.3661 28.9373 31.2104 28.9629 31.1975 28.9629C31.1847 28.9629 31.1742 28.8941 31.1742 28.8101L31.1742 28.8102ZM31.1742 28.2669C31.1742 28.2016 31.1458 28.1967 31.0481 28.2453C30.9728 28.2828 30.937 28.3443 30.9593 28.3982C30.988 28.4677 31.0169 28.4726 31.0854 28.4198C31.1342 28.3821 31.1742 28.3133 31.1742 28.2669ZM41.999 27.3789C42.2504 27.2951 42.244 27.2939 41.7099 27.323C40.4869 27.3896 40.1039 27.4234 40.1039 27.4646C40.1039 27.5425 41.7287 27.469 41.999 27.3789ZM12.1585 26.6579C12.1585 26.645 12.1151 26.6344 12.0621 26.6344C12.0091 26.6344 11.9658 26.6604 11.9658 26.6922C11.9658 26.724 12.0091 26.7346 12.0621 26.7157C12.1151 26.6968 12.1585 26.6708 12.1585 26.6579ZM16.8161 26.4553C16.8385 26.4216 16.7859 26.3956 16.6952 26.3956C16.6068 26.3956 16.5167 26.4224 16.4949 26.4553C16.4724 26.489 16.525 26.515 16.6158 26.515C16.7041 26.515 16.7942 26.4881 16.8161 26.4553ZM13.7646 26.1498C13.7646 26.0882 13.6876 26.0824 13.545 26.1333C13.3838 26.1908 13.427 26.2625 13.604 26.2311C13.6923 26.2154 13.7646 26.1788 13.7646 26.1498ZM50.1151 26.1401C50.3344 26.0833 50.3645 26.0615 50.2564 26.0377C50.085 26 48.0411 26.0798 46.9457 26.167C46.648 26.1907 48.9468 26.2486 49.419 26.2292C49.6487 26.2199 49.9619 26.1797 50.1151 26.1401ZM52.342 25.9563C52.4127 25.9408 52.2826 25.9303 52.053 25.9329C51.5048 25.9393 51.2878 25.9942 51.6354 26.0385C51.7767 26.0565 51.9646 26.0517 52.053 26.0279C52.1413 26.0041 52.2714 25.9719 52.342 25.9563V25.9563ZM11.3447 25.9739C11.4769 25.9703 11.4761 25.9671 11.3275 25.912C11.1524 25.847 11.0021 25.8794 11.0021 25.9822C11.0021 26.0196 11.0478 26.0338 11.1038 26.0139C11.1596 25.9939 11.2681 25.9759 11.3447 25.9739ZM53.3071 25.9066C53.3243 25.8907 53.21 25.8731 53.053 25.8676C52.8961 25.8621 52.7477 25.8876 52.7233 25.9243C52.6921 25.9712 52.7676 25.9828 52.9774 25.9634C53.1416 25.9481 53.2899 25.9226 53.3071 25.9066ZM103.543 25.2015C103.568 25.1645 103.465 25.1444 103.274 25.1488C103 25.1551 102.987 25.161 103.158 25.2015C103.439 25.2679 103.499 25.2679 103.543 25.2015ZM4.52572 24.3248C4.47934 24.3075 4.42394 24.3096 4.40259 24.3295C4.38124 24.3493 4.41918 24.3634 4.48691 24.3608C4.56175 24.358 4.57697 24.3438 4.52572 24.3248V24.3248ZM5.28458 24.2461C5.41369 24.2077 5.41999 24.198 5.3167 24.1966C5.24603 24.1956 5.1304 24.2179 5.05973 24.2461C4.89603 24.3115 5.06492 24.3115 5.28458 24.2461ZM6.1466 24.2696C6.20249 24.2497 6.24822 24.1851 6.24822 24.126C6.24822 24.0346 6.20781 24.0234 5.97519 24.0504C5.67999 24.0847 5.48736 24.1864 5.71764 24.1864C5.79328 24.1864 5.87304 24.2133 5.89488 24.2461C5.94058 24.3149 6.0033 24.3207 6.1466 24.2696ZM110.513 23.2311C110.513 23.1983 110.463 23.1718 110.401 23.1723C110.305 23.1731 110.303 23.1817 110.385 23.2311C110.506 23.3039 110.513 23.3039 110.513 23.2311ZM7.73783 20.8021C7.69146 20.7848 7.63605 20.7869 7.6147 20.8068C7.59335 20.8266 7.6313 20.8407 7.69902 20.8381C7.77386 20.8353 7.78908 20.8211 7.73783 20.8021V20.8021ZM7.21185 20.6279C7.21185 20.5306 7.03318 20.5196 6.79846 20.6026C6.54293 20.6928 6.60357 20.7564 6.92276 20.7328C7.1167 20.7185 7.21185 20.6839 7.21185 20.6279ZM8.40512 20.6709C8.34097 20.5745 8.11124 20.5499 8.11124 20.6395C8.11124 20.6898 8.1772 20.7234 8.27564 20.7234C8.36606 20.7234 8.42432 20.6998 8.40512 20.6709ZM7.91851 20.604C7.99019 20.561 7.95316 20.5459 7.77397 20.5452C7.64147 20.5447 7.53306 20.5712 7.53306 20.604C7.53306 20.6801 7.7919 20.6801 7.91851 20.604ZM115.01 13.6183C115.01 13.5855 114.981 13.5586 114.946 13.5586C114.911 13.5586 114.882 13.5855 114.882 13.6183C114.882 13.6512 114.911 13.678 114.946 13.678C114.981 13.678 115.01 13.6512 115.01 13.6183ZM115.476 12.5041C115.432 12.4875 115.36 12.4875 115.316 12.5041C115.271 12.5206 115.308 12.5342 115.396 12.5342C115.484 12.5342 115.52 12.5206 115.476 12.5041ZM114.513 11.785C114.433 11.7708 114.303 11.7708 114.223 11.785C114.144 11.7992 114.209 11.8109 114.368 11.8109C114.527 11.8109 114.592 11.7992 114.513 11.785ZM111.541 11.303C111.541 11.2774 111.303 11.2247 111.011 11.1857C110.72 11.1468 110.412 11.0963 110.327 11.0735C110.231 11.0478 110.187 11.0545 110.211 11.0912C110.233 11.1237 110.505 11.1845 110.816 11.2262C111.126 11.268 111.41 11.3107 111.445 11.3211C111.48 11.3315 111.516 11.3422 111.525 11.3448C111.534 11.3473 111.541 11.3286 111.541 11.303ZM17.8439 10.7524C17.9587 10.7066 17.9539 10.7006 17.7996 10.6969C17.7045 10.6946 17.6088 10.7196 17.587 10.7524C17.5396 10.8237 17.6655 10.8237 17.8439 10.7524ZM111.092 10.4026C111.092 10.3744 110.801 10.3207 110.447 10.2832C109.648 10.1988 109.505 10.1971 109.586 10.273C109.621 10.3048 109.966 10.3548 110.354 10.384C110.742 10.4133 111.067 10.4409 111.076 10.4455C111.084 10.4501 111.092 10.4308 111.092 10.4026V10.4026ZM14.2398 9.68763C14.258 9.66027 14.2308 9.63788 14.1793 9.63788C14.1279 9.63788 14.0858 9.66027 14.0858 9.68763C14.0858 9.715 14.113 9.73739 14.1462 9.73739C14.1795 9.73739 14.2216 9.715 14.2398 9.68763ZM22.8348 9.57719C22.7884 9.55994 22.733 9.56206 22.7116 9.58189C22.6903 9.60174 22.7282 9.61585 22.796 9.61325C22.8708 9.61038 22.886 9.59624 22.8348 9.57718V9.57719ZM12.8652 9.49856C12.8652 9.46572 12.8146 9.43927 12.7527 9.43977C12.6567 9.44052 12.6543 9.44909 12.7367 9.49856C12.8579 9.57138 12.8652 9.57138 12.8652 9.49856ZM13.1221 9.40548C13.1221 9.391 13.0932 9.37915 13.0579 9.37915C13.0226 9.37915 12.9937 9.4076 12.9937 9.44238C12.9937 9.47716 13.0226 9.48901 13.0579 9.46871C13.0932 9.44841 13.1221 9.41996 13.1221 9.40548ZM16.7839 8.98976C16.8723 8.96681 17.1469 8.92561 17.3943 8.8982C17.6416 8.8708 17.9451 8.81997 18.0688 8.78526C18.1925 8.75055 18.2936 8.7244 18.2936 8.72714C18.2936 8.75003 18.7337 8.62227 18.9521 8.53596C19.2835 8.40501 19.3045 8.30443 19.0003 8.30443C18.8433 8.30443 18.7755 8.27742 18.7755 8.21487C18.7755 8.12305 19.063 8.08675 19.5403 8.11832C19.7482 8.13207 20.3414 8.02916 20.4772 7.95579C20.5787 7.90098 20.2545 7.83919 19.8316 7.83273C19.5565 7.8285 19.322 7.87056 19.0324 7.97604C18.807 8.05814 18.563 8.12572 18.4902 8.12622C18.3848 8.12698 18.3769 8.1383 18.4512 8.18198C18.5025 8.21216 18.5675 8.22359 18.5957 8.2074C18.6239 8.19121 18.647 8.20339 18.647 8.23442C18.647 8.28788 18.5064 8.32562 18.0157 8.40389C17.8981 8.42264 17.7863 8.47578 17.7673 8.52199C17.7389 8.59069 17.7142 8.59212 17.6317 8.52986C17.5472 8.46607 17.5369 8.46898 17.5686 8.54777C17.5963 8.6166 17.5693 8.63917 17.4682 8.63188C17.3922 8.6264 17.2341 8.64629 17.1168 8.67607C16.969 8.71364 16.8755 8.70849 16.8117 8.65929C16.76 8.61939 16.7197 8.61412 16.7197 8.64725C16.7197 8.71311 16.2302 8.9015 16.0591 8.9015C15.9984 8.9015 15.9488 8.93823 15.9488 8.98313C15.9488 9.0439 16.0349 9.0605 16.2861 9.04812C16.4716 9.03897 16.6956 9.01272 16.7839 8.98976V8.98976ZM19.4267 6.82442C19.3803 6.81007 19.3119 6.8267 19.2745 6.86141C19.2268 6.90571 19.2519 6.91348 19.3588 6.88751C19.4457 6.8664 19.4748 6.83933 19.4267 6.82442ZM97.0224 6.58786C97.0224 6.56323 96.9346 6.53737 96.8274 6.53039C96.7158 6.52312 96.6488 6.54227 96.6707 6.57517C96.7155 6.64252 97.0226 6.6536 97.0224 6.58786ZM19.6106 6.21172L19.7712 6.20712L19.6214 6.1513C19.4521 6.08823 19.1609 6.13682 19.1609 6.22812C19.1609 6.26141 19.2255 6.27223 19.3055 6.25232C19.385 6.23252 19.5223 6.21425 19.6106 6.21172ZM96.5086 6.22464C96.5086 6.19728 96.4652 6.17488 96.4123 6.17488C96.3593 6.17488 96.3159 6.19728 96.3159 6.22464C96.3159 6.252 96.3593 6.27439 96.4123 6.27439C96.4652 6.27439 96.5086 6.252 96.5086 6.22464ZM96.7776 6.2336C96.7313 6.21636 96.6758 6.21848 96.6545 6.23831C96.6331 6.25816 96.6711 6.27227 96.7388 6.26967C96.8137 6.26682 96.8289 6.25266 96.7776 6.2336V6.2336ZM20.7148 6.11419C20.6684 6.09694 20.613 6.09907 20.5916 6.1189C20.5703 6.13874 20.6082 6.15285 20.676 6.15026C20.7508 6.1474 20.766 6.13325 20.7148 6.11419V6.11419ZM13.5076 6.03556C13.5076 6.00273 13.4787 5.97586 13.4433 5.97586C13.408 5.97586 13.3791 6.00273 13.3791 6.03556C13.3791 6.0684 13.408 6.09527 13.4433 6.09527C13.4787 6.09527 13.5076 6.0684 13.5076 6.03556ZM15.1779 5.87899C15.1779 5.8121 15.0572 5.87075 15.0227 5.95445C14.9889 6.03639 14.9983 6.04009 15.0801 5.97699C15.1339 5.93549 15.1779 5.89138 15.1779 5.87899ZM15.8203 5.8863C15.8203 5.83704 15.8089 5.79674 15.7951 5.79674C15.7812 5.79674 15.7532 5.83704 15.7328 5.8863C15.7125 5.93556 15.7239 5.97586 15.7581 5.97586C15.7923 5.97586 15.8203 5.93556 15.8203 5.8863ZM99.9255 3.84534C99.8791 3.82809 99.8237 3.83021 99.8024 3.85004C99.781 3.86988 99.819 3.884 99.8867 3.8814C99.9615 3.87854 99.9767 3.86439 99.9255 3.84533V3.84534ZM40.7757 2.63639C40.796 2.60582 40.7863 2.56568 40.7541 2.54718C40.7219 2.52868 40.679 2.55369 40.6587 2.60276C40.6188 2.69949 40.7153 2.72724 40.7757 2.63639ZM10.2827 28.2614C10.2458 28.2204 10.2407 28.186 10.2716 28.185C10.3024 28.184 10.2735 28.154 10.2075 28.1183C10.038 28.0268 10.1881 27.9483 10.5203 27.9548C10.6938 27.9582 10.7356 27.9725 10.6488 27.9987C10.5264 28.0357 10.4352 28.1877 10.5364 28.186C10.725 28.1828 10.8612 28.1047 10.8318 28.0167C10.8032 27.9308 10.8108 27.9315 10.8916 28.0226C11.0013 28.1464 11.4901 28.1691 11.5324 28.0524C11.5539 27.9932 11.58 27.9936 11.6593 28.0544C11.7844 28.1503 11.8582 28.3834 11.7519 28.3469C11.7106 28.3327 11.6861 28.2849 11.6975 28.2407C11.7121 28.1845 11.6826 28.1904 11.5994 28.2603C11.5045 28.3401 11.3667 28.3578 10.9152 28.3482C10.5563 28.3405 10.3254 28.3088 10.2827 28.2614L10.2827 28.2614ZM9.40085 28.1298C9.31527 28.0807 9.35643 27.948 9.45725 27.948C9.53053 27.948 9.59486 28.1166 9.53476 28.1511C9.50811 28.1664 9.44785 28.1568 9.40085 28.1298ZM10.7601 27.6494C10.689 27.5437 10.6964 27.529 10.8249 27.5209C10.9047 27.5159 11.0134 27.5074 11.0664 27.5021C11.2378 27.4847 11.27 27.5393 11.157 27.6553C11.0142 27.802 10.8611 27.7997 10.7601 27.6494ZM49.676 27.2051C49.676 27.1907 49.7049 27.1622 49.7402 27.1419C49.7756 27.1216 49.8045 27.1335 49.8045 27.1682C49.8045 27.203 49.7756 27.2315 49.7402 27.2315C49.7049 27.2315 49.676 27.2196 49.676 27.2051ZM50.4298 27.1644C50.4733 27.1236 50.5252 27.1052 50.545 27.1236C50.5647 27.142 50.5291 27.1754 50.4657 27.1978C50.3742 27.2302 50.3668 27.2233 50.4298 27.1644ZM15.9488 27C15.9488 26.9711 15.9934 26.9132 16.0479 26.8711C16.1249 26.8117 16.1641 26.8106 16.224 26.8663C16.2839 26.922 16.2797 26.9504 16.2052 26.9942C16.0841 27.0654 15.9488 27.0684 15.9488 27V27ZM88.4783 26.4553C88.4783 26.4224 88.52 26.3956 88.5709 26.3956C88.6218 26.3956 88.6813 26.4224 88.7032 26.4553C88.725 26.4881 88.6834 26.515 88.6106 26.515C88.5378 26.515 88.4783 26.4881 88.4783 26.4553ZM87.3862 26.3919C87.3862 26.3239 87.5588 26.317 87.6028 26.3832C87.6201 26.4092 87.5785 26.4344 87.5102 26.4392C87.442 26.444 87.3862 26.4227 87.3862 26.3919ZM23.6768 26.2955C23.619 26.1555 23.707 26.135 23.9291 26.2367C24.0449 26.2897 24.1108 26.3372 24.0754 26.3421C23.8047 26.38 23.7069 26.3685 23.6768 26.2955ZM79.2274 26.1567C79.2274 26.1239 79.2402 26.097 79.2558 26.097C79.2713 26.097 79.302 26.1239 79.3238 26.1567C79.3456 26.1896 79.3329 26.2165 79.2955 26.2165C79.2581 26.2165 79.2274 26.1896 79.2274 26.1567ZM78.3013 26.1051C78.2736 26.0634 78.2683 26.0133 78.2895 25.9936C78.347 25.9401 78.4097 26.0187 78.3786 26.1053C78.3569 26.166 78.3417 26.1659 78.3013 26.105V26.1051ZM78.5368 26.1172C78.4053 26.0679 78.4458 25.9862 78.585 26.02C78.6557 26.0372 78.7135 26.075 78.7135 26.104C78.7135 26.1609 78.6634 26.1647 78.5368 26.1172ZM109.336 25.8184C109.262 25.7497 109.289 25.6791 109.389 25.6791C109.442 25.6791 109.486 25.7194 109.486 25.7687C109.486 25.8619 109.41 25.8871 109.336 25.8184ZM29.6085 25.4527C29.5912 25.4266 29.6335 25.4014 29.7025 25.3966C29.7715 25.3917 29.8111 25.413 29.7906 25.4439C29.7451 25.5123 29.6512 25.5169 29.6085 25.4527ZM30.1876 25.3501C30.2078 25.3012 30.2718 25.2591 30.3299 25.2566C30.3879 25.254 30.5655 25.2399 30.7245 25.2251C30.933 25.2057 30.9867 25.215 30.9172 25.2586C30.8377 25.3085 30.8368 25.3192 30.9119 25.3199C30.9619 25.3205 30.9849 25.3376 30.9629 25.3581C30.9409 25.3785 30.7491 25.4051 30.5368 25.4172C30.2153 25.4354 30.157 25.4242 30.1876 25.3501ZM3.97036 25.2056C3.92285 25.1341 4.0437 25.0633 4.12927 25.1125C4.20111 25.1538 4.15395 25.2611 4.06398 25.2611C4.03281 25.2611 3.99069 25.2361 3.97036 25.2056ZM4.57792 23.6526C4.57792 23.6217 4.60649 23.58 4.64142 23.5599C4.67784 23.539 4.68861 23.563 4.66667 23.6161C4.62396 23.7195 4.57792 23.7385 4.57792 23.6526ZM5.04903 23.6218C5.04903 23.574 5.07359 23.549 5.10361 23.5663C5.13363 23.5835 5.14156 23.6226 5.12123 23.6532C5.06928 23.7313 5.04903 23.7225 5.04903 23.6218ZM117.002 15.8275C116.949 15.7956 116.934 15.7696 116.97 15.7696C117.005 15.7696 117.077 15.7956 117.13 15.8275C117.183 15.8593 117.198 15.8854 117.162 15.8854C117.127 15.8854 117.055 15.8593 117.002 15.8275ZM11.4518 11.3965C11.4518 11.3706 11.5097 11.3495 11.5803 11.3495C11.651 11.3495 11.7088 11.3747 11.7088 11.4055C11.7088 11.4363 11.651 11.4574 11.5803 11.4525C11.5097 11.4475 11.4518 11.4223 11.4518 11.3965ZM14.1421 10.5196L13.9914 10.4062L14.3759 10.3588C14.5873 10.3327 14.9121 10.3099 15.0975 10.308C15.283 10.3061 15.4347 10.2863 15.4348 10.264C15.4348 10.2175 15.8175 10.3101 15.8772 10.371C15.8989 10.3932 15.8275 10.3956 15.7185 10.3763C15.5965 10.3548 15.4483 10.3768 15.333 10.4334C15.23 10.484 14.994 10.528 14.8085 10.5312C14.623 10.5343 14.4712 10.5585 14.4712 10.585C14.4712 10.6706 14.2966 10.6359 14.1421 10.5196V10.5196ZM13.3323 10.5372C13.3536 10.5174 13.409 10.5152 13.4554 10.5325C13.5066 10.5516 13.4914 10.5657 13.4166 10.5686C13.3489 10.5712 13.3109 10.557 13.3323 10.5372V10.5372ZM12.1636 9.7125C12.1608 9.64956 12.176 9.6143 12.1973 9.63414C12.2187 9.65398 12.2209 9.70547 12.2024 9.74858C12.1819 9.7962 12.1667 9.78206 12.1636 9.7125H12.1636ZM13.9181 9.21067C13.936 9.18369 13.8915 9.11454 13.8192 9.057C13.6899 8.95405 13.6941 8.94957 14.0853 8.77766C14.5563 8.57061 14.5997 8.56595 14.5997 8.72236C14.5997 8.79594 14.5566 8.84213 14.4873 8.84269C14.3962 8.84345 14.3921 8.85374 14.4657 8.89707C14.5157 8.92648 14.6097 8.94105 14.6745 8.92945C14.7394 8.91784 14.7924 8.93572 14.7924 8.96919C14.7924 9.00266 14.6985 9.02526 14.5836 9.01942C14.4688 9.01358 14.317 9.01194 14.2464 9.01578C14.1393 9.02157 14.134 9.0324 14.2143 9.08062C14.2966 9.13008 14.2943 9.13863 14.1982 9.13941C14.1364 9.13995 14.0858 9.1672 14.0858 9.20003C14.0858 9.23287 14.0407 9.25974 13.9856 9.25974C13.9305 9.25974 13.9001 9.23767 13.9181 9.21068V9.21067ZM14.7395 8.72887C14.6749 8.69177 14.6774 8.66687 14.7516 8.60971C14.8555 8.52952 14.9383 8.59956 14.8668 8.70714C14.8413 8.74549 14.7851 8.75508 14.7395 8.72887ZM12.5118 6.21468C12.49 6.18184 12.5155 6.15497 12.5685 6.15497C12.6215 6.15497 12.6827 6.18184 12.7046 6.21468C12.7264 6.24752 12.7009 6.27438 12.6479 6.27438C12.5949 6.27438 12.5337 6.24752 12.5118 6.21468ZM13.8276 5.94736C13.9201 5.84376 13.9573 5.83298 13.9573 5.90975C13.9573 5.93908 13.9098 5.98 13.8518 6.00068C13.7637 6.03213 13.7597 6.02339 13.8276 5.94736ZM104.621 4.98383C104.697 4.91384 105.108 4.85899 105.191 4.90787C105.239 4.93599 105.249 4.96209 105.213 4.96585C104.868 5.00269 104.592 5.01106 104.621 4.98383ZM104.231 4.91017C104.178 4.87868 104.218 4.86133 104.344 4.86133C104.451 4.86133 104.539 4.88372 104.539 4.91108C104.539 4.97463 104.34 4.97404 104.231 4.91011V4.91017ZM102.58 4.83394C102.304 4.77672 101.637 4.73568 100.389 4.69932C99.9622 4.68686 99.5509 4.64593 99.4754 4.60836C99.3932 4.56748 99.1054 4.54668 98.7585 4.55655C98.4397 4.56564 98.1789 4.56695 98.1789 4.55946C98.1789 4.53868 98.5527 4.36372 98.5971 4.36372C98.6186 4.36372 98.6183 4.39059 98.5965 4.42343C98.5733 4.45826 98.6387 4.48314 98.7533 4.48314C98.8614 4.48314 98.9498 4.45627 98.9498 4.42343C98.9498 4.39059 98.9805 4.36372 99.0179 4.36372C99.0553 4.36372 99.0642 4.39731 99.0377 4.43836C99.002 4.49354 99.0136 4.49724 99.082 4.45253C99.133 4.41927 99.2325 4.39514 99.3032 4.39891C99.3738 4.40267 99.5851 4.40973 99.7727 4.4146C99.9603 4.41945 100.1 4.44358 100.084 4.46821C100.068 4.49284 100.232 4.50905 100.45 4.50425C100.667 4.49939 100.896 4.52055 100.957 4.55113C101.032 4.58826 101.07 4.58503 101.07 4.54143C101.07 4.5055 101.105 4.49617 101.147 4.52071C101.19 4.54524 101.472 4.57264 101.774 4.5816C102.076 4.59056 102.323 4.60107 102.323 4.60496C102.323 4.60887 102.467 4.62074 102.644 4.63139C102.82 4.64203 102.972 4.65669 102.981 4.66396C102.996 4.67638 103.062 4.69447 103.174 4.71663C103.225 4.72679 102.923 4.9002 102.869 4.89211C102.851 4.88947 102.721 4.86331 102.58 4.8339L102.58 4.83394ZM99.9777 4.53542C99.9777 4.50669 99.9216 4.48318 99.853 4.48318C99.7844 4.48318 99.7127 4.50669 99.6936 4.53542C99.6745 4.56416 99.7306 4.58766 99.8183 4.58766C99.9059 4.58766 99.9777 4.56416 99.9777 4.53542ZM103.414 4.36279C103.392 4.32942 103.347 4.31757 103.314 4.33646C103.281 4.35536 103.254 4.34394 103.254 4.31111C103.254 4.19551 103.358 4.19368 103.434 4.30794C103.477 4.37149 103.499 4.42349 103.483 4.42349C103.467 4.42349 103.436 4.39618 103.414 4.36281V4.36279ZM102.039 4.12992C101.971 4.06697 101.902 4.02794 101.886 4.04316C101.869 4.0584 101.715 4.07986 101.543 4.09087C101.245 4.10994 100.876 3.98694 100.969 3.89985C101.044 3.83014 101.488 3.84646 101.585 3.92248C101.684 4.00033 101.865 4.00291 101.946 3.92761C102.014 3.86425 102.342 3.87814 102.387 3.94632C102.449 4.03912 102.357 4.24432 102.254 4.24432C102.203 4.24432 102.107 4.19282 102.039 4.12988V4.12992ZM102.702 4.17542C102.674 4.13427 102.684 4.12263 102.726 4.14654C102.764 4.16857 102.814 4.15929 102.836 4.12591C102.896 4.03589 102.976 4.05241 102.976 4.15479C102.976 4.25997 102.768 4.27558 102.702 4.17542ZM27.594 3.73063C27.6154 3.71079 27.6708 3.70866 27.7172 3.72593C27.7684 3.74498 27.7532 3.75913 27.6784 3.762C27.6106 3.76458 27.5727 3.75048 27.594 3.73064V3.73063ZM40.5536 2.0352C40.5536 2.00236 40.5663 1.97549 40.5819 1.97549C40.5975 1.97549 40.6281 2.00236 40.65 2.0352C40.6718 2.06804 40.659 2.09491 40.6216 2.09491C40.5842 2.09491 40.5536 2.06804 40.5536 2.0352ZM42.0516 2.04124C41.9479 1.97043 41.9727 1.86867 42.0869 1.89642C42.1597 1.91413 42.2064 1.88977 42.2132 1.8306C42.2191 1.77893 42.2287 1.69637 42.2346 1.64711C42.2405 1.59785 42.2983 1.55419 42.3631 1.55009C42.4279 1.54596 42.5025 1.53708 42.529 1.5303C42.5555 1.5235 42.6639 1.4963 42.7699 1.46982C43.0057 1.41094 43.1337 1.32298 43.0867 1.25225C43.0673 1.22313 43.1086 1.19931 43.1784 1.19931C43.2482 1.19931 43.32 1.23289 43.3379 1.27394C43.3605 1.3258 43.3867 1.32902 43.4235 1.28452C43.5179 1.17067 43.7146 1.13514 43.8183 1.21322C43.9016 1.27588 43.9094 1.27432 43.8639 1.20409C43.8221 1.13969 43.8358 1.12892 43.921 1.15931C43.9827 1.18131 44.0722 1.19931 44.12 1.19931C44.1677 1.19931 44.2241 1.25029 44.2454 1.31259C44.2703 1.38541 44.3254 1.41584 44.3997 1.39779C44.5636 1.35794 44.5467 1.21031 44.3814 1.23858C44.2507 1.26092 44.2506 1.2601 44.376 1.20473C44.4467 1.17353 44.6023 1.14611 44.7219 1.1438C44.8415 1.14147 45.1162 1.11325 45.3322 1.08104C45.8923 0.997566 47.3 0.851287 47.9414 0.809928C48.2418 0.790569 48.6176 0.764077 48.7766 0.751055C49.1116 0.723627 49.7729 0.679965 50.6396 0.628056C50.9753 0.607952 51.4378 0.576706 51.6675 0.558625C52.2195 0.515165 53.0884 0.511924 53.2093 0.552894C53.2623 0.570847 53.4285 0.606163 53.5787 0.631384C53.7289 0.656599 53.8517 0.697002 53.8517 0.721166C53.8517 0.745325 53.7803 0.831523 53.6929 0.912703C53.5636 1.03288 53.474 1.05922 53.2108 1.05444C53.0186 1.0509 52.8964 1.07307 52.9092 1.10902C52.9212 1.14227 53.1535 1.17169 53.4255 1.17439C53.8527 1.17862 54.1373 1.25587 54.0402 1.34122C53.9967 1.37941 53.1451 1.41715 53.1452 1.38088C53.1453 1.36312 52.9502 1.357 52.7116 1.36727C52.473 1.37754 52.112 1.36155 51.9093 1.33166C51.7066 1.30179 51.527 1.29011 51.5102 1.30569C51.4935 1.32126 51.3558 1.33968 51.2042 1.34661C51.0527 1.35354 50.8488 1.37996 50.7512 1.40534C50.6457 1.43279 50.5406 1.42598 50.4921 1.38856C50.4472 1.35395 50.131 1.31942 49.7894 1.31182C49.3665 1.30244 49.1814 1.27751 49.2096 1.23375C49.2323 1.1984 49.2019 1.20647 49.1419 1.25169C49.0669 1.30824 48.9513 1.32178 48.7715 1.29506C48.5999 1.26956 48.5241 1.2772 48.5508 1.31734C48.5963 1.38574 48.5878 1.38705 48.0057 1.40159C47.776 1.40732 47.5231 1.43314 47.4436 1.45896C47.3641 1.48479 47.299 1.48395 47.299 1.45711C47.299 1.43027 47.2268 1.40831 47.1384 1.40831C47.0501 1.40831 46.9778 1.42846 46.9778 1.45309C46.9778 1.47772 46.9327 1.49787 46.8777 1.49787C46.8226 1.49787 46.7926 1.47518 46.811 1.44743C46.8556 1.38038 46.1957 1.47885 46.1478 1.5464C46.0601 1.67005 44.8578 1.79535 44.8578 1.68084C44.8578 1.64589 44.8272 1.61728 44.7898 1.61728C44.7524 1.61728 44.7384 1.6423 44.7587 1.67287C44.8168 1.76026 44.669 1.81406 44.5734 1.74032C44.5093 1.69085 44.4791 1.69387 44.4551 1.75218C44.4343 1.80253 44.3286 1.82553 44.1585 1.81669C44.0131 1.80914 43.8942 1.82805 43.8942 1.85872C43.8942 1.95746 43.5641 1.89262 43.5 1.78129C43.4659 1.72209 43.4101 1.68969 43.376 1.7093C43.3418 1.72891 43.3287 1.76715 43.3467 1.79427C43.3647 1.8214 43.3372 1.85868 43.2856 1.8771C43.2339 1.89553 43.1743 1.88449 43.153 1.85256C43.1295 1.81717 43.0472 1.82933 42.9422 1.88371C42.7446 1.98605 42.13 2.09478 42.0516 2.04127L42.0516 2.04124ZM41.1318 1.77005C41.1318 1.66517 41.1703 1.64973 41.2254 1.73255C41.2457 1.76312 41.233 1.80501 41.1971 1.82563C41.1611 1.84626 41.1318 1.8213 41.1318 1.77005ZM41.3739 1.66691C41.4112 1.63221 41.4797 1.61557 41.526 1.62993C41.5741 1.64484 41.545 1.6719 41.4581 1.69301C41.3513 1.71898 41.3262 1.71121 41.3739 1.66691ZM63.5041 1.51541C63.4246 1.50118 63.3596 1.46903 63.3596 1.44397C63.3596 1.3709 63.6388 1.41062 63.6664 1.48761C63.6802 1.52608 63.6819 1.55389 63.6701 1.54942C63.6583 1.54493 63.5836 1.52965 63.5041 1.51541H63.5041ZM62.1711 1.37843C62.3477 1.3079 62.4492 1.3079 62.3317 1.37843C62.2787 1.41026 62.192 1.43484 62.139 1.43303C62.0755 1.43086 62.0864 1.41227 62.1711 1.37843ZM62.5603 1.38398C62.5405 1.35421 62.5821 1.34391 62.6528 1.3611C62.8028 1.39756 62.8218 1.43813 62.6888 1.43813C62.6379 1.43813 62.5801 1.41376 62.5603 1.38398ZM54.29 1.24887C54.1889 1.15441 54.2348 1.14786 55.0288 1.14341C55.4944 1.14077 55.9398 1.12709 56.0186 1.11294C56.0973 1.0988 56.1768 1.10977 56.1951 1.13732C56.2134 1.16488 56.3169 1.18173 56.425 1.17477C56.7173 1.15597 56.7187 1.24289 56.4265 1.26879C56.2883 1.28104 56.189 1.27038 56.2058 1.24518C56.2585 1.16587 56.1596 1.1953 56.0589 1.28886C55.9496 1.39043 55.6782 1.40872 55.6183 1.31855C55.5919 1.2788 55.5362 1.27972 55.4526 1.3213C55.3103 1.39204 55.1764 1.34397 55.2418 1.24564C55.2704 1.20264 55.2546 1.19855 55.1947 1.23348C55.1451 1.26243 54.9455 1.3004 54.7511 1.31785C54.473 1.34282 54.3748 1.32814 54.29 1.24886V1.24887ZM59.4408 1.31871C59.4408 1.28587 59.4536 1.259 59.4691 1.259C59.4847 1.259 59.5153 1.28587 59.5372 1.31871C59.559 1.35155 59.5463 1.37841 59.5089 1.37841C59.4714 1.37841 59.4408 1.35155 59.4408 1.31871ZM56.8711 1.19929C56.8132 1.16452 56.8053 1.14105 56.8513 1.1405C56.8934 1.13996 56.9457 1.16645 56.9675 1.19929C57.0168 1.27342 56.9945 1.27342 56.8711 1.19929ZM81.9631 1.19115C81.9964 1.14116 81.7516 1.08237 81.7021 1.12844C81.633 1.19263 81.3474 1.20476 81.3474 1.14349C81.3474 1.1056 81.1646 1.09647 80.8496 1.11863C80.4633 1.1458 80.3013 1.1318 80.1268 1.05618C80.0032 1.00257 79.9507 0.971029 80.0103 0.986085C80.0698 1.00114 80.1276 0.990097 80.1387 0.961582C80.1498 0.933056 80.2023 0.900984 80.2553 0.890306C80.3083 0.879643 80.3729 0.844036 80.3989 0.811195C80.4248 0.778355 80.4465 0.81033 80.4471 0.88229C80.448 1.00594 80.4577 1.0084 80.6247 0.927314C80.7832 0.850369 80.8105 0.852269 80.8903 0.94578C80.9749 1.04493 80.9774 1.04491 80.9405 0.94578C80.9106 0.865143 80.9372 0.841295 81.0572 0.841295C81.1426 0.841295 81.242 0.888315 81.2781 0.94578C81.3144 1.00377 81.3444 1.01705 81.3455 0.975636C81.3475 0.89745 81.5402 0.867905 81.5402 0.94578C81.5402 0.970409 81.7587 0.989007 82.0258 0.987111C82.2929 0.985208 82.5259 1.00536 82.5435 1.03189C82.5612 1.05842 82.6375 1.08012 82.7132 1.08012C82.8232 1.08012 82.8346 1.09505 82.7704 1.15475C82.69 1.22948 81.9144 1.26469 81.9631 1.19139V1.19115ZM83.0177 1.18935C83.0177 1.16199 83.0394 1.13779 83.0659 1.13557C83.0924 1.13335 83.2066 1.12029 83.3196 1.10655C83.5738 1.07564 83.6643 1.17807 83.4198 1.21992C83.1781 1.26129 83.0177 1.24911 83.0177 1.18935ZM78.3923 0.990326C78.3924 0.957491 78.284 0.930624 78.1514 0.930624C78.0189 0.930624 77.8892 0.957491 77.8633 0.990326C77.8318 1.03013 77.8157 1.03013 77.8149 0.990326C77.8135 0.915525 77.4286 0.89783 77.4286 0.972573C77.4286 1.00264 77.4024 1.01214 77.3703 0.993696C77.3091 0.958553 76.744 0.902127 76.1438 0.87123C75.9495 0.861226 75.7905 0.847009 75.7905 0.839631C75.7905 0.799614 74.9452 0.798996 74.8911 0.838981C74.7946 0.910351 74.1523 0.960142 74.1523 0.89625C74.1523 0.865897 74.1089 0.841067 74.0559 0.841067C74.0029 0.841067 73.9596 0.866992 73.9596 0.898686C73.9596 0.934658 73.5071 0.945684 72.755 0.928047C72.0925 0.912511 71.4808 0.900078 71.3955 0.900422C71.3103 0.900963 71.1441 0.876276 71.0261 0.846011C70.8972 0.812923 70.8117 0.812716 70.8117 0.84547C70.8117 0.899729 70.587 0.890941 70.5261 0.834295C70.5085 0.817957 70.2161 0.814138 69.8764 0.825816C69.467 0.839889 69.2281 0.82344 69.1679 0.777026C69.0972 0.722486 69.0769 0.725125 69.0762 0.788947C69.0755 0.84072 69.0578 0.847929 69.028 0.808518C68.9997 0.771084 68.6342 0.74318 68.1135 0.738718C67.6365 0.734651 66.1911 0.715903 64.9014 0.697126C63.6118 0.678353 61.9567 0.659408 61.2235 0.655035C60.4904 0.650709 59.8904 0.630274 59.8904 0.609727C59.8903 0.589169 59.7313 0.572355 59.537 0.572355C59.3428 0.572355 59.1838 0.592506 59.1838 0.617135C59.1838 0.641764 59.1532 0.661917 59.1158 0.661917C59.0784 0.661917 59.0656 0.635047 59.0875 0.602207C59.1093 0.569371 59.0821 0.542504 59.027 0.542504C58.9719 0.542531 58.9269 0.515662 58.9269 0.482827C58.9269 0.449987 58.8963 0.423117 58.8588 0.423117C58.8214 0.423117 58.8087 0.449987 58.8305 0.482827C58.854 0.518091 58.7832 0.54216 58.6576 0.541616C58.4967 0.540859 58.4685 0.52663 58.5414 0.482827C58.6126 0.440079 58.6156 0.424708 58.5529 0.424032C58.4875 0.423275 58.4902 0.402529 58.5644 0.333557C58.6174 0.2843 58.7206 0.243997 58.7938 0.243997C58.867 0.243997 58.9269 0.215317 58.9269 0.180264C58.9269 0.142459 58.9824 0.132919 59.0634 0.156814C59.1553 0.183914 59.1856 0.175464 59.156 0.130985C59.1318 0.0946221 59.1291 0.0648756 59.15 0.0648756C59.1709 0.0648756 59.21 0.120133 59.2369 0.187673L59.2857 0.310475L59.4551 0.186622C59.5713 0.10173 59.6386 0.0838858 59.6692 0.129907C59.7009 0.177507 59.7295 0.173473 59.7677 0.116036C59.8115 0.0502013 60.2523 0.0354412 62.1206 0.0372527C63.385 0.038518 64.94 0.0567339 65.576 0.0778348C66.212 0.0989313 67.2671 0.131771 67.9208 0.150814C70.2811 0.219557 70.8891 0.244542 70.942 0.274922C71.0602 0.342804 71.5779 0.40302 71.6563 0.357997C71.7046 0.330252 71.7609 0.340159 71.7897 0.381491C71.8269 0.434831 71.8556 0.430242 71.9028 0.363409C71.9376 0.314151 71.9666 0.300717 71.9672 0.333557C71.9679 0.37124 72.3652 0.390601 73.0442 0.386049C74.1173 0.378846 75.951 0.475228 75.9512 0.53885C75.9512 0.557295 76.1752 0.56936 76.449 0.565674C76.9182 0.559348 77.9991 0.641058 78.1907 0.69735C78.2614 0.718119 78.2628 0.740439 78.1977 0.813291C78.1322 0.886708 78.1338 0.898624 78.2065 0.877273C78.2557 0.862847 78.3766 0.834574 78.4752 0.814449C78.5857 0.7919 78.6403 0.74988 78.6174 0.704974C78.5969 0.664889 78.6139 0.67415 78.6551 0.725542C78.7157 0.801124 78.7982 0.810393 79.0867 0.774009C79.2896 0.748424 79.492 0.753181 79.5561 0.785039C79.618 0.815857 79.7501 0.844724 79.8496 0.849196C80.0162 0.85668 80.0183 0.859469 79.8755 0.884471C79.7556 0.905477 79.7411 0.92369 79.8113 0.964985C79.9106 1.02342 79.8271 1.03073 78.9223 1.04291C78.6067 1.04714 78.3923 1.02589 78.3924 0.990332L78.3923 0.990326ZM59.7212 0.453311C59.7009 0.404238 59.6584 0.37896 59.6268 0.397131C59.5361 0.449231 59.5597 0.542525 59.6636 0.542525C59.721 0.542525 59.7435 0.507502 59.7212 0.453311ZM55.9743 0.657412C56.0405 0.542594 56.0365 0.529555 55.9456 0.561985C55.8549 0.594334 55.8508 0.581258 55.9162 0.467775L55.992 0.336008L56.0559 0.469124C56.1293 0.621846 56.2619 0.644052 56.3162 0.512673C56.3365 0.463414 56.33 0.423112 56.3016 0.423112C56.2733 0.423112 56.2501 0.382483 56.2501 0.332818C56.2501 0.259406 56.3082 0.249678 56.5606 0.280803C56.7727 0.306952 56.8711 0.297728 56.8711 0.251691C56.8711 0.214252 56.9728 0.184288 57.0998 0.184288C57.2497 0.184288 57.3134 0.206905 57.2847 0.249952C57.2537 0.296633 57.28 0.296238 57.3759 0.248579C57.4879 0.192873 57.5043 0.196913 57.4731 0.272474C57.4525 0.322489 57.4097 0.363413 57.3782 0.363413C57.3466 0.363413 57.3208 0.390281 57.3208 0.423116C57.3208 0.547576 57.4369 0.475643 57.5135 0.303703C57.6029 0.103179 57.6052 0.102077 57.7663 0.182179C57.8475 0.222588 57.8726 0.285681 57.8504 0.39363C57.833 0.478253 57.844 0.539661 57.8749 0.530083C57.9058 0.520512 57.9456 0.538928 57.9632 0.571028C57.9822 0.605542 57.8295 0.633515 57.5895 0.639508C57.2184 0.648766 57.1775 0.637345 57.1134 0.506524C57.0442 0.365467 56.8069 0.30361 56.8069 0.426639C56.8069 0.461423 56.8355 0.473456 56.8704 0.453396C56.9062 0.432805 56.9179 0.455668 56.8972 0.505806C56.8758 0.557748 56.8183 0.579642 56.7589 0.558466C56.6929 0.534919 56.6732 0.546072 56.7026 0.590345C56.7543 0.668062 56.5408 0.725446 56.2929 0.700452C56.2046 0.691552 56.0796 0.708142 56.0151 0.737328C55.91 0.78488 55.9057 0.776584 55.9743 0.657415V0.657412ZM57.7318 0.433067C57.75 0.405702 57.724 0.383313 57.6741 0.383313C57.6243 0.383313 57.5983 0.405702 57.6165 0.433067C57.6347 0.46043 57.6607 0.482822 57.6741 0.482822C57.6876 0.482822 57.7136 0.46043 57.7318 0.433067ZM55.109 0.668727C55.0896 0.63962 55.1314 0.601811 55.2018 0.584696C55.2871 0.56397 55.3167 0.521824 55.2906 0.458498C55.269 0.406198 55.2785 0.363408 55.3117 0.363408C55.3998 0.363408 55.3856 0.558445 55.2911 0.646306C55.1952 0.735422 55.1565 0.740185 55.109 0.668727ZM55.5029 0.502724C55.521 0.458937 55.5441 0.423112 55.5542 0.423112C55.5643 0.423112 55.5873 0.458937 55.6054 0.502724C55.6235 0.546511 55.6004 0.582335 55.5542 0.582335C55.5079 0.582335 55.4848 0.546511 55.5029 0.502724ZM55.7507 0.335453C55.8193 0.28724 55.9387 0.246938 56.0161 0.245893C56.1694 0.243784 56.267 0.334365 56.171 0.389511C56.1381 0.4084 56.1001 0.392993 56.0866 0.355218C56.0681 0.303636 56.0279 0.303537 55.9247 0.354678C55.7272 0.452904 55.603 0.439062 55.7507 0.335286V0.335453ZM54.897 0.327331C54.9184 0.307491 54.9738 0.305369 55.0201 0.322626C55.0714 0.341684 55.0562 0.355833 54.9813 0.358695C54.9136 0.361279 54.8757 0.347177 54.897 0.327337V0.327331ZM58.2845 0.303695C58.2021 0.254235 58.2044 0.245681 58.3005 0.244899C58.3623 0.244358 58.4129 0.270853 58.4129 0.303695C58.4129 0.376515 58.4057 0.376515 58.2845 0.303695ZM57.9394 0.212756C57.9088 0.138557 57.9253 0.133446 58.0289 0.185001C58.1778 0.259073 58.192 0.303695 58.0665 0.303695C58.0173 0.303695 57.9601 0.26277 57.9394 0.212756Z" fill="#F2F577" fill-opacity="0.95"/>
</svg>
