<svg width="16" height="16" viewBox="0 0 16 16" fill="none" xmlns="http://www.w3.org/2000/svg">
<path d="M4.5 12.5V14.5H0.5V12.5" stroke="#444444" stroke-miterlimit="10" stroke-linecap="round" stroke-linejoin="round"/>
<path d="M15.5 12.5V14.5H11.5V12.5" stroke="#444444" stroke-miterlimit="10" stroke-linecap="round" stroke-linejoin="round"/>
<path d="M15.5 7.5H0.5V12.5H15.5V7.5Z" stroke="#444444" stroke-miterlimit="10" stroke-linecap="round" stroke-linejoin="round"/>
<path d="M3 11C3.55228 11 4 10.5523 4 10C4 9.44772 3.55228 9 3 9C2.44772 9 2 9.44772 2 10C2 10.5523 2.44772 11 3 11Z" fill="#444444"/>
<path d="M13 11C13.5523 11 14 10.5523 14 10C14 9.44772 13.5523 9 13 9C12.4477 9 12 9.44772 12 10C12 10.5523 12.4477 11 13 11Z" fill="#444444"/>
<path d="M0.5 7.5L2.272 2.184C2.408 1.775 2.79 1.5 3.221 1.5H12.779C13.209 1.5 13.592 1.775 13.728 2.184L15.5 7.5" stroke="#444444" stroke-miterlimit="10" stroke-linecap="round" stroke-linejoin="round"/>
</svg>
