<svg width="24" height="24" viewBox="0 0 24 24" fill="none" xmlns="http://www.w3.org/2000/svg">
<path d="M12.75 23.25C18.549 23.25 23.25 18.549 23.25 12.75C23.25 6.95101 18.549 2.25 12.75 2.25C6.95101 2.25 2.25 6.95101 2.25 12.75C2.25 18.549 6.95101 23.25 12.75 23.25Z" stroke="#7B7979" stroke-linecap="round" stroke-linejoin="round"/>
<path d="M12.75 5.25V2.25" stroke="#7B7979" stroke-linecap="round" stroke-linejoin="round"/>
<path d="M20.25 12.75H23.25" stroke="#7B7979" stroke-linecap="round" stroke-linejoin="round"/>
<path d="M12.75 20.25V23.25" stroke="#7B7979" stroke-linecap="round" stroke-linejoin="round"/>
<path d="M5.25 12.75H2.25" stroke="#7B7979" stroke-linecap="round" stroke-linejoin="round"/>
<path d="M12.75 15.75C14.4069 15.75 15.75 14.4069 15.75 12.75C15.75 11.0931 14.4069 9.75 12.75 9.75C11.0931 9.75 9.75 11.0931 9.75 12.75C9.75 14.4069 11.0931 15.75 12.75 15.75Z" stroke="#7B7979" stroke-linecap="round" stroke-linejoin="round"/>
</svg>
