<svg width="16" height="16" viewBox="0 0 16 16" fill="none" xmlns="http://www.w3.org/2000/svg">
<path d="M8.5 15.5V12.5" stroke="#444444" stroke-linecap="round" stroke-linejoin="round"/>
<path d="M6.5 10.5H10.5L8.5 12.5L6.5 10.5Z" fill="#444444"/>
<path d="M10.5 3.5H6.5C4.29086 3.5 2.5 5.29086 2.5 7.5V11.5C2.5 13.7091 4.29086 15.5 6.5 15.5H10.5C12.7091 15.5 14.5 13.7091 14.5 11.5V7.5C14.5 5.29086 12.7091 3.5 10.5 3.5Z" stroke="#444444" stroke-linecap="round" stroke-linejoin="round"/>
<path d="M6.5 10.5H10.5L8.5 12.5L6.5 10.5Z" stroke="#444444" stroke-linecap="round" stroke-linejoin="round"/>
<path d="M6 9C6.55228 9 7 8.55228 7 8C7 7.44772 6.55228 7 6 7C5.44772 7 5 7.44772 5 8C5 8.55228 5.44772 9 6 9Z" fill="#444444"/>
<path d="M11 9C11.5523 9 12 8.55228 12 8C12 7.44772 11.5523 7 11 7C10.4477 7 10 7.44772 10 8C10 8.55228 10.4477 9 11 9Z" fill="#444444"/>
<path d="M14.374 6.5H14.5C14.7652 6.5 15.0196 6.39464 15.2071 6.20711C15.3946 6.01957 15.5 5.76522 15.5 5.5V0.5H14.5C13.7044 0.5 12.9413 0.81607 12.3787 1.37868C11.8161 1.94129 11.5 2.70435 11.5 3.5V3.626" stroke="#444444" stroke-linecap="round" stroke-linejoin="round"/>
<path d="M2.626 6.5H2.5C2.23478 6.5 1.98043 6.39464 1.79289 6.20711C1.60536 6.01957 1.5 5.76522 1.5 5.5V0.5H2.5C3.29565 0.5 4.05871 0.81607 4.62132 1.37868C5.18393 1.94129 5.5 2.70435 5.5 3.5V3.626" stroke="#444444" stroke-linecap="round" stroke-linejoin="round"/>
</svg>
