<svg width="26" height="24" viewBox="0 0 26 24" fill="none" xmlns="http://www.w3.org/2000/svg">
<path d="M24.375 0.625H1.625C1.19402 0.625 0.780698 0.796205 0.475951 1.10095C0.171205 1.4057 0 1.81902 0 2.25L0 21.75C0 22.181 0.171205 22.5943 0.475951 22.899C0.780698 23.2038 1.19402 23.375 1.625 23.375H24.375C24.806 23.375 25.2193 23.2038 25.524 22.899C25.8288 22.5943 26 22.181 26 21.75V2.25C26 1.81902 25.8288 1.4057 25.524 1.10095C25.2193 0.796205 24.806 0.625 24.375 0.625ZM11.375 20.125H3.25V12H6.5V16.875H11.375V20.125ZM22.75 12H19.5V7.125H14.625V3.875H22.75V12Z" fill="#C1ED7F"/>
</svg>
