<svg width="63" height="56" viewBox="0 0 63 56" fill="none" xmlns="http://www.w3.org/2000/svg">
<path d="M31.1782 42.6665C30.928 42.6665 30.6779 42.5968 30.4579 42.4582L0.955981 23.7915C0.548707 23.5337 0.311673 23.0773 0.336562 22.5975C0.361437 22.1183 0.644307 21.6886 1.07647 21.4738L31.1782 2.6665L61.2799 21.4738C61.712 21.6886 61.9949 22.1183 62.0198 22.5975C62.0446 23.0773 61.8076 23.5337 61.4003 23.7915L31.8984 42.4582C31.6784 42.5968 31.4283 42.6665 31.1782 42.6665Z" fill="#76B5B5"/>
<path d="M31.1782 23.5768L30.323 22.8737C29.1758 21.9303 19.1092 13.474 19.1092 7.28191C19.1092 3.19857 22.2351 0 26.2267 0C28.1177 0 29.8725 0.695307 31.1782 1.91536C32.4838 0.695307 34.2386 0 36.1296 0C40.1212 0 43.2471 3.19857 43.2471 7.28191C43.2471 13.474 33.1805 21.9303 32.0333 22.8737L31.1782 23.5768Z" fill="#E86C60"/>
<path d="M60.6801 55.9998C60.5674 55.9998 60.4535 55.9855 60.3422 55.9569L29.4993 47.9569L29.8371 38.6665L62.021 22.6665V54.6665C62.021 55.0793 61.8285 55.4692 61.4998 55.7218C61.2628 55.9041 60.9734 55.9998 60.6801 55.9998Z" fill="#9BCED3"/>
<path d="M60.6801 55.9998H1.67626C0.935053 55.9998 0.335266 55.4028 0.335266 54.6665V22.6665L61.3218 53.4959C61.86 53.7876 62.1311 54.4054 61.9792 54.9959C61.8286 55.5864 61.293 55.9998 60.6801 55.9998Z" fill="#BFDEE0"/>
</svg>
