<svg width="16" height="16" viewBox="0 0 16 16" fill="none" xmlns="http://www.w3.org/2000/svg">
<circle cx="8" cy="8" r="8" fill="#B3B3B3"/>
<path d="M8.57422 11H7.65625V6.67969H8.57422V11ZM7.60156 5.53516C7.60156 5.37109 7.64583 5.24479 7.73438 5.15625C7.82552 5.06771 7.95443 5.02344 8.12109 5.02344C8.28255 5.02344 8.40755 5.06771 8.49609 5.15625C8.58724 5.24479 8.63281 5.37109 8.63281 5.53516C8.63281 5.69141 8.58724 5.8151 8.49609 5.90625C8.40755 5.99479 8.28255 6.03906 8.12109 6.03906C7.95443 6.03906 7.82552 5.99479 7.73438 5.90625C7.64583 5.8151 7.60156 5.69141 7.60156 5.53516Z" fill="white"/>
</svg>
