<svg width="15" height="15" viewBox="0 0 15 15" fill="none" xmlns="http://www.w3.org/2000/svg">
<path d="M10.3334 6.79167V7.79167H11.3334V6.79167H10.3334ZM4.66671 6.79167H3.66671V7.79167H4.66671V6.79167ZM8.50004 9.625C8.50004 9.07271 8.05232 8.625 7.50004 8.625C6.94776 8.625 6.50004 9.07271 6.50004 9.625H8.50004ZM6.50004 11.0417C6.50004 11.594 6.94776 12.0417 7.50004 12.0417C8.05232 12.0417 8.50004 11.594 8.50004 11.0417H6.50004ZM3.25004 7.79167H11.75V5.79167H3.25004V7.79167ZM12.1667 8.20833V12.4583H14.1667V8.20833H12.1667ZM11.75 12.875H3.25004V14.875H11.75V12.875ZM2.83337 12.4583V8.20833H0.833374V12.4583H2.83337ZM3.25004 12.875C3.01992 12.875 2.83337 12.6885 2.83337 12.4583H0.833374C0.833374 13.793 1.91535 14.875 3.25004 14.875V12.875ZM12.1667 12.4583C12.1667 12.6885 11.9802 12.875 11.75 12.875V14.875C13.0847 14.875 14.1667 13.793 14.1667 12.4583H12.1667ZM11.75 7.79167C11.9802 7.79167 12.1667 7.97821 12.1667 8.20833H14.1667C14.1667 6.87365 13.0847 5.79167 11.75 5.79167V7.79167ZM3.25004 5.79167C1.91535 5.79167 0.833374 6.87365 0.833374 8.20833H2.83337C2.83337 7.97821 3.01992 7.79167 3.25004 7.79167V5.79167ZM9.33337 3.95833V6.79167H11.3334V3.95833H9.33337ZM10.3334 5.79167H4.66671V7.79167H10.3334V5.79167ZM5.66671 6.79167V3.95833H3.66671V6.79167H5.66671ZM7.50004 2.125C8.51256 2.125 9.33337 2.94581 9.33337 3.95833H11.3334C11.3334 1.84124 9.61713 0.125 7.50004 0.125V2.125ZM7.50004 0.125C5.38295 0.125 3.66671 1.84124 3.66671 3.95833H5.66671C5.66671 2.94581 6.48752 2.125 7.50004 2.125V0.125ZM6.50004 9.625V11.0417H8.50004V9.625H6.50004Z" fill="#E6AB0B"/>
</svg>
