<svg width="48" height="48" viewBox="0 0 48 48" fill="none" xmlns="http://www.w3.org/2000/svg">
<path d="M15 15.436V12C15 9.61305 15.9482 7.32387 17.636 5.63604C19.3239 3.94821 21.6131 3 24 3C26.3869 3 28.6761 3.94821 30.364 5.63604C32.0518 7.32387 33 9.61305 33 12V15.436C33.6959 15.8403 34.3641 16.2907 35 16.784V12C35 9.08262 33.8411 6.28473 31.7782 4.22183C29.7153 2.15893 26.9174 1 24 1C21.0826 1 18.2847 2.15893 16.2218 4.22183C14.1589 6.28473 13 9.08262 13 12V16.784C13.6359 16.2907 14.3041 15.8403 15 15.436Z" fill="white"/>
<path d="M24 15C20.8355 15 17.7421 15.9384 15.1109 17.6965C12.4797 19.4546 10.4289 21.9534 9.21793 24.8771C8.00693 27.8007 7.69008 31.0177 8.30744 34.1214C8.92481 37.2251 10.4487 40.0761 12.6863 42.3137C14.9239 44.5513 17.7749 46.0752 20.8786 46.6926C23.9823 47.3099 27.1993 46.9931 30.1229 45.7821C33.0466 44.5711 35.5454 42.5203 37.3035 39.8891C39.0616 37.2579 40 34.1645 40 31C39.995 26.7581 38.3077 22.6913 35.3082 19.6918C32.3087 16.6924 28.2419 15.005 24 15ZM25 33.9V38C25 38.2652 24.8947 38.5196 24.7071 38.7071C24.5196 38.8946 24.2652 39 24 39C23.7348 39 23.4804 38.8946 23.2929 38.7071C23.1054 38.5196 23 38.2652 23 38V33.9C21.786 33.6522 20.7072 32.9624 19.9728 31.9644C19.2384 30.9664 18.9008 29.7313 19.0253 28.4985C19.1499 27.2657 19.7277 26.123 20.6469 25.2921C21.566 24.4611 22.7609 24.001 24 24.001C25.2391 24.001 26.434 24.4611 27.3532 25.2921C28.2723 26.123 28.8501 27.2657 28.9747 28.4985C29.0992 29.7313 28.7616 30.9664 28.0272 31.9644C27.2928 32.9624 26.2141 33.6522 25 33.9Z" fill="white"/>
</svg>
