<svg width="285" height="50" viewBox="0 0 285 50" fill="none" xmlns="http://www.w3.org/2000/svg">
<path d="M44.5282 32.0482L46.4769 31.8552C46.282 34.0754 35.9051 49.3272 17.1974 49.3272C-3.11799 49.3272 -4.09235 25.1945 9.54867 10.9562C16.9051 3.282 25.6256 0.241272 32.4461 0.241272C41.1179 0.289537 48.6205 6.75711 48.5717 16.4585C48.523 26.3529 41.2153 32.917 37.3179 34.4615C35.2717 35.282 32.2025 34.7028 33.6153 31.0346C35.2717 26.5942 38.8769 17.4238 38.8769 17.4238L36.6359 13.9969L32.1538 16.7481L23.9692 35.282L18.8538 36.199L26.8923 19.3061L23.823 21.0437L20.9 18.0995L38 9.41171L43.4076 20.1266L41.3128 21.9125L40.3384 20.561C40.3384 20.561 38.682 25.1945 38 26.6425C36.1 30.8416 38.4384 31.1312 39.9974 29.7315C42.3358 27.6561 46.623 23.1674 46.7205 16.2654C46.8179 10.9562 42.4333 3.47506 32.8846 3.86118C27.9153 4.05424 21.6307 6.51578 14.9564 13.6108C7.4538 21.5746 2.58201 43.1975 20.8025 44.2594C31.9102 44.9834 40.7769 37.6953 44.5282 32.0482Z" fill="#79C20A"/>
<path d="M62.0179 17.1342H63.4307H64.8435L64.4051 18.5339C65.4282 17.4238 66.5974 16.8446 67.9615 16.8446C69.3743 16.8446 70.3 17.279 70.7384 18.1478C71.1769 19.0166 71.1282 20.3197 70.5923 22.0573L67.2794 32.6757H65.8666H64.4051L67.7666 21.8159C68.1076 20.8024 68.1564 20.0301 68.0102 19.5475C67.8641 19.0648 67.4743 18.7752 66.8897 18.7752C65.9153 18.7752 65.1359 19.1613 64.5512 19.9819C63.9179 20.7541 63.382 22.1055 62.8948 23.9396L60.1666 32.6757H58.7051H57.1948L62.0179 17.1342Z" fill="black"/>
<path d="M79.8486 31.9517C79.0204 32.6757 77.7051 33.0135 75.8538 33.0135C74.0512 33.0135 72.882 32.4826 72.2487 31.469C71.9563 30.9381 71.7615 30.3107 71.7615 29.5384C71.7615 28.8144 71.9076 27.9457 72.1999 26.9804L73.3692 22.9261C74.0025 20.7058 74.8307 19.1131 75.8538 18.196C76.8769 17.279 78.2897 16.8446 80.0922 16.8446C81.7974 16.8446 82.9179 17.3755 83.4538 18.3891C83.7461 18.8718 83.8922 19.5475 83.8922 20.2715C83.8922 21.0437 83.7461 21.9125 83.4538 22.9261L82.5768 25.822H75.464L75.123 26.9321C74.6358 28.5731 74.4897 29.6832 74.6358 30.2141C74.782 30.7451 75.3179 31.0347 76.2435 31.0347C76.8768 31.0347 77.4127 30.7933 77.8512 30.3589C78.2897 29.8763 78.6794 29.1523 78.9717 28.187H81.7486C81.3589 29.9728 80.7256 31.2277 79.8486 31.9517ZM80.2384 23.8914L80.5307 22.9261C81.0179 21.285 81.2127 20.1749 81.0666 19.644C80.9692 19.1131 80.482 18.8235 79.6538 18.8235C78.8743 18.8235 78.2409 19.1131 77.7538 19.7405C77.2666 20.368 76.7794 21.4298 76.3897 22.9261L76.0974 23.8914H80.2384Z" fill="black"/>
<path d="M88.0333 28.6696C87.7897 29.4418 87.7409 30.0693 87.9358 30.4554C88.082 30.8415 88.4717 31.0346 89.0563 31.0346C89.8845 31.0346 90.5666 30.6485 91.1512 29.828C91.7358 29.0557 92.2717 27.7043 92.8563 25.8702L95.4384 17.1342H96.8999H98.3615L93.782 32.6756H92.4179H91.0538L91.5897 31.0346L91.3948 31.2277C90.3717 32.386 89.105 33.0135 87.6435 33.0135C86.4256 33.0135 85.5974 32.5791 85.1589 31.7586C84.964 31.3242 84.8179 30.8415 84.8179 30.2624C84.8179 29.6832 84.9153 29.0075 85.1589 28.2352L88.423 17.1342H89.9333H91.4435L88.0333 28.6696Z" fill="black"/>
<path d="M103.964 10.377H105.474H106.985L104.695 18.2443C105.669 17.3272 106.79 16.8446 108.008 16.8446C109.469 16.8446 110.443 17.279 110.833 18.1478C110.979 18.4856 111.077 18.9683 111.077 19.4992C111.077 20.2714 110.882 21.285 110.59 22.4434L108.738 28.7179C108.3 30.1659 107.667 31.276 106.887 31.9999C106.108 32.6757 105.133 33.0618 103.915 33.0618C102.454 33.0618 101.382 32.3861 100.749 31.0829L100.261 32.7239H97.4358L103.964 10.377ZM101.577 29.7797C101.626 30.6485 102.161 31.0829 103.136 31.0829C103.818 31.0829 104.402 30.7933 104.89 30.2141C105.377 29.6349 105.815 28.8144 106.156 27.656L107.764 22.2021C108.154 20.9471 108.251 20.0784 108.105 19.5475C107.959 19.0165 107.52 18.7752 106.79 18.7752C105.961 18.7752 105.279 19.1613 104.743 19.8853C104.208 20.6093 103.623 21.9125 103.087 23.6983L102.746 24.9532C101.869 27.3182 101.528 28.9109 101.577 29.7797Z" fill="black"/>
<path d="M118.19 31.8069C117.264 32.6274 116.095 33.0135 114.779 33.0135C113.318 33.0135 112.392 32.5791 111.954 31.7104C111.808 31.3725 111.71 30.9381 111.71 30.4072C111.71 29.635 111.905 28.7179 112.197 27.6561L112.246 27.5113C112.733 25.9185 113.513 24.8084 114.536 24.1327C115.559 23.457 117.069 23.1191 119.067 23.1191C120.285 23.1191 120.869 23.1674 120.82 23.2639L121.308 21.7677C121.697 20.7058 121.795 19.9336 121.6 19.4509C121.405 18.9683 120.918 18.7752 120.09 18.7752C119.456 18.7752 118.92 18.9683 118.531 19.4027C118.141 19.8371 117.751 20.4645 117.508 21.4298H114.585C114.974 19.9819 115.608 18.8235 116.582 18.0512C117.508 17.2307 118.677 16.8446 120.041 16.8446C121.99 16.8446 123.305 17.3273 123.938 18.2926C124.279 18.7752 124.426 19.4027 124.426 20.1749C124.426 20.8989 124.279 21.7194 123.938 22.6847L120.82 32.7239H118.19L118.628 31.3242C118.531 31.469 118.385 31.6621 118.19 31.8069ZM120.285 25.2428C120.333 25.098 119.992 25.0497 119.261 25.0497C117.995 25.0497 117.069 25.2428 116.485 25.6772C115.9 26.1116 115.413 26.8838 115.072 27.9939L115.023 28.1387C114.682 29.2006 114.585 29.9245 114.779 30.4072C114.926 30.8416 115.364 31.0829 116.095 31.0829C116.826 31.0829 117.459 30.8416 118.044 30.3107C118.628 29.7797 119.115 29.0075 119.456 28.0422L120.285 25.2428Z" fill="black"/>
<path d="M128.81 28.6696C128.567 29.4418 128.518 30.0693 128.713 30.4554C128.859 30.8415 129.249 31.0346 129.833 31.0346C130.662 31.0346 131.344 30.6485 131.928 29.828C132.513 29.0557 133.049 27.7043 133.633 25.8702L136.167 17.1342H137.628H139.09L134.51 32.6756H133.146H131.782L132.318 31.0346L132.123 31.2277C131.1 32.386 129.833 33.0135 128.372 33.0135C127.154 33.0135 126.326 32.5791 125.887 31.7586C125.692 31.3242 125.546 30.8415 125.546 30.2624C125.546 29.6832 125.644 29.0075 125.887 28.2352L129.151 17.1342H130.662H132.172L128.81 28.6696Z" fill="black"/>
<path d="M142.646 17.1342H144.01H145.374L144.984 18.5339L145.033 18.4856C146.056 17.3755 147.226 16.7963 148.638 16.7963C150.002 16.7963 150.928 17.279 151.318 18.2443C151.513 18.6787 151.61 19.1613 151.61 19.7888C151.61 20.5128 151.464 21.3815 151.172 22.3951L149.32 28.6696C148.882 30.1176 148.249 31.2277 147.469 31.9517C146.69 32.6274 145.715 33.0135 144.497 33.0135C143.085 33.0135 142.061 32.4343 141.379 31.4208L139.333 38.5158H137.872H136.41L142.646 17.1342ZM143.815 31.0829C144.497 31.0829 145.082 30.7933 145.569 30.2141C146.056 29.6349 146.495 28.8144 146.836 27.6561L148.443 22.2021C148.833 20.9472 148.931 20.0784 148.784 19.5475C148.638 19.0165 148.2 18.7752 147.469 18.7752C146.641 18.7752 145.959 19.1613 145.423 19.8853C144.838 20.6093 144.302 21.9125 143.767 23.6983L143.426 24.9532C142.597 27.3182 142.256 28.9592 142.305 29.828C142.305 30.6485 142.841 31.0829 143.815 31.0829Z" fill="black"/>
<path d="M156.385 17.1342H157.749H159.113L158.723 18.7752L158.918 18.5822C160.087 17.4238 161.403 16.8446 162.913 16.8446L162.182 19.7405H161.938C160.623 19.7405 159.649 20.0301 159.015 20.6093C158.382 21.1885 157.797 22.2986 157.262 23.9879L154.728 32.7239H153.267H151.805L156.385 17.1342Z" fill="black"/>
<path d="M166.615 33.0135C164.813 33.0135 163.546 32.4826 162.913 31.469C162.572 30.9381 162.426 30.2624 162.426 29.4902C162.426 28.7662 162.572 27.9457 162.864 26.9804L164.033 22.9261C164.667 20.7058 165.495 19.1131 166.469 18.196C167.443 17.279 168.808 16.8446 170.561 16.8446C172.364 16.8446 173.631 17.3755 174.264 18.3891C174.605 18.92 174.751 19.5957 174.751 20.4162C174.751 21.1402 174.605 22.009 174.313 22.9261L173.144 26.9804C172.51 29.2006 171.682 30.7451 170.708 31.6621C169.733 32.5309 168.369 33.0135 166.615 33.0135ZM167.102 31.0347C167.833 31.0347 168.418 30.7451 168.905 30.1176C169.392 29.4902 169.831 28.4283 170.22 26.9321L171.39 22.8778C171.877 21.285 172.023 20.2232 171.877 19.644C171.731 19.0648 171.146 18.7752 170.123 18.7752C169.392 18.7752 168.808 19.0648 168.32 19.6923C167.833 20.3197 167.395 21.3816 167.005 22.8778L165.836 26.9321C165.349 28.5248 165.202 29.5867 165.349 30.1659C165.495 30.7451 166.079 31.0347 167.102 31.0347Z" fill="black"/>
<path d="M179.282 17.1342H180.744H182.254L177.723 32.6274C176.992 35.282 176.31 36.9713 175.628 37.6953C174.995 38.4193 173.826 38.8054 172.218 38.8054C171.682 38.8054 171.195 38.7571 170.805 38.7088L171.439 36.7782L172.218 36.8265C172.705 36.8265 173.144 36.5852 173.485 36.1508C173.826 35.6681 174.167 34.8959 174.459 33.834L179.282 17.1342ZM181.231 10.4253H184.3L183.423 13.466H180.354L181.231 10.4253Z" fill="black"/>
<path d="M190.195 31.9517C189.367 32.6757 188.051 33.0135 186.2 33.0135C184.397 33.0135 183.228 32.4826 182.595 31.469C182.303 30.9381 182.108 30.3107 182.108 29.5384C182.108 28.8144 182.254 27.9457 182.546 26.9804L183.715 22.9261C184.349 20.7058 185.177 19.1131 186.2 18.196C187.223 17.279 188.636 16.8446 190.438 16.8446C192.144 16.8446 193.264 17.3755 193.8 18.3891C194.092 18.8718 194.238 19.5475 194.238 20.2715C194.238 21.0437 194.092 21.9125 193.8 22.9261L192.923 25.822H185.81L185.469 26.9321C184.982 28.5731 184.836 29.6832 184.982 30.2141C185.128 30.7451 185.664 31.0347 186.59 31.0347C187.223 31.0347 187.759 30.7933 188.197 30.3589C188.636 29.8763 189.026 29.1523 189.318 28.187H192.095C191.656 29.9728 191.072 31.2277 190.195 31.9517ZM190.585 23.8914L190.877 22.9261C191.364 21.285 191.559 20.1749 191.413 19.644C191.315 19.1131 190.828 18.8235 189.951 18.8235C189.172 18.8235 188.538 19.1131 188.051 19.7405C187.564 20.368 187.077 21.4298 186.687 22.9261L186.395 23.8914H190.585Z" fill="black"/>
<path d="M197.503 32.6756H196.041H194.58L201.498 10.3287H202.959H204.421L197.503 32.6756ZM200.328 23.65L205.98 17.1342H207.587H209.195L203.349 23.8913L205.2 32.6756H203.739H202.277L200.328 23.65Z" fill="black"/>
<path d="M214.261 32.917C213.774 33.0135 213.238 33.0135 212.702 33.0135C211.143 33.0135 210.218 32.6274 209.828 31.9034C209.438 31.1794 209.536 29.828 210.12 27.8974L212.654 19.3061H210.608L211.241 17.1824H213.287L214.115 14.383L217.379 13.1764L216.21 17.1824H218.695L218.061 19.3061H215.577L213.043 27.8974C212.702 29.0075 212.605 29.828 212.8 30.3106C212.995 30.7933 213.433 31.0346 214.164 31.0346C214.408 31.0346 214.651 31.0346 214.846 30.9863L214.261 32.917Z" fill="black"/>
<path d="M226.733 31.9517C225.905 32.6757 224.59 33.0135 222.739 33.0135C220.936 33.0135 219.767 32.4826 219.133 31.469C218.841 30.9381 218.646 30.3107 218.646 29.5384C218.646 28.8144 218.792 27.9457 219.085 26.9804L220.254 22.9261C220.887 20.7058 221.715 19.1131 222.739 18.196C223.762 17.279 225.174 16.8446 226.977 16.8446C228.682 16.8446 229.803 17.3755 230.339 18.3891C230.631 18.8718 230.777 19.5475 230.777 20.2715C230.777 21.0437 230.631 21.9125 230.339 22.9261L229.462 25.822H222.349L222.008 26.9321C221.521 28.5731 221.374 29.6832 221.521 30.2141C221.667 30.7451 222.203 31.0347 223.128 31.0347C223.762 31.0347 224.298 30.7933 224.736 30.3589C225.174 29.8763 225.564 29.1523 225.856 28.187H228.633C228.244 29.9728 227.61 31.2277 226.733 31.9517ZM227.172 23.8914L227.464 22.9261C227.951 21.285 228.146 20.1749 228 19.644C227.903 19.1131 227.415 18.8235 226.587 18.8235C225.808 18.8235 225.174 19.1131 224.687 19.7405C224.2 20.368 223.713 21.4298 223.323 22.9261L223.031 23.8914H227.172Z" fill="black"/>
<path d="M232.385 29.0557H235.746L234.674 32.7239H231.313L232.385 29.0557Z" fill="black"/>
<path d="M249.095 28.0422L248.9 28.6696C248.559 30.1658 247.974 31.2759 247.049 31.9999C246.172 32.7239 244.905 33.0618 243.346 33.0618C241.69 33.0618 240.52 32.5308 239.936 31.5173C239.643 31.0346 239.497 30.4072 239.497 29.6832C239.497 28.9109 239.643 28.0422 239.936 27.0286L241.3 22.3468C241.836 20.4645 242.615 19.113 243.492 18.2443C244.418 17.3755 245.587 16.9411 247.049 16.9411C248.705 16.9411 249.874 17.3755 250.508 18.2443C250.897 18.7752 251.092 19.4509 251.092 20.3197C251.092 20.8506 251.043 21.4298 250.849 22.1055H247.974C248.315 20.9954 248.364 20.1749 248.218 19.6922C248.072 19.1613 247.682 18.92 247.049 18.92C246.415 18.92 245.831 19.2096 245.392 19.7888C244.954 20.3679 244.515 21.3333 244.126 22.733L242.761 27.4147C242.323 28.8144 242.177 29.7797 242.323 30.3589C242.42 30.8898 242.859 31.1794 243.59 31.1794C244.174 31.1794 244.661 30.9863 245.051 30.6002C245.441 30.2141 245.782 29.5866 246.026 28.7661L246.22 28.1387H249.095V28.0422Z" fill="black"/>
<path d="M257.815 10.377H259.277H260.787L258.449 18.4373C259.52 17.3755 260.738 16.8446 262.054 16.8929C263.223 16.8929 264.003 17.279 264.49 18.0512C264.977 18.8235 265.026 19.8853 264.636 21.1402L261.226 32.7239H259.813H258.351L261.713 21.285C261.956 20.4645 262.005 19.837 261.81 19.4509C261.615 19.0648 261.226 18.8235 260.641 18.8235C259.813 18.8235 259.082 19.2096 258.497 20.0301C257.913 20.8024 257.328 22.1538 256.792 23.9879L254.21 32.7239H252.7H251.19L257.815 10.377Z" fill="black"/>
<path d="M284.756 7.0467C284.756 10.2322 282.174 12.7903 278.862 12.7903C275.549 12.7903 272.918 10.2322 272.918 7.0467C272.918 3.86118 275.549 1.35138 278.862 1.35138C282.174 1.35138 284.756 3.86118 284.756 7.0467ZM274.428 7.0467C274.428 9.60477 276.377 11.5837 278.91 11.5837C281.395 11.6319 283.295 9.55651 283.295 7.0467C283.295 4.48863 281.395 2.46149 278.862 2.46149C276.328 2.50975 274.428 4.58517 274.428 7.0467ZM277.985 10.0392H276.669V4.34384C277.205 4.29557 277.936 4.15078 278.862 4.15078C279.933 4.15078 280.421 4.34384 280.81 4.58517C281.151 4.82649 281.395 5.26088 281.395 5.7918C281.395 6.46752 280.859 6.95017 280.226 7.14323V7.23977C280.81 7.43283 281.054 7.86722 281.249 8.63946C281.444 9.50824 281.541 9.79784 281.687 10.0392H280.274C280.079 9.8461 279.982 9.36345 279.836 8.63946C279.738 8.06028 279.397 7.77069 278.667 7.77069H278.033V10.0392H277.985ZM277.985 6.80538H278.618C279.349 6.80538 279.933 6.56405 279.933 5.98486C279.933 5.45394 279.544 5.11609 278.715 5.11609C278.374 5.11609 278.131 5.16435 277.985 5.16435V6.80538Z" fill="black"/>
</svg>
