<svg width="192" height="34" viewBox="0 0 192 34" fill="none" xmlns="http://www.w3.org/2000/svg">
<path d="M29.9979 21.7928L31.3108 21.6615C31.1795 23.1712 24.1887 33.5425 11.5856 33.5425C-2.10053 33.5425 -2.75694 17.1323 6.43281 7.45022C11.3887 2.23175 17.2636 0.164062 21.8584 0.164062C27.7005 0.196883 32.7549 4.59483 32.722 11.1918C32.6892 17.92 27.7661 22.3835 25.1405 23.4338C23.762 23.9918 21.6943 23.5979 22.6461 21.1035C23.762 18.0841 26.1908 11.8482 26.1908 11.8482L24.681 9.51791L21.6615 11.3887L16.1477 23.9918L12.7015 24.6153L18.1169 13.1282L16.0492 14.3097L14.08 12.3077L25.6 6.39996L29.2431 13.6861L27.8318 14.9005L27.1754 13.9815C27.1754 13.9815 26.0595 17.1323 25.6 18.1169C24.32 20.9723 25.8954 21.1692 26.9456 20.2174C28.521 18.8061 31.4092 15.7538 31.4749 11.0605C31.5405 7.45022 28.5867 2.36304 22.1538 2.6256C18.8061 2.75688 14.5723 4.43073 10.0759 9.25534C5.02152 14.6707 1.73947 29.3743 14.0143 30.0964C21.4974 30.5887 27.4708 25.6328 29.9979 21.7928Z" fill="#79C20A"/>
<path d="M41.7805 11.6513H42.7323H43.6841L43.3887 12.6031C44.0779 11.8482 44.8656 11.4543 45.7846 11.4543C46.7364 11.4543 47.36 11.7497 47.6554 12.3405C47.9507 12.9313 47.9179 13.8174 47.5569 14.999L45.3251 22.2195H44.3733H43.3887L45.6533 14.8349C45.883 14.1456 45.9159 13.6205 45.8174 13.2923C45.7189 12.9641 45.4564 12.7672 45.0625 12.7672C44.4061 12.7672 43.881 13.0297 43.4871 13.5877C43.0605 14.1128 42.6995 15.0318 42.3712 16.279L40.5333 22.2195H39.5487H38.5312L41.7805 11.6513Z" fill="black"/>
<path d="M53.7928 21.7272C53.2349 22.2195 52.3487 22.4492 51.1015 22.4492C49.8872 22.4492 49.0995 22.0882 48.6728 21.399C48.4759 21.0379 48.3446 20.6113 48.3446 20.0861C48.3446 19.5938 48.4431 19.0031 48.64 18.3467L49.4277 15.5897C49.8543 14.08 50.4123 12.9969 51.1015 12.3733C51.7908 11.7497 52.7426 11.4543 53.9569 11.4543C55.1056 11.4543 55.8605 11.8154 56.2215 12.5046C56.4184 12.8328 56.5169 13.2923 56.5169 13.7846C56.5169 14.3097 56.4184 14.9005 56.2215 15.5897L55.6308 17.559H50.839L50.6092 18.3138C50.281 19.4297 50.1826 20.1846 50.281 20.5456C50.3795 20.9067 50.7405 21.1036 51.3641 21.1036C51.7908 21.1036 52.1518 20.9395 52.4472 20.6441C52.7425 20.3159 53.0051 19.8236 53.202 19.1672H55.0728C54.8102 20.3815 54.3836 21.2349 53.7928 21.7272ZM54.0554 16.2461L54.2523 15.5897C54.5805 14.4738 54.7118 13.719 54.6133 13.3579C54.5477 12.9969 54.2195 12.8 53.6615 12.8C53.1364 12.8 52.7097 12.9969 52.3815 13.4236C52.0533 13.8502 51.7251 14.5723 51.4625 15.5897L51.2656 16.2461H54.0554Z" fill="black"/>
<path d="M59.3067 19.4953C59.1426 20.0205 59.1097 20.4471 59.241 20.7097C59.3395 20.9723 59.602 21.1036 59.9959 21.1036C60.5538 21.1036 61.0133 20.841 61.4072 20.283C61.801 19.7579 62.162 18.8389 62.5559 17.5918L64.2954 11.6512H65.28H66.2646L63.1795 22.2195H62.2605H61.3415L61.7026 21.1036L61.5713 21.2348C60.882 22.0225 60.0287 22.4492 59.0441 22.4492C58.2236 22.4492 57.6656 22.1538 57.3702 21.5959C57.239 21.3005 57.1405 20.9723 57.1405 20.5784C57.1405 20.1846 57.2061 19.7251 57.3702 19.2L59.5692 11.6512H60.5867H61.6041L59.3067 19.4953Z" fill="black"/>
<path d="M70.0389 7.0564H71.0564H72.0738L70.5312 12.4061C71.1877 11.7825 71.9425 11.4543 72.763 11.4543C73.7477 11.4543 74.4041 11.7497 74.6666 12.3405C74.7651 12.5702 74.8307 12.8984 74.8307 13.2595C74.8307 13.7846 74.6994 14.4738 74.5025 15.2615L73.2553 19.5282C72.96 20.5128 72.5333 21.2677 72.0082 21.76C71.483 22.2195 70.8266 22.482 70.0061 22.482C69.0215 22.482 68.2994 22.0225 67.8728 21.1364L67.5446 22.2523H65.641L70.0389 7.0564ZM68.4307 20.2502C68.4636 20.841 68.8246 21.1364 69.481 21.1364C69.9405 21.1364 70.3343 20.9395 70.6625 20.5456C70.9907 20.1518 71.2861 19.5938 71.5159 18.8061L72.5989 15.0974C72.8615 14.2441 72.9271 13.6533 72.8287 13.2923C72.7302 12.9313 72.4348 12.7672 71.9425 12.7672C71.3846 12.7672 70.9251 13.0297 70.5641 13.522C70.203 14.0143 69.8092 14.9005 69.4482 16.1149L69.2184 16.9682C68.6277 18.5764 68.3979 19.6595 68.4307 20.2502Z" fill="black"/>
<path d="M79.6226 21.6287C78.999 22.1867 78.2113 22.4492 77.3251 22.4492C76.3405 22.4492 75.7169 22.1538 75.4215 21.5631C75.3231 21.3333 75.2574 21.0379 75.2574 20.6769C75.2574 20.1518 75.3887 19.5282 75.5856 18.8061L75.6185 18.7077C75.9467 17.6246 76.4718 16.8697 77.161 16.4102C77.8503 15.9508 78.8677 15.721 80.2133 15.721C81.0339 15.721 81.4277 15.7538 81.3949 15.8195L81.7231 14.802C81.9857 14.08 82.0513 13.5549 81.92 13.2267C81.7887 12.8984 81.4605 12.7672 80.9026 12.7672C80.4759 12.7672 80.1149 12.8984 79.8523 13.1938C79.5898 13.4892 79.3272 13.9159 79.1631 14.5723H77.1939C77.4564 13.5877 77.8831 12.8 78.5395 12.2749C79.1631 11.7169 79.9508 11.4543 80.8698 11.4543C82.1826 11.4543 83.0687 11.7826 83.4954 12.439C83.7251 12.7672 83.8236 13.1938 83.8236 13.719C83.8236 14.2113 83.7251 14.7692 83.4954 15.4256L81.3949 22.2523H79.6226L79.918 21.3005C79.8523 21.399 79.7539 21.5302 79.6226 21.6287ZM81.0339 17.1651C81.0667 17.0667 80.8369 17.0338 80.3446 17.0338C79.4913 17.0338 78.8677 17.1651 78.4739 17.4605C78.08 17.7559 77.7518 18.281 77.5221 19.0359L77.4892 19.1343C77.2595 19.8564 77.1939 20.3487 77.3251 20.6769C77.4236 20.9723 77.719 21.1364 78.2113 21.1364C78.7036 21.1364 79.1303 20.9723 79.5241 20.6113C79.918 20.2502 80.2462 19.7251 80.4759 19.0687L81.0339 17.1651Z" fill="black"/>
<path d="M86.7774 19.4953C86.6133 20.0205 86.5805 20.4471 86.7118 20.7097C86.8102 20.9723 87.0728 21.1036 87.4666 21.1036C88.0246 21.1036 88.4841 20.841 88.8779 20.283C89.2718 19.7579 89.6328 18.8389 90.0266 17.5918L91.7333 11.6512H92.7179H93.7025L90.6174 22.2195H89.6984H88.7795L89.1405 21.1036L89.0092 21.2348C88.32 22.0225 87.4666 22.4492 86.482 22.4492C85.6615 22.4492 85.1036 22.1538 84.8082 21.5959C84.6769 21.3005 84.5784 20.9723 84.5784 20.5784C84.5784 20.1846 84.6441 19.7251 84.8082 19.2L87.0071 11.6512H88.0246H89.042L86.7774 19.4953Z" fill="black"/>
<path d="M96.0985 11.6513H97.0175H97.9364L97.6739 12.603L97.7067 12.5702C98.3959 11.8154 99.1836 11.4215 100.135 11.4215C101.054 11.4215 101.678 11.7497 101.941 12.4061C102.072 12.7015 102.137 13.0297 102.137 13.4564C102.137 13.9487 102.039 14.5395 101.842 15.2287L100.595 19.4954C100.3 20.48 99.8728 21.2348 99.3477 21.7271C98.8226 22.1866 98.1662 22.4492 97.3457 22.4492C96.3939 22.4492 95.7046 22.0554 95.2451 21.3661L93.8667 26.1907H92.8821H91.8975L96.0985 11.6513ZM96.8862 21.1364C97.3457 21.1364 97.7395 20.9395 98.0677 20.5456C98.3959 20.1518 98.6913 19.5938 98.921 18.8061L100.004 15.0974C100.267 14.2441 100.332 13.6533 100.234 13.2923C100.135 12.9313 99.84 12.7671 99.3477 12.7671C98.7898 12.7671 98.3303 13.0297 97.9692 13.522C97.5754 14.0143 97.2144 14.9005 96.8534 16.1148L96.6236 16.9682C96.0657 18.5764 95.8359 19.6923 95.8687 20.283C95.8687 20.841 96.2298 21.1364 96.8862 21.1364Z" fill="black"/>
<path d="M105.354 11.6513H106.273H107.192L106.929 12.7672L107.061 12.6359C107.848 11.8482 108.734 11.4543 109.752 11.4543L109.259 13.4236H109.095C108.209 13.4236 107.553 13.6205 107.126 14.0143C106.699 14.4082 106.306 15.1631 105.945 16.3118L104.238 22.2523H103.253H102.269L105.354 11.6513Z" fill="black"/>
<path d="M112.246 22.4492C111.032 22.4492 110.178 22.0882 109.752 21.399C109.522 21.0379 109.424 20.5784 109.424 20.0533C109.424 19.561 109.522 19.0031 109.719 18.3467L110.507 15.5897C110.933 14.08 111.491 12.9969 112.148 12.3733C112.804 11.7497 113.723 11.4543 114.905 11.4543C116.119 11.4543 116.972 11.8154 117.399 12.5046C117.629 12.8656 117.727 13.3251 117.727 13.8831C117.727 14.3754 117.629 14.9661 117.432 15.5897L116.644 18.3467C116.217 19.8564 115.659 20.9067 115.003 21.5302C114.347 22.121 113.428 22.4492 112.246 22.4492ZM112.574 21.1036C113.067 21.1036 113.461 20.9067 113.789 20.48C114.117 20.0533 114.412 19.3313 114.675 18.3138L115.463 15.5569C115.791 14.4738 115.889 13.7518 115.791 13.3579C115.692 12.9641 115.298 12.7672 114.609 12.7672C114.117 12.7672 113.723 12.9641 113.395 13.3908C113.067 13.8174 112.771 14.5395 112.509 15.5569L111.721 18.3138C111.393 19.3969 111.294 20.119 111.393 20.5128C111.491 20.9067 111.885 21.1036 112.574 21.1036Z" fill="black"/>
<path d="M120.779 11.6513H121.764H122.782L119.729 22.1867C119.237 23.9918 118.777 25.1405 118.318 25.6328C117.891 26.1251 117.104 26.3877 116.021 26.3877C115.659 26.3877 115.331 26.3549 115.069 26.3221L115.495 25.0092L116.021 25.042C116.349 25.042 116.644 24.8779 116.874 24.5826C117.104 24.2544 117.333 23.7292 117.53 23.0072L120.779 11.6513ZM122.092 7.08923H124.16L123.569 9.15693H121.502L122.092 7.08923Z" fill="black"/>
<path d="M128.131 21.7272C127.573 22.2195 126.687 22.4492 125.44 22.4492C124.226 22.4492 123.438 22.0882 123.011 21.399C122.814 21.0379 122.683 20.6113 122.683 20.0861C122.683 19.5938 122.782 19.0031 122.978 18.3467L123.766 15.5897C124.193 14.08 124.751 12.9969 125.44 12.3733C126.129 11.7497 127.081 11.4543 128.295 11.4543C129.444 11.4543 130.199 11.8154 130.56 12.5046C130.757 12.8328 130.855 13.2923 130.855 13.7846C130.855 14.3097 130.757 14.9005 130.56 15.5897L129.969 17.559H125.177L124.948 18.3138C124.619 19.4297 124.521 20.1846 124.619 20.5456C124.718 20.9067 125.079 21.1036 125.703 21.1036C126.129 21.1036 126.49 20.9395 126.786 20.6441C127.081 20.3159 127.344 19.8236 127.54 19.1672H129.411C129.116 20.3815 128.722 21.2349 128.131 21.7272ZM128.394 16.2461L128.591 15.5897C128.919 14.4738 129.05 13.719 128.952 13.3579C128.886 12.9969 128.558 12.8 127.967 12.8C127.442 12.8 127.015 12.9969 126.687 13.4236C126.359 13.8502 126.031 14.5723 125.768 15.5897L125.571 16.2461H128.394Z" fill="black"/>
<path d="M133.054 22.2195H132.07H131.085L135.746 7.02356H136.73H137.715L133.054 22.2195ZM134.958 16.082L138.765 11.6513H139.848H140.931L136.993 16.2461L138.24 22.2195H137.255H136.271L134.958 16.082Z" fill="black"/>
<path d="M144.345 22.3835C144.016 22.4492 143.655 22.4492 143.294 22.4492C142.244 22.4492 141.621 22.1866 141.358 21.6943C141.095 21.202 141.161 20.283 141.555 18.9702L143.262 13.1282H141.883L142.31 11.6841H143.688L144.246 9.78047L146.445 8.95996L145.657 11.6841H147.331L146.905 13.1282H145.231L143.524 18.9702C143.294 19.7251 143.229 20.283 143.36 20.6112C143.491 20.9394 143.787 21.1035 144.279 21.1035C144.443 21.1035 144.607 21.1035 144.738 21.0707L144.345 22.3835Z" fill="black"/>
<path d="M152.747 21.7272C152.189 22.2195 151.303 22.4492 150.055 22.4492C148.841 22.4492 148.053 22.0882 147.627 21.399C147.43 21.0379 147.298 20.6113 147.298 20.0861C147.298 19.5938 147.397 19.0031 147.594 18.3467L148.382 15.5897C148.808 14.08 149.366 12.9969 150.055 12.3733C150.745 11.7497 151.696 11.4543 152.911 11.4543C154.059 11.4543 154.814 11.8154 155.175 12.5046C155.372 12.8328 155.471 13.2923 155.471 13.7846C155.471 14.3097 155.372 14.9005 155.175 15.5897L154.585 17.559H149.793L149.563 18.3138C149.235 19.4297 149.136 20.1846 149.235 20.5456C149.333 20.9067 149.694 21.1036 150.318 21.1036C150.745 21.1036 151.106 20.9395 151.401 20.6441C151.696 20.3159 151.959 19.8236 152.156 19.1672H154.027C153.764 20.3815 153.337 21.2349 152.747 21.7272ZM153.042 16.2461L153.239 15.5897C153.567 14.4738 153.698 13.719 153.6 13.3579C153.534 12.9969 153.206 12.8 152.648 12.8C152.123 12.8 151.696 12.9969 151.368 13.4236C151.04 13.8502 150.712 14.5723 150.449 15.5897L150.252 16.2461H153.042Z" fill="black"/>
<path d="M156.554 19.7579H158.818L158.096 22.2523H155.832L156.554 19.7579Z" fill="black"/>
<path d="M167.811 19.0686L167.68 19.4953C167.45 20.5127 167.056 21.2676 166.433 21.7599C165.842 22.2522 164.989 22.4819 163.938 22.4819C162.823 22.4819 162.035 22.1209 161.641 21.4317C161.444 21.1035 161.346 20.6768 161.346 20.1845C161.346 19.6594 161.444 19.0686 161.641 18.3794L162.56 15.1958C162.921 13.9158 163.446 12.9968 164.037 12.4061C164.661 11.8153 165.448 11.5199 166.433 11.5199C167.549 11.5199 168.336 11.8153 168.763 12.4061C169.026 12.7671 169.157 13.2266 169.157 13.8173C169.157 14.1784 169.124 14.5722 168.993 15.0317H167.056C167.286 14.2768 167.319 13.7189 167.221 13.3907C167.122 13.0296 166.859 12.8655 166.433 12.8655C166.006 12.8655 165.612 13.0625 165.317 13.4563C165.022 13.8502 164.726 14.5066 164.464 15.4584L163.545 18.6419C163.249 19.5937 163.151 20.2502 163.249 20.644C163.315 21.005 163.61 21.2019 164.103 21.2019C164.496 21.2019 164.825 21.0707 165.087 20.8081C165.35 20.5455 165.579 20.1189 165.744 19.5609L165.875 19.1343H167.811V19.0686Z" fill="black"/>
<path d="M173.686 7.0564H174.671H175.688L174.113 12.5374C174.835 11.8154 175.655 11.4543 176.542 11.4872C177.329 11.4872 177.854 11.7497 178.183 12.2749C178.511 12.8 178.544 13.522 178.281 14.3754L175.984 22.2523H175.032H174.047L176.312 14.4738C176.476 13.9159 176.509 13.4892 176.377 13.2267C176.246 12.9641 175.984 12.8 175.59 12.8C175.032 12.8 174.54 13.0625 174.146 13.6205C173.752 14.1456 173.358 15.0646 172.997 16.3118L171.257 22.2523H170.24H169.223L173.686 7.0564Z" fill="black"/>
<path d="M191.836 4.79177C191.836 6.95792 190.096 8.69741 187.865 8.69741C185.633 8.69741 183.861 6.95792 183.861 4.79177C183.861 2.62561 185.633 0.918945 187.865 0.918945C190.096 0.918945 191.836 2.62561 191.836 4.79177ZM184.878 4.79177C184.878 6.53125 186.191 7.87689 187.897 7.87689C189.571 7.90972 190.851 6.49843 190.851 4.79177C190.851 3.05228 189.571 1.67382 187.865 1.67382C186.158 1.70664 184.878 3.11792 184.878 4.79177ZM187.274 6.82664H186.388V2.95382C186.749 2.921 187.241 2.82254 187.865 2.82254C188.587 2.82254 188.915 2.95382 189.177 3.11792C189.407 3.28202 189.571 3.57741 189.571 3.93843C189.571 4.39792 189.21 4.72613 188.784 4.85741V4.92305C189.177 5.05433 189.342 5.34971 189.473 5.87484C189.604 6.46561 189.67 6.66254 189.768 6.82664H188.816C188.685 6.69536 188.619 6.36715 188.521 5.87484C188.455 5.481 188.226 5.28407 187.733 5.28407H187.307V6.82664H187.274ZM187.274 4.62766H187.701C188.193 4.62766 188.587 4.46356 188.587 4.06972C188.587 3.70869 188.324 3.47895 187.766 3.47895C187.536 3.47895 187.372 3.51177 187.274 3.51177V4.62766Z" fill="black"/>
</svg>
