<svg width="18" height="20" viewBox="0 0 18 20" fill="none" xmlns="http://www.w3.org/2000/svg">
<path d="M6.6499 8.34375L11.3512 5.40625" stroke="#444444" stroke-miterlimit="10" stroke-linecap="round" stroke-linejoin="round"/>
<path d="M6.6499 11.6562L11.3512 14.5938" stroke="#444444" stroke-miterlimit="10" stroke-linecap="round" stroke-linejoin="round"/>
<path d="M14 6.875C15.7259 6.875 17.125 5.47589 17.125 3.75C17.125 2.02411 15.7259 0.625 14 0.625C12.2741 0.625 10.875 2.02411 10.875 3.75C10.875 5.47589 12.2741 6.875 14 6.875Z" stroke="#444444" stroke-miterlimit="10" stroke-linecap="round" stroke-linejoin="round"/>
<path d="M14 19.375C15.7259 19.375 17.125 17.9759 17.125 16.25C17.125 14.5241 15.7259 13.125 14 13.125C12.2741 13.125 10.875 14.5241 10.875 16.25C10.875 17.9759 12.2741 19.375 14 19.375Z" stroke="#444444" stroke-miterlimit="10" stroke-linecap="round" stroke-linejoin="round"/>
<path d="M4 13.125C5.72589 13.125 7.125 11.7259 7.125 10C7.125 8.27411 5.72589 6.875 4 6.875C2.27411 6.875 0.875 8.27411 0.875 10C0.875 11.7259 2.27411 13.125 4 13.125Z" stroke="#444444" stroke-miterlimit="10" stroke-linecap="round" stroke-linejoin="round"/>
</svg>
