<svg width="12" height="12" viewBox="0 0 12 12" fill="none" xmlns="http://www.w3.org/2000/svg">
<g clip-path="url(#clip0)">
<path d="M4.78105 0.375052C4.69898 0.27249 4.5975 0.187098 4.48242 0.123752C4.36735 0.0604057 4.24092 0.0203461 4.11036 0.00586012C3.84668 -0.0233956 3.58219 0.0532919 3.37505 0.219052C3.16792 0.384813 3.03512 0.626068 3.00586 0.889744C2.9766 1.15342 3.05329 1.41792 3.21905 1.62505L6.71905 6.00005L3.21905 10.3751C3.05329 10.5822 2.9766 10.8467 3.00586 11.1104C3.03512 11.374 3.16792 11.6153 3.37505 11.7811C3.58219 11.9468 3.84668 12.0235 4.11036 11.9942C4.37404 11.965 4.61529 11.8322 4.78105 11.6251L8.78105 6.62505C8.92306 6.44769 9.00043 6.22726 9.00043 6.00005C9.00043 5.77285 8.92306 5.55241 8.78105 5.37505L4.78105 0.375052Z" fill="#444444"/>
</g>
<defs>
<clipPath id="clip0">
<rect width="12" height="12" fill="white"/>
</clipPath>
</defs>
</svg>
