<svg width="16" height="16" viewBox="0 0 16 16" fill="none" xmlns="http://www.w3.org/2000/svg">
<path d="M15.086 10.4001L11.949 9.00808C11.6387 8.8708 11.2918 8.83971 10.962 8.91962C10.6322 8.99953 10.338 9.18598 10.125 9.45008L9.17799 10.6351C7.64333 9.65877 6.3417 8.35748 5.36499 6.82308L6.54899 5.87708C6.81401 5.66428 7.00124 5.36984 7.08154 5.03959C7.16184 4.70933 7.13071 4.3618 6.99299 4.05108L5.59999 0.914075C5.45201 0.580882 5.19055 0.311043 4.86218 0.152631C4.53382 -0.0057814 4.15988 -0.0424792 3.80699 0.0490753L1.15499 0.738075C0.789118 0.833654 0.471003 1.0601 0.260902 1.37451C0.0508015 1.68892 -0.0366933 2.06947 0.0149909 2.44408C0.506106 5.86129 2.09094 9.02747 4.53219 11.4685C6.97344 13.9096 10.1397 15.4942 13.557 15.9851C13.6272 15.995 13.6981 16 13.769 16.0001C14.1104 15.9999 14.4422 15.8865 14.7123 15.6777C14.9824 15.4689 15.1757 15.1764 15.262 14.8461L15.95 12.1931C16.0429 11.8403 16.0069 11.4659 15.8485 11.1373C15.6902 10.8087 15.4198 10.5473 15.086 10.4001Z" fill="#79C20A"/>
</svg>
