<svg width="13" height="15" viewBox="0 0 13 15" fill="none" xmlns="http://www.w3.org/2000/svg">
<path d="M11.3664 6.18318C11.3664 10.2145 6.18318 13.67 6.18318 13.67C6.18318 13.67 1 10.2145 1 6.18318C1 4.80852 1.54608 3.49015 2.51812 2.51812C3.49015 1.54608 4.80852 1 6.18318 1C7.55785 1 8.87621 1.54608 9.84824 2.51812C10.8203 3.49015 11.3664 4.80852 11.3664 6.18318Z" stroke="black" stroke-width="1.5" stroke-linecap="round" stroke-linejoin="round"/>
<path d="M6.18329 7.9109C7.13749 7.9109 7.91102 7.13737 7.91102 6.18317C7.91102 5.22897 7.13749 4.45544 6.18329 4.45544C5.2291 4.45544 4.45557 5.22897 4.45557 6.18317C4.45557 7.13737 5.2291 7.9109 6.18329 7.9109Z" stroke="black" stroke-width="1.5" stroke-linecap="round" stroke-linejoin="round"/>
</svg>
