<svg width="64" height="64" viewBox="0 0 64 64" fill="none" xmlns="http://www.w3.org/2000/svg">
<path d="M54.364 9.15459C54.239 9.0021 54.0817 8.87923 53.9035 8.79485C53.7253 8.71046 53.5306 8.66666 53.3334 8.66659H29.508C28.4655 6.69081 26.7914 5.121 24.7528 4.20751C22.7141 3.29403 20.4283 3.08947 18.2599 3.62647C16.0914 4.16348 14.1652 5.4111 12.7885 7.17039C11.4117 8.92968 10.6637 11.0993 10.6637 13.3333C10.6637 15.5672 11.4117 17.7368 12.7885 19.4961C14.1652 21.2554 16.0914 22.503 18.2599 23.04C20.4283 23.577 22.7141 23.3725 24.7528 22.459C26.7914 21.5455 28.4655 19.9757 29.508 17.9999H34.352L36.7374 19.1933C36.9474 19.2978 37.1812 19.345 37.4153 19.3303C37.6494 19.3156 37.8755 19.2393 38.0707 19.1093L41.3334 16.9333L44.5934 19.1066C44.7886 19.2366 45.0146 19.3129 45.2487 19.3276C45.4829 19.3424 45.7167 19.2951 45.9267 19.1906L48.3147 17.9999H52C52.3074 18 52.6054 17.8938 52.8435 17.6995C53.0816 17.5051 53.2452 17.2344 53.3067 16.9333L54.64 10.2666C54.6796 10.0724 54.6753 9.87179 54.6276 9.67943C54.5798 9.48707 54.4898 9.30778 54.364 9.15459ZM18 16.6666C17.3408 16.6666 16.6963 16.4711 16.1481 16.1048C15.6 15.7386 15.1727 15.218 14.9204 14.6089C14.6681 13.9998 14.6021 13.3296 14.7307 12.683C14.8594 12.0364 15.1768 11.4424 15.643 10.9762C16.1092 10.5101 16.7031 10.1926 17.3497 10.064C17.9963 9.93536 18.6666 10.0014 19.2756 10.2537C19.8847 10.506 20.4053 10.9332 20.7716 11.4814C21.1379 12.0295 21.3334 12.674 21.3334 13.3333C21.3334 14.2173 20.9822 15.0652 20.3571 15.6903C19.7319 16.3154 18.8841 16.6666 18 16.6666Z" fill="#B3B3B3"/>
<path d="M58.6827 42.3465L35.3214 44.3772C33.1587 44.5652 30.9902 44.0889 29.1054 43.0118L22.6667 39.3332H37.6907C38.6568 39.3332 39.5834 38.9494 40.2665 38.2663C40.9496 37.5831 41.3334 36.6566 41.3334 35.6905C41.3336 34.8406 41.0366 34.0174 40.4939 33.3633C39.9511 32.7093 39.1968 32.2657 38.3614 32.1092L24.8721 29.5758C21.6308 28.9694 18.3402 28.665 15.0427 28.6665H4.00006V47.9718L25.9321 57.1145C28.3754 57.9682 31.0201 58.0612 33.5174 57.3812L62.6667 45.9998C62.6668 45.4915 62.5612 44.9888 62.3566 44.5235C62.152 44.0582 61.8528 43.6405 61.4782 43.297C61.1036 42.9534 60.6616 42.6915 60.1804 42.5279C59.6991 42.3643 59.1891 42.3025 58.6827 42.3465Z" fill="#EEBC99"/>
<path d="M9.33337 54H2.66671C2.31309 54 1.97395 53.8595 1.7239 53.6095C1.47385 53.3594 1.33337 53.0203 1.33337 52.6667V27.3333C1.33337 26.9797 1.47385 26.6406 1.7239 26.3905C1.97395 26.1405 2.31309 26 2.66671 26H9.33337C9.687 26 10.0261 26.1405 10.2762 26.3905C10.5262 26.6406 10.6667 26.9797 10.6667 27.3333V52.6667C10.6667 53.0203 10.5262 53.3594 10.2762 53.6095C10.0261 53.8595 9.687 54 9.33337 54Z" fill="#5A7A84"/>
<path d="M54.4267 11.3333H30.6667V13.9999H53.8934L54.4267 11.3333Z" fill="#E6E6E6"/>
</svg>
