<svg width="24" height="23" viewBox="0 0 24 23" fill="none"
  xmlns="http://www.w3.org/2000/svg">
  <path d="M15.4346 2.59302L21.3816 8.54002" stroke="#E6AB0B" stroke-miterlimit="10"/>
  <path d="M13.1028 3.88704C10.1818 2.62904 6.6638 3.19304 4.2788 5.57904C3.7898 6.06804 3.3858 6.60904 3.0498 7.17904L6.4778 10.607" stroke="#E6AB0B" stroke-miterlimit="10"/>
  <path d="M20.0969 10.845C21.3869 13.777 20.8219 17.32 18.4209 19.721C17.9319 20.21 17.3909 20.614 16.8209 20.95L13.3789 17.508" stroke="#E6AB0B" stroke-miterlimit="10"/>
  <path d="M10.6433 19.014L4.98633 13.357C4.98633 13.357 9.81833 1.33603 23.3713 0.629028C22.6043 14.123 10.6433 19.014 10.6433 19.014Z" stroke="#E6AB0B" stroke-miterlimit="10" stroke-linecap="square"/>
  <path d="M15.9145 10.9142C16.6955 10.1332 16.6955 8.86684 15.9145 8.0858C15.1334 7.30476 13.8671 7.30476 13.0861 8.0858C12.305 8.86684 12.305 10.1332 13.0861 10.9142C13.8671 11.6952 15.1334 11.6952 15.9145 10.9142Z" fill="#E6AB0B"/>
  <path d="M1.613 18.344C2.724 17.233 4.524 17.233 5.635 18.344C6.746 19.455 6.746 21.255 5.635 22.366C4.524 23.477 0.5 23.5 0.5 23.5C0.5 23.5 0.502 19.454 1.613 18.344Z" fill="#E6AB0B"/>
</svg>
