<svg width="64" height="64" viewBox="0 0 64 64" fill="none" xmlns="http://www.w3.org/2000/svg">
<path d="M60 62.6667C59.6498 62.6672 59.3029 62.5984 58.9793 62.4643C58.6558 62.3302 58.3619 62.1335 58.1147 61.8854L43.448 47.2187C42.9623 46.7158 42.6935 46.0422 42.6996 45.343C42.7056 44.6438 42.9861 43.9749 43.4805 43.4805C43.9749 42.9861 44.6438 42.7056 45.343 42.6996C46.0422 42.6935 46.7158 42.9623 47.2187 43.448L61.8854 58.1147C62.2582 58.4876 62.5121 58.9627 62.6149 59.4799C62.7178 59.9972 62.665 60.5332 62.4632 61.0204C62.2614 61.5076 61.9197 61.9241 61.4812 62.2171C61.0428 62.5101 60.5274 62.6666 60 62.6667Z" fill="#C19F85"/>
<path d="M28 52C41.2548 52 52 41.2548 52 28C52 14.7452 41.2548 4 28 4C14.7452 4 4 14.7452 4 28C4 41.2548 14.7452 52 28 52Z" fill="#C8E9EC"/>
<path d="M28 53.3334C22.9896 53.3334 18.0916 51.8477 13.9256 49.064C9.75954 46.2803 6.5125 42.3238 4.59508 37.6947C2.67766 33.0657 2.17598 27.972 3.15347 23.0578C4.13096 18.1436 6.54373 13.6297 10.0867 10.0867C13.6296 6.54379 18.1436 4.13102 23.0577 3.15353C27.9719 2.17604 33.0656 2.67772 37.6947 4.59514C42.3237 6.51256 46.2803 9.7596 49.0639 13.9256C51.8476 18.0917 53.3334 22.9896 53.3334 28.0001C53.326 34.7166 50.6545 41.156 45.9052 45.9053C41.1559 50.6546 34.7166 53.326 28 53.3334ZM28 5.33343C23.517 5.33343 19.1346 6.6628 15.4071 9.15345C11.6796 11.6441 8.77435 15.1841 7.05876 19.3259C5.34318 23.4677 4.8943 28.0252 5.7689 32.4221C6.6435 36.819 8.80229 40.8579 11.9723 44.0279C15.1423 47.1978 19.1811 49.3566 23.578 50.2312C27.9749 51.1058 32.5324 50.6569 36.6742 48.9414C40.816 47.2258 44.356 44.3205 46.8467 40.593C49.3373 36.8655 50.6667 32.4831 50.6667 28.0001C50.66 21.9906 48.2698 16.2291 44.0204 11.9797C39.771 7.73037 34.0096 5.34013 28 5.33343Z" fill="#444444"/>
<path d="M40.8187 21.6147L28.8187 12.2814C28.5846 12.0993 28.2966 12.0005 28 12.0005C27.7035 12.0005 27.4154 12.0993 27.1814 12.2814L15.1814 21.6147C15.0212 21.7394 14.8915 21.8989 14.8023 22.0812C14.7131 22.2635 14.6667 22.4638 14.6667 22.6667V37.3334C14.6667 37.687 14.8072 38.0262 15.0572 38.2762C15.3073 38.5263 15.6464 38.6667 16 38.6667H24V29.3334H32V38.6667H40C40.3536 38.6667 40.6928 38.5263 40.9428 38.2762C41.1929 38.0262 41.3334 37.687 41.3334 37.3334V22.6667C41.3333 22.4638 41.2869 22.2635 41.1977 22.0812C41.1085 21.8989 40.9789 21.7394 40.8187 21.6147Z" fill="#5A7A84"/>
</svg>
