<svg width="64" height="64" viewBox="0 0 64 64" fill="none" xmlns="http://www.w3.org/2000/svg">
<path d="M62.276 31.0572L48.9427 17.7239C48.6927 17.4739 48.3536 17.3335 48 17.3335C47.6465 17.3335 47.3074 17.4739 47.0574 17.7239L43.448 21.3332H32C31.6464 21.3332 31.3073 21.4737 31.0572 21.7237C30.8072 21.9738 30.6667 22.3129 30.6667 22.6665V34.6665C30.6668 35.0201 30.8073 35.3592 31.0574 35.6092L44.3907 48.9425C44.6407 49.1925 44.9798 49.3329 45.3334 49.3329C45.6869 49.3329 46.026 49.1925 46.276 48.9425L62.276 32.9425C62.526 32.6925 62.6664 32.3534 62.6664 31.9999C62.6664 31.6463 62.526 31.3072 62.276 31.0572Z" fill="#FFD764"/>
<path d="M50.7453 43.5265L28.9427 21.7239C28.6927 21.4738 28.3536 21.3333 28 21.3332H20.552L16.9427 17.7239C16.6926 17.4739 16.3536 17.3335 16 17.3335C15.6464 17.3335 15.3074 17.4739 15.0573 17.7239L1.724 31.0572C1.47404 31.3072 1.33362 31.6463 1.33362 31.9999C1.33362 32.3534 1.47404 32.6925 1.724 32.9425L26.204 57.4225C27.7746 59.0091 29.8642 59.9768 32.09 60.1482C34.3159 60.3196 36.529 59.6833 38.324 58.3559L50.2813 49.5865C50.7463 49.2456 51.1322 48.8081 51.4123 48.3041C51.6924 47.8001 51.8603 47.2414 51.9044 46.6665C51.9484 46.0916 51.8677 45.5139 51.6676 44.9731C51.4676 44.4322 51.153 43.9411 50.7453 43.5332V43.5265Z" fill="#E2AC4B"/>
<path d="M33.1667 1.33325H30.8333C30.666 1.33304 30.5005 1.36887 30.3483 1.43832C30.196 1.50776 30.0605 1.6092 29.9509 1.73571C29.8414 1.86222 29.7603 2.01085 29.7134 2.17148C29.6664 2.33211 29.6546 2.50098 29.6787 2.66659L30.8453 10.8306C30.8855 11.1082 31.0243 11.3621 31.2363 11.5457C31.4484 11.7293 31.7195 11.8304 32 11.8304C32.2805 11.8304 32.5516 11.7293 32.7637 11.5457C32.9757 11.3621 33.1145 11.1082 33.1547 10.8306L34.3213 2.66659C34.3455 2.50098 34.3336 2.33211 34.2867 2.17148C34.2397 2.01085 34.1587 1.86222 34.0491 1.73571C33.9395 1.6092 33.804 1.50776 33.6517 1.43832C33.4995 1.36887 33.334 1.33304 33.1667 1.33325Z" fill="#B3B3B3"/>
<path d="M22.3414 4.44401C22.2858 4.28634 22.197 4.14245 22.081 4.02208C21.965 3.90172 21.8245 3.80769 21.669 3.74637C21.5134 3.68504 21.3466 3.65786 21.1796 3.66665C21.0127 3.67545 20.8496 3.72002 20.7014 3.79734L18.6334 4.87601C18.4854 4.95349 18.3557 5.06182 18.2531 5.19369C18.1506 5.32556 18.0775 5.47789 18.0388 5.64041C18.0001 5.80293 17.9968 5.97186 18.029 6.13579C18.0611 6.29972 18.1281 6.45484 18.2254 6.59068L23.0347 13.288C23.198 13.5166 23.4384 13.6786 23.7116 13.744C23.9848 13.8095 24.2724 13.774 24.5216 13.6441C24.7707 13.5143 24.9646 13.2988 25.0674 13.0374C25.1703 12.7759 25.1752 12.4861 25.0814 12.2213L22.3414 4.44401Z" fill="#B3B3B3"/>
<path d="M45.9613 5.64001C45.9227 5.47752 45.8496 5.32522 45.747 5.19341C45.6444 5.06161 45.5147 4.95337 45.3667 4.87601L43.2987 3.79734C43.1505 3.72002 42.9874 3.67545 42.8204 3.66665C42.6535 3.65786 42.4866 3.68504 42.3311 3.74637C42.1756 3.80769 42.035 3.90172 41.919 4.02208C41.803 4.14245 41.7142 4.28634 41.6587 4.44401L38.9187 12.2213C38.8248 12.4861 38.8297 12.7759 38.9326 13.0374C39.0355 13.2988 39.2293 13.5143 39.4784 13.6441C39.7276 13.774 40.0152 13.8095 40.2885 13.744C40.5617 13.6786 40.8021 13.5166 40.9653 13.288L45.7747 6.59068C45.8721 6.45488 45.9393 6.29969 45.9715 6.13566C46.0037 5.97163 46.0002 5.80259 45.9613 5.64001Z" fill="#B3B3B3"/>
<path d="M37.3334 21.3333H29.3334C28.9798 21.3333 28.6407 21.4739 28.3907 21.7239L19.724 30.3906C18.9436 31.171 18.5051 32.2295 18.5051 33.3333C18.5051 34.437 18.9436 35.4955 19.724 36.2759C20.5045 37.0564 21.563 37.4948 22.6667 37.4948C23.7704 37.4948 24.8289 37.0564 25.6094 36.2759L32.552 29.3333H37.3334C37.687 29.3333 38.0261 29.1928 38.2762 28.9427C38.5262 28.6927 38.6667 28.3535 38.6667 27.9999V22.6666C38.6667 22.313 38.5262 21.9738 38.2762 21.7238C38.0261 21.4737 37.687 21.3333 37.3334 21.3333Z" fill="#FFD764"/>
<path d="M17.3803 45.9125C18.4582 44.8346 18.4582 43.0871 17.3803 42.0092C16.3025 40.9314 14.5549 40.9314 13.4771 42.0092L11.8951 43.5913C10.8172 44.6691 10.8172 46.4166 11.8951 47.4945C12.9729 48.5723 14.7204 48.5723 15.7983 47.4945L17.3803 45.9125Z" fill="#FFD764"/>
<path d="M21.863 49.1992C23.0143 48.048 23.0145 46.1816 21.8635 45.0306C20.7125 43.8796 18.8461 43.8798 17.6949 45.0311L14.9164 47.8095C13.7651 48.9608 13.7649 50.8272 14.9159 51.9782C16.0669 53.1292 17.9333 53.129 19.0846 51.9777L21.863 49.1992Z" fill="#FFD764"/>
<path d="M25.9104 53.0297C27.0612 51.8789 27.0614 50.0134 25.9109 48.8629C24.7604 47.7124 22.8949 47.7126 21.7442 48.8634L18.9666 51.6409C17.8159 52.7917 17.8157 54.6572 18.9662 55.8077C20.1166 56.9581 21.9822 56.9579 23.1329 55.8072L25.9104 53.0297Z" fill="#FFD764"/>
<path d="M29.2386 57.3149C30.3122 56.2412 30.3122 54.5004 29.2386 53.4267C28.1649 52.3531 26.4241 52.3531 25.3504 53.4267L24.0097 54.7674C22.9361 55.8411 22.9361 57.5819 24.0097 58.6556C25.0834 59.7292 26.8242 59.7292 27.8979 58.6556L29.2386 57.3149Z" fill="#FFD764"/>
<path d="M46.6667 50.6666C46.3131 50.6665 45.974 50.526 45.724 50.2759L41.0573 45.6092C40.8144 45.3578 40.6801 45.021 40.6831 44.6714C40.6861 44.3218 40.8264 43.9873 41.0736 43.7401C41.3208 43.4929 41.6552 43.3527 42.0048 43.3497C42.3544 43.3466 42.6912 43.481 42.9427 43.7239L47.6093 48.3906C47.7957 48.577 47.9227 48.8146 47.9741 49.0732C48.0255 49.3318 47.9991 49.5998 47.8982 49.8434C47.7973 50.087 47.6265 50.2953 47.4073 50.4418C47.1881 50.5883 46.9303 50.6665 46.6667 50.6666Z" fill="#AA7827"/>
<path d="M41.3333 54.6666C40.9798 54.6665 40.6407 54.526 40.3907 54.2759L35.724 49.6092C35.4811 49.3578 35.3467 49.021 35.3498 48.6714C35.3528 48.3218 35.493 47.9873 35.7403 47.7401C35.9875 47.4929 36.3219 47.3527 36.6715 47.3497C37.0211 47.3466 37.3579 47.481 37.6093 47.7239L42.276 52.3906C42.4624 52.577 42.5894 52.8146 42.6408 53.0732C42.6922 53.3318 42.6658 53.5998 42.5649 53.8434C42.464 54.087 42.2932 54.2953 42.074 54.4418C41.8547 54.5883 41.597 54.6665 41.3333 54.6666Z" fill="#AA7827"/>
<path d="M36 58.6666C35.6464 58.6666 35.3073 58.526 35.0573 58.276L31.0573 54.276C30.8144 54.0245 30.6801 53.6877 30.6831 53.3381C30.6861 52.9885 30.8264 52.6541 31.0736 52.4069C31.3208 52.1597 31.6552 52.0194 32.0048 52.0164C32.3544 52.0134 32.6912 52.1478 32.9427 52.3906L36.9427 56.3906C37.1291 56.5771 37.256 56.8147 37.3074 57.0733C37.3589 57.3319 37.3325 57.5999 37.2316 57.8435C37.1307 58.0871 36.9598 58.2953 36.7406 58.4418C36.5214 58.5884 36.2637 58.6666 36 58.6666Z" fill="#AA7827"/>
</svg>
