<svg width="23" height="24" viewBox="0 0 23 24" fill="none" xmlns="http://www.w3.org/2000/svg">
<path d="M13.5 19.5L16.45 22.45C16.7717 22.7783 17.155 23.0401 17.5778 23.2203C18.0007 23.4005 18.455 23.4957 18.9146 23.5003C19.3743 23.505 19.8304 23.419 20.2568 23.2474C20.6833 23.0757 21.0717 22.8218 21.4 22.5L21.451 22.449C22.1137 21.7992 22.4911 20.9127 22.5003 19.9846C22.5095 19.0566 22.1497 18.1628 21.5 17.5L21.449 17.449L19.5 15.5" stroke="#444444" stroke-miterlimit="10" stroke-linecap="square"/>
<path d="M10.9911 9.366L3.70313 2.078L1.16113 4.62L8.27913 11.738" stroke="#444444" stroke-miterlimit="10"/>
<path d="M22.1781 5.42199L19.1001 8.48699L15.5001 4.91099L18.5801 1.84499C17.8697 1.53704 17.0881 1.43082 16.3211 1.53799C14.8982 1.66021 13.5753 2.32009 12.6217 3.3833C11.6681 4.44651 11.1554 5.83315 11.1881 7.26099C11.1821 7.82263 11.2882 8.37984 11.5001 8.89999L1.64515 17.583C0.968499 18.1865 0.559293 19.0341 0.507534 19.9393C0.455775 20.8446 0.765702 21.7333 1.36915 22.41C1.39215 22.437 1.41615 22.462 1.44015 22.488C1.73866 22.7998 2.09567 23.0497 2.49079 23.2234C2.88591 23.3972 3.31139 23.4914 3.74293 23.5007C4.17447 23.51 4.60361 23.4342 5.00584 23.2776C5.40807 23.1209 5.7755 22.8866 6.08715 22.588C6.18708 22.4941 6.28094 22.3938 6.36815 22.288L15.0941 12.478C16.0267 12.7519 17.0076 12.8201 17.9691 12.678C18.9823 12.4686 19.9192 11.9867 20.6788 11.2843C21.4385 10.582 21.9921 9.68568 22.2801 8.69199C22.6071 7.62048 22.5712 6.47104 22.1781 5.42199V5.42199Z" stroke="#444444" stroke-miterlimit="10" stroke-linecap="square"/>
</svg>
