<svg width="9" height="9" viewBox="0 0 9 9" fill="none" xmlns="http://www.w3.org/2000/svg">
<path fill-rule="evenodd" clip-rule="evenodd" d="M8.52185 2.83778L8.24842 2.56007L6.07776 0.355408L5.80433 0.0776933L5.5309 0.355408L1.55135 4.39728L1.48163 4.4681L1.4538 4.56418L0.54936 7.68744L0.349322 8.37822L1.02945 8.17505L4.10455 7.25644L4.19915 7.22818L4.26888 7.15737L8.24842 3.1155L8.52185 2.83778ZM4.03311 6.28596L7.42812 2.83778L6.94891 2.35106L3.52356 5.77641L4.03311 6.28596ZM2.9724 5.22525L6.40203 1.79562L5.80433 1.18855L2.3967 4.64955L2.9724 5.22525ZM2.02395 5.37913L1.49136 7.2183L3.31758 6.67276L2.02395 5.37913Z" fill="black"/>
</svg>
