<svg width="13" height="15" viewBox="0 0 13 15" fill="none" xmlns="http://www.w3.org/2000/svg">
<path d="M10.75 13.1875H1.8125C1.364 13.1875 1 12.8235 1 12.375V6.6875C1 6.239 1.364 5.875 1.8125 5.875H10.75C11.1985 5.875 11.5625 6.239 11.5625 6.6875V12.375C11.5625 12.8235 11.1985 13.1875 10.75 13.1875Z" stroke="#A7C27F" stroke-width="2" stroke-miterlimit="10" stroke-linecap="round" stroke-linejoin="round"/>
<path d="M7 8.59375C7 8.04147 6.55228 7.59375 6 7.59375C5.44772 7.59375 5 8.04147 5 8.59375H7ZM5 10.0938C5 10.646 5.44772 11.0938 6 11.0938C6.55228 11.0938 7 10.646 7 10.0938H5ZM5 8.59375V10.0938H7V8.59375H5Z" fill="#A7C27F"/>
<path d="M3.4375 5.875V3.84375C3.4375 2.27319 4.71069 1 6.28125 1C7.56988 1 8.65781 1.85638 9.00719 3.03125" stroke="#A7C27F" stroke-width="2" stroke-miterlimit="10" stroke-linecap="round" stroke-linejoin="round"/>
</svg>
