<svg width="18" height="18" viewBox="0 0 18 18" fill="none" xmlns="http://www.w3.org/2000/svg">
<path d="M9 9.5625C10.5533 9.5625 11.8125 8.3033 11.8125 6.75C11.8125 5.1967 10.5533 3.9375 9 3.9375C7.4467 3.9375 6.1875 5.1967 6.1875 6.75C6.1875 8.3033 7.4467 9.5625 9 9.5625Z" stroke="#444444" stroke-linecap="round" stroke-linejoin="round"/>
<path d="M14.5721 15.3236C14.0691 14.2725 13.2789 13.385 12.2929 12.7638C11.307 12.1426 10.1654 11.813 9.00001 11.813C7.83466 11.813 6.69307 12.1426 5.70709 12.7638C4.72111 13.385 3.93096 14.2725 3.42789 15.3236" stroke="#444444" stroke-linecap="round" stroke-linejoin="round"/>
<path d="M9 17.4375C13.6599 17.4375 17.4375 13.6599 17.4375 9C17.4375 4.3401 13.6599 0.5625 9 0.5625C4.3401 0.5625 0.5625 4.3401 0.5625 9C0.5625 13.6599 4.3401 17.4375 9 17.4375Z" stroke="#444444" stroke-linecap="round" stroke-linejoin="round"/>
</svg>
